<?xml version="1.0" encoding="UTF-8"?>
<!DOCTYPE svg PUBLIC "-//W3C//DTD SVG 1.1//EN" "http://www.w3.org/Graphics/SVG/1.1/DTD/svg11.dtd">
<svg version="1.1" id="Capa_1" xmlns="http://www.w3.org/2000/svg" xmlns:xlink="http://www.w3.org/1999/xlink" x="0px" y="0px" viewBox="0 0 595.28 595.28" enable-background="new 0 0 595.28 595.28" xml:space="preserve">
      <path id="color_x5F_5" fill="#FFD2BB" d="M368.781,242.055c-1.314-0.758-2.604,4.125-2.823,5.005
        c-0.021,0.086-0.036,0.147-0.036,0.147s-0.012-0.062-0.026-0.147c-0.075-0.429-0.3-1.789-0.3-2.791c0-1.202-0.063-3.21-2.747-6.141
        c-0.353-0.385-0.595-0.832-0.759-1.315h-14.648c-0.153,0.781-0.238,1.588-0.238,2.414v7.526c0,6.272,0.679,11.446,5.961,12.357
        v8.255h17.313v-14.229c0.167-0.281,0.326-0.567,0.471-0.861C370.947,252.274,371.171,243.432,368.781,242.055z M359.595,244.266
        c-0.429-0.047-0.727-0.655-0.659-1.361c0.068-0.702,0.471-1.235,0.905-1.188c0.431,0.046,0.729,0.654,0.659,1.359
        C360.431,243.777,360.029,244.313,359.595,244.266z M350.589,244.266c-0.43-0.047-0.727-0.655-0.659-1.361
        c0.068-0.702,0.471-1.235,0.905-1.188c0.431,0.046,0.729,0.654,0.659,1.359C351.424,243.777,351.023,244.313,350.589,244.266z
         M282.271,292.252l-0.229,11.934c-1.984-1.217-3.312-3.398-3.312-5.897C278.729,295.694,280.159,293.437,282.271,292.252z
         M292.256,296.216c0.205,0.654,0.316,1.351,0.316,2.072c0,0.137-0.013,0.27-0.021,0.404c-0.025,0.431-0.088,0.85-0.188,1.256
        l-0.037-1.269L292.256,296.216z M394.909,342.938c0.032,0.272,0.054,0.548,0.054,0.828c0,3.822-3.098,6.921-6.921,6.921
        c-0.91,0-1.776-0.18-2.572-0.499c-2.548-1.021-4.349-3.51-4.349-6.422c0-0.525,0.063-1.035,0.175-1.527
        c0.279-1.238,0.89-2.35,1.735-3.237c0.363-0.383,0.768-0.725,1.209-1.016c1.092-0.719,2.396-1.141,3.802-1.141
        c0.923,0,1.803,0.185,2.608,0.512C392.934,338.288,394.605,340.401,394.909,342.938z M488.307,255.734
        c0.157-0.266,0.308-0.535,0.444-0.813c0,0,0.21-8.344-2.045-9.643c-1.238-0.714-2.454,3.889-2.662,4.722
        c-0.021,0.082-0.035,0.141-0.035,0.141s-0.011-0.06-0.025-0.141c-0.046-0.265-0.15-0.896-0.22-1.573
        c-0.036-0.361-0.063-0.73-0.063-1.059c0-1.135-0.058-3.028-2.591-5.794c-1.574-1.72-0.923-4.726-0.205-6.752l-0.032,0.015
        c0,0-7.444,1.879-11.216,4.752c-1.744,1.329-2.737,3.089-3.308,4.601v5.522c0,6.523,0.76,11.807,7.282,11.807h2.74v7.367h-8.21
        l7.458,30.465l-4.203-17.172h10.23h3.321l-1.985,3.646l9.224-16.939h-3.899V255.734z M469.543,247.366
        c-0.403-0.045-0.686-0.618-0.621-1.284c0.063-0.662,0.443-1.166,0.854-1.122c0.405,0.044,0.688,0.618,0.622,1.282
        C470.331,246.904,469.953,247.409,469.543,247.366z M478.039,247.366c-0.403-0.045-0.685-0.618-0.62-1.284
        c0.063-0.662,0.443-1.166,0.854-1.122c0.405,0.044,0.688,0.618,0.623,1.282C478.827,246.904,478.45,247.409,478.039,247.366z
         M456.152,250.986c0.936,7.494-7.907,12.031-10.188,9.74c-1.004-1.011-2.117-2.758-3.245-4.979
        c-4.448-8.758-9.139-24.999-8.366-33.646c-1.061-1.145-2.25-2.429-2.254-2.431c-0.071-0.021-0.137-0.04-0.21-0.065
        c-0.483-0.171-0.996-0.46-1.521-0.834c-0.52-0.371-1.014-1.02-1.432-1.781l10.67,0.02c-0.02,0.683-0.049,1.567-0.078,2.5
        c3.098,3.789,6.565,11.029,6.565,11.029s7.146,12.143,9.403,18.162C455.846,249.629,456.081,250.416,456.152,250.986z
         M528.909,214.082c-0.329,1.848-1.345,3.887-2.467,4.689c-0.524,0.374-1.036,0.663-1.521,0.834
        c-0.072,0.025-0.139,0.044-0.209,0.065c-0.004,0.002-1.194,1.286-2.255,2.431c0.841,9.415-4.794,27.835-9.541,35.792
        c-0.104,0.174-0.206,0.339-0.31,0.503c-0.609,0.971-1.202,1.768-1.761,2.33c-2.073,2.084-9.573-1.481-10.211-7.781
        c-0.063-0.627-0.062-1.28,0.023-1.959c0.079-0.637,0.363-1.544,0.782-2.619c2.387-6.123,9.275-17.828,9.275-17.828
        s3.469-7.24,6.565-11.029c-0.027-0.869-0.054-1.697-0.073-2.358l6.589,0.012L528.909,214.082z"></path>
      <path id="color_x5F_4" fill="#74af31" d="M375.318,424.337l12.544,40.399l-12.619,11.522l-22.27,0.017l-2.108-11.771
        c0.887-2.271,6.038-15.949,6.811-28.768c0.047-0.779,0.061-1.516,0.075-2.252c2.079,1.749,3.323,3.227,4.014,4.406
        c-2.114,4.631,2.49,4.249,0,0c1.087-2.381,3.946-6.082,10.466-11.269C373.256,425.807,374.287,425.055,375.318,424.337z
         M464.421,434.971c-2.938,1.369-5.947,3.186-8.989,5.559c-14.131,11.022-18.092-2.748-24.594-9.945
        c-10.979-12.155-26.196-17.658-41.9-12.955c2.84,3.996,4.823,9.839,4.693,18.423c-0.207,13.703-4.999,26.838-5.659,28.585
        l1.384-1.264l2.306,12.873l64.705-0.051l12.32-11.249L464.421,434.971z M495.619,434.518c-4.808-2.014-11.706-3.845-19.687-2.877
        c-1.077,11.005-4.124,28.521-5.528,36.313l1.474,8.229l21.022-0.016l10.038-9.166L495.619,434.518z M350.49,463.531l-7.279-39.054
        c-15.796-8.444-28.779-14.321-47.383-4.438l1.624,56.278l39.065-0.029L350.49,463.531z M361.765,437.891
        C359.65,442.521,364.255,442.14,361.765,437.891L361.765,437.891z M279.619,430.098c-19.946,8.2-39.954-14.111-19.822-31.822
        c10.366-9.12,10.366-9.12,10.366-9.12s-91.104,5.908-65.055,64.072c10.36,23.134,37.442,23.134,37.442,23.134l36.179-0.028
        L279.619,430.098z M179.24,278.773c0-0.988-0.103-1.952-0.266-2.895H80.098c-0.163,0.942-0.266,1.906-0.266,2.895v34.105h99.408
        V278.773z M179.24,320.879H79.832v43h99.408V320.879z M179.24,444.473v-30.594H79.832v30.594c0,9.326,7.56,16.885,16.885,16.885
        h65.639C171.681,461.357,179.24,453.799,179.24,444.473z M179.24,369.879H79.832v37h99.408V369.879z"></path>
      <path id="color_x5F_3" fill="#9726a8" d="M374.629,232.317c0,0,1.992,6.771-0.397,14.635c-1.14,3.751-2.463,3.657-3.284,5.322
        c0,0,0.224-8.843-2.166-10.22c-1.314-0.758-2.604,4.125-2.823,5.005c-0.021,0.086-0.036,0.147-0.036,0.147s-0.012-0.062-0.026-0.147
        c-0.075-0.429-0.3-1.789-0.3-2.791c0-1.202-0.063-3.21-2.747-6.141c-0.353-0.385-0.595-0.832-0.759-1.315h-14.648h-0.003
        c0,0-3.903-5.256-3.372-10.099s6.646-10.026,13.512-4.716c3.767,2.913,6.662,5.559,6.662,5.559
        C368.257,227.041,372.041,226.643,374.629,232.317z M524.223,272.043c-1.306-6.676-6.221-10.725-11.477-13.572
        c-2.125,7.033-8.762,22.14-9.809,26.021c-1.396,5.175-3.692,11.301-5.73,16.595c2.841-0.621,6.444-2.051,10.974-4.865
        C525.008,285.767,525.182,276.947,524.223,272.043z M502.211,356.118c2.295-10.93-1.628-16.321-1.628-16.321h-40.579
        c0,0-3.84,9.479-3.748,30.105c0.075,17.083,3.518,32.403,3.518,32.403l3.46,24.316h13.042c0.239-7.079-1.028-12.226-2.977-15.942
        c0.715-8.219,2.202-23.566,4.283-35.749c3.357,15.773,9.911,28.095,9.911,28.095l8.126,31.492l-1.778-7.896h16.305
        c0.011,0.548,0.014,1.107,0.005,1.682c0.132-8.786-2.078-14.535-5.125-18.308C503.496,397.969,499.93,367,502.211,356.118z
         M466.349,244.19c0.57-1.512,1.563-3.271,3.308-4.601c3.771-2.873,11.216-4.752,11.216-4.752l0.032-0.015
        c-0.718,2.026-1.369,5.032,0.205,6.752c2.533,2.766,2.591,4.659,2.591,5.794c0,0.328,0.027,0.697,0.063,1.059
        c0.069,0.677,0.174,1.309,0.22,1.573c0.015,0.081,0.025,0.141,0.025,0.141s0.015-0.059,0.035-0.141
        c0.208-0.833,1.424-5.436,2.662-4.722c2.255,1.299,2.045,9.643,2.045,9.643c-0.137,0.277-0.287,0.547-0.444,0.813v13.152h3.899
        l7.431-16.512c-0.161-0.102-0.318-0.203-0.463-0.307c-3.238-2.311-5.184-4.852-6.342-7.218c0.477-5.046-0.608-8.757-0.608-8.757
        c-1.908-4.182-4.505-4.864-7.355-4.732c-4.652-0.741-13.98-1.896-16.708,0.241c-8.259,6.472-2.563,15.767-2.563,15.767
        S465.686,245.948,466.349,244.19z M471.416,282.18l4.203,17.172l7.363-13.525l1.985-3.646h-3.321H471.416z"></path>
      <path id="color_x5F_2" fill="#FBC02D" d="M477.568,199.604h-25.811l13.075-4.631h22.354L477.568,199.604z M476.008,200.354h-26.372
        l-21.239,7.522h31.988L476.008,200.354z M504.374,199.604l9.616-4.631h-25.072l-9.618,4.631H504.374z M543.426,194.973l-9.617,4.631
        h19.115l7.681-4.631H543.426z M532.077,199.604l9.618-4.631h-25.973l-9.618,4.631H532.077z M502.813,200.354H477.74l-15.623,7.522
        h25.072L502.813,200.354z M439.607,217.01l1.803,0.004l17.414-8.385h-32.549l-23.476,8.313l26.138,0.048L439.607,217.01z
         M497.437,217.115l19.772,0.036l6.589,0.012l5.111-3.081l9.046-5.453h-22.891L497.437,217.115z M516.625,207.877h22.577
        l12.476-7.522h-19.43L516.625,207.877z M513.333,208.629h-25.974l-17.521,8.436l25.874,0.047L513.333,208.629z M530.517,200.354
        h-25.974l-15.622,7.522h25.973L530.517,200.354z M443.135,217.016l24.979,0.047l17.515-8.434h-25.072L443.135,217.016z
         M530.517,480.12c0,2.076-1.683,3.759-3.759,3.759H41.198c-2.076,0-3.759-1.683-3.759-3.759s1.683-3.759,3.759-3.759h37.857
        c-10.142-3.512-17.448-13.152-17.448-24.475V241.9c0-14.28,11.618-25.897,25.897-25.897h19.75v-13.706
        c0-5.729,4.661-10.391,10.391-10.391h22.9c5.73,0,10.392,4.661,10.392,10.391v13.706h19.75c14.28,0,25.897,11.617,25.897,25.897
        v209.986c0,11.322-7.306,20.963-17.448,24.475h63.413h36.179l0-0.028l0.889-46.235l2.422-125.912l0.229-11.934l1.067-55.467
        c-3.885,3.663-9.271,7.811-15.513,11.783c-14.039,8.936-27.066,13.596-29.095,10.408c-2.03-3.189,7.706-13.019,21.745-21.955
        c8.821-5.615,17.24-9.54,22.785-10.893c-2.291-5.047-4.063-14.906-4.449-26.294c-0.564-16.632,2.04-30.22,5.818-30.349
        c3.777-0.128,7.297,13.251,7.862,29.885c0.381,11.238-0.685,21.078-2.582,26.324c5.315,0.633,14.942,4.857,25.104,11.326
        c14.04,8.937,23.775,18.766,21.746,21.955c-2.03,3.188-15.057-1.473-29.096-10.408c-7.187-4.574-13.239-9.38-17.17-13.411
        l1.762,61.059l0.071,2.464l0.037,1.269l0.228,7.888l3.237,112.204l1.624,56.278l0.001,0.043h38.985h16.551h22.142h16.551h135.076
        C528.834,476.361,530.517,478.044,530.517,480.12z M170.688,468.784c9.317,0,16.897-7.58,16.897-16.897V241.9
        c0-9.317-7.58-16.897-16.897-16.897h-28.75v-22.706c0-0.767-0.624-1.391-1.392-1.391h-22.9c-0.767,0-1.391,0.624-1.391,1.391v22.706
        h-28.75c-9.317,0-16.897,7.58-16.897,16.897v209.986c0,9.317,7.58,16.897,16.897,16.897H170.688z"></path>
      <path id="color_x5F_1" fill="#0984E3" d="M358.936,242.904c0.068-0.702,0.471-1.235,0.905-1.188
        c0.431,0.046,0.729,0.654,0.659,1.359c-0.069,0.702-0.471,1.237-0.905,1.19C359.166,244.219,358.868,243.61,358.936,242.904z
         M350.589,244.266c0.435,0.047,0.835-0.488,0.905-1.19c0.07-0.705-0.229-1.313-0.659-1.359c-0.435-0.047-0.837,0.486-0.905,1.188
        C349.862,243.61,350.159,244.219,350.589,244.266z M406.61,293.78c-2.153-5.926-7.05-17.413-13.941-21.942
        c-1.679-2.72-4.274-4.473-7.196-4.473h-14.996h-17.313h-14.671c-2.629,0-4.992,1.422-6.664,3.687
        c-0.183,0.169-0.364,0.343-0.541,0.528c-3.699,3.905-12.171,21.59-12.171,21.59s-1.279,4.08-2.289,8.936
        c-5.625-1.553-17.151-2.525-17.151-2.525s-3.582-0.674-7.125-0.888c-0.025,0.431-0.088,0.85-0.188,1.256l0.228,7.888
        c7.065,4.565,17.778,8.495,24.678,9.607c0.365,0.309,0.793,0.524,1.308,0.602c4.868,0.729,10.656-3.479,15.919-9.678l5.48,31.043
        c-1.151,8.401-2.98,23.068-3.473,34.739c-0.762,18.091,3.275,33.853,3.275,33.853l0.453,0.492l2.979,15.983l7.279,39.054
        l-13.973,12.758l-0.079,0.072h16.551l-0.016-0.086l-2.108-11.771c0.887-2.271,6.038-15.949,6.811-28.768
        c0.047-0.779,0.061-1.516,0.075-2.252c0.137-7.103-1.188-12.312-3.182-16.113c0.757-8.714,2.336-24.982,4.54-37.894
        c3.559,16.72,10.505,29.781,10.505,29.781l1.281,0.833l4.423,14.245l12.544,40.399l-12.619,11.522l-0.112,0.103h16.551l-0.021-0.115
        l-2.306-12.873l-1.384,1.264c0.66-1.747,5.452-14.882,5.659-28.585c0.13-8.584-1.854-14.427-4.693-18.423
        c-0.241-0.339-0.486-0.67-0.739-0.982c-1.621-12.747-5.402-45.572-2.983-57.107c0.606-2.888,0.618-6.082,0.255-9.351
        c-2.548-1.021-4.349-3.51-4.349-6.422c0-0.525,0.063-1.035,0.175-1.527c0.279-1.238,0.89-2.35,1.735-3.237
        c0.363-0.383,0.768-0.725,1.209-1.016l5.285-29.931c0.982,1.56,2.838,4.354,5.034,6.923c-2.025,2.902-3.143,16.611-3.143,16.611
        s-0.581,2.834-0.767,5.768c2.283,0.931,3.955,3.044,4.259,5.581c7.902-4.549,15.944-24.264,14.384-29.798
        c-0.005-0.02-0.017-0.036-0.023-0.055C410.335,307.604,409.056,300.19,406.61,293.78z M463.233,426.622L463.233,426.622l1.188,8.349
        l4.266,29.976l-12.32,11.249l-0.087,0.08h15.615l-0.017-0.092l-1.474-8.229c1.404-7.793,4.451-25.309,5.528-36.313
        c0.128-1.311,0.23-2.537,0.297-3.635c0.028-0.469,0.049-0.931,0.064-1.384h-0.019H463.233z M510.146,426.622h-16.305l1.778,7.896
        l7.319,32.484l-10.038,9.166l-0.118,0.107h15.615l-2.098-11.713c1.551-10.83,3.717-27.396,3.851-36.259
        C510.159,427.729,510.156,427.17,510.146,426.622z M478.039,247.366c0.411,0.043,0.788-0.462,0.856-1.124
        c0.065-0.664-0.218-1.238-0.623-1.282c-0.41-0.044-0.791,0.46-0.854,1.122C477.354,246.748,477.636,247.321,478.039,247.366z
         M469.543,247.366c0.41,0.043,0.788-0.462,0.855-1.124c0.066-0.664-0.217-1.238-0.622-1.282c-0.411-0.044-0.791,0.46-0.854,1.122
        C468.857,246.748,469.14,247.321,469.543,247.366z M512.607,258.396c-0.609,0.971-1.202,1.768-1.761,2.33
        c-2.073,2.084-9.573-1.481-10.211-7.781c-0.063-0.627-0.062-1.28,0.023-1.959c0.079-0.637,0.363-1.544,0.782-2.619l-1.805,4.008
        l-7.431,16.512l-9.224,16.939l-7.363,13.525l-7.458-30.465h-1.813l-0.019,0.18c-1.244-0.302-6.782-17.27-10.832-20.365
        c0.348,0.928,0.583,1.715,0.654,2.285c0.936,7.494-7.907,12.031-10.188,9.74c-1.004-1.011-2.117-2.758-3.245-4.979l10.703,24.882
        c-0.501,15.54,10.261,26.069,10.987,36.411c0.219,3.108-0.82,8.58-1.943,13.38c-1.185,5.062-2.463,9.376-2.463,9.376h40.579
        c0,0-3.427-8.568-5.688-16.387c-1.167-4.035-2.024-7.87-1.938-10.225c0.051-1.393,1.992-6.235,4.25-12.099
        c2.038-5.294,4.334-11.42,5.73-16.595c1.047-3.882,7.684-18.988,9.809-26.021c0.06-0.197,0.119-0.393,0.171-0.577
        C512.813,258.067,512.711,258.232,512.607,258.396z"></path>
      </svg>
