<?xml version="1.0" encoding="UTF-8"?>
<!DOCTYPE svg PUBLIC "-//W3C//DTD SVG 1.1//EN" "http://www.w3.org/Graphics/SVG/1.1/DTD/svg11.dtd">
<svg version="1.1" id="Capa_1" xmlns="http://www.w3.org/2000/svg" xmlns:xlink="http://www.w3.org/1999/xlink" x="0px" y="0px" viewBox="0 0 595.28 595.28" enable-background="new 0 0 595.28 595.28" xml:space="preserve">
            <path id="color_x5F_5" fill="#FFD2BB" d="M439.203,250.822c0.445,0.186,1.055,0.302,1.734,0.349
                c0.086,7.055-0.064,12.632,6.275,11.865c1.988-0.24,4.438-1.089,6.995-2.366l2.501,13.776c1.681-2.823,3.506-5.668,4.747-8.827
                c0.32-0.816,0.613-1.646,0.841-2.51c0.759-2.876,0.163-5.365-0.841-7.343c-1.577-3.105-4.169-4.937-4.169-4.937l4.169-5.547
                l0.101-0.134c-0.02-0.163-0.059-0.322-0.101-0.481c-0.168-0.64-0.511-1.239-1.079-1.719c-0.757-0.646-1.668-0.973-2.607-1.044
                c-1.51-0.035-3.06,0.565-4.134,1.604c-0.95,0.91-1.58,2.119-1.92,3.41c-0.063-0.099-0.108-0.209-0.167-0.311
                c-0.032,0.104-0.074,0.206-0.102,0.311c-1.9-3-2.13-7.23-0.74-11.551c0.16-0.07,0.003-0.102-0.364-0.107
                c-2.114,0.026-8.379,0.587-8.997,0.658l-0.114,0.019c-0.743,2.548-1.01,5.352-0.659,8.253c0.025,0.209,0.047,0.417,0.066,0.625
                c-0.197,0.294-0.377,0.61-0.521,0.954C439.125,248.128,437.213,249.984,439.203,250.822z M442.416,243.687
                c0.529-1.19,1.412-2.276,2.789-2.411c1.415-0.141,2.508,0.707,3.293,1.801c0.465,0.646-0.621,1.232-1.082,0.595
                c-1.158-1.606-3.012-1.467-3.82,0.374C443.283,244.767,442.099,244.42,442.416,243.687z M468.891,335.604
                c-0.086,0.01-0.187,0.017-0.282,0.021c-2.249,0.17-7.251-0.783-12.282-1.941c-6.896-1.587-13.846-3.559-13.846-3.559
                s-7.969-1.282-14.64-3.115c-0.151,0.35-0.366,0.668-0.66,0.934c-0.955,0.862-7.943,2.019-12.856,1.846
                c-1.804-0.063-3.33-0.304-4.172-0.806c-1.779-1.063-0.019-7.389-0.019-7.389s-0.107-2.555,1.269-4.298
                c0.469-0.595,1.109-1.097,1.989-1.368c0.46-0.143,0.979-0.229,1.577-0.226c2.418,0.01,4.609,0.634,6.487,1.594
                c0.902,0.461,1.738,0.993,2.48,1.585c1.898-0.66,4.212-1.183,6.778-1.585c6.546-1.027,14.786-1.254,22.354-0.842
                c3.177,0.173,6.231,0.458,8.993,0.842c3.345,0.465,6.258,1.074,8.417,1.809c0.89,0.305,1.664,0.625,2.278,0.97
                C476.198,322.005,477.418,334.472,468.891,335.604z M448.162,453.668c0.048,0.25,0.074,0.388,0.074,0.388s-0.075-0.093-0.183-0.225
                c-2.438-3.003-31.37-38.729-35.97-49.541c-0.864-2.032-1.693-3.931-2.432-5.707c0,0-0.036-0.036-0.093-0.097
                c-0.002-0.003-0.004-0.005-0.007-0.008c-0.062-0.066-0.15-0.166-0.259-0.297c-0.001-0.001-0.003-0.002-0.004-0.004
                c-0.552-0.665-1.609-2.132-2.265-4.266c-0.001-0.002-0.001-0.004-0.002-0.005c-0.13-0.426-0.244-0.878-0.336-1.354
                c0-0.002-0.001-0.004-0.001-0.005h25.896h0.001c0.005,0.008,0.009,0.016,0.013,0.023c0.332,0.546,0.645,1.112,0.947,1.688
                c0.076,0.146,0.151,0.293,0.227,0.44c0.301,0.597,0.592,1.204,0.859,1.834C439.176,407.225,447.31,449.229,448.162,453.668z
                 M133.38,263.672l1.565-8.624l0.521-2.872c2.559,1.278,5.008,2.127,6.996,2.367c0.859,0.104,1.589,0.082,2.227-0.035
                c4.066-0.747,3.974-5.731,4.048-11.83c0.679-0.047,1.289-0.163,1.733-0.35c1.99-0.837,0.078-2.693-0.913-5.051
                c-0.146-0.344-0.324-0.66-0.522-0.955c0.02-0.207,0.042-0.416,0.067-0.625c0.351-2.902,0.083-5.705-0.66-8.255l-0.115-0.015
                c-0.292-0.035-1.852-0.179-3.638-0.324c-2.976-0.241-6.578-0.485-5.985-0.232c1.383,4.328,1.155,8.559-0.743,11.56
                c-0.34-1.296-0.968-2.5-1.918-3.414c-0.724-0.699-1.666-1.194-2.664-1.441c-1.5-0.372-3.128-0.167-4.354,0.876
                c-1.521,1.297-1.523,3.369-0.531,5.013c0.431,0.72,0.977,1.331,1.614,1.813c0.604,0.466,1.285,0.824,2.008,1.056
                c-1.219,0.226-2.515,0.229-3.854,0.018c-2.517-0.381-5.162-1.513-7.625-3.305c-0.034-0.018-0.059-0.035-0.084-0.059
                c-0.218-0.158-0.426-0.348-0.64-0.518l-7.798,18.798l0.319,0.192l19.892,12.012L133.38,263.672z M141.179,236.32
                c0.529-1.19,1.412-2.277,2.789-2.411c0.251-0.025,0.49-0.009,0.721,0.024c1.069,0.154,1.926,0.877,2.572,1.777
                c0.465,0.646-0.621,1.231-1.082,0.595c-0.43-0.597-0.957-0.951-1.49-1.068c-0.901-0.198-1.822,0.286-2.331,1.443
                C142.046,237.4,140.862,237.055,141.179,236.32z M194.531,333.25c0,0,0.549,5.892-4.543,6.119c-3.576,0.16-6.738-1.029-9.113-2.737
                c-3.415,1.378-8.216,2.368-13.506,3h-7.564v0.647c-5.108,0.276-10.289,0.258-14.857-0.047c-4.229-0.282-7.937-0.804-10.568-1.559
                c-0.904-0.259-1.694-0.543-2.324-0.856c-0.145-0.071-0.285-0.168-0.423-0.273c-0.036-0.028-0.071-0.057-0.107-0.087
                c-0.124-0.104-0.246-0.219-0.364-0.348c-0.012-0.014-0.024-0.023-0.036-0.037c-0.128-0.145-0.251-0.307-0.37-0.478
                c-0.03-0.043-0.059-0.088-0.088-0.132c-0.104-0.158-0.205-0.325-0.3-0.502c-0.013-0.025-0.027-0.048-0.041-0.073
                c-0.108-0.206-0.21-0.425-0.306-0.651c-0.018-0.043-0.035-0.087-0.053-0.13c-0.086-0.213-0.168-0.434-0.244-0.662
                c-0.008-0.023-0.016-0.046-0.024-0.069c-0.084-0.26-0.159-0.529-0.227-0.805c-0.006-0.025-0.012-0.051-0.018-0.076
                c-0.064-0.27-0.122-0.547-0.169-0.828c-0.002-0.011-0.004-0.021-0.006-0.031c-0.407-2.443-0.163-5.253,1.153-7.376
                c0.004-0.007,0.008-0.013,0.012-0.02c0.113-0.181,0.233-0.355,0.362-0.525c0.01-0.014,0.02-0.027,0.03-0.04
                c0.124-0.161,0.255-0.316,0.394-0.467c0.018-0.02,0.036-0.04,0.055-0.06c0.132-0.14,0.271-0.272,0.417-0.401
                c0.029-0.025,0.058-0.053,0.088-0.078c0.138-0.119,0.285-0.229,0.436-0.338c0.042-0.029,0.082-0.062,0.125-0.091
                c0.145-0.099,0.298-0.188,0.454-0.277c0.055-0.031,0.106-0.064,0.162-0.095c0.153-0.081,0.315-0.153,0.479-0.225
                c0.065-0.028,0.127-0.061,0.195-0.088c0.169-0.067,0.349-0.125,0.529-0.183c0.068-0.021,0.131-0.048,0.202-0.067
                c0.252-0.072,0.515-0.135,0.789-0.185c0.085-0.015,0.187-0.025,0.28-0.037c2.027-0.253,6.355,0.305,10.93,1.089
                c7.396,1.27,15.437,3.134,15.437,3.134s8.019,0.894,14.772,2.398c0.133-0.358,0.334-0.685,0.615-0.965
                c1.248-1.239,13.734-3.584,16.957-1.868C195.98,326.848,194.531,333.25,194.531,333.25z M347.258,192.721
                c-0.4-1.388-0.962-2.502-1.755-2.959c-0.968-0.558-1.923,1.325-2.606,3.202c-0.48,1.323-0.823,2.625-0.938,3.082
                c-0.007,0.027-0.016,0.063-0.021,0.084c-0.016,0.063-0.024,0.101-0.024,0.101s-0.01-0.052-0.023-0.131
                c-0.003-0.014-0.007-0.038-0.01-0.055c-0.071-0.404-0.243-1.456-0.328-2.497c-0.028-0.347-0.049-0.692-0.049-1.007
                c0-1.51-0.078-4.029-3.448-7.709c-0.442-0.483-0.746-1.044-0.952-1.651h-18.392c-0.191,0.981-0.298,1.993-0.298,3.03v9.449
                c0,7.875,0.852,14.37,7.482,15.514v10.364h6.602l0.011-0.06l0.01,0.06h15.113v-8.167v-4v-5.697c0.21-0.353,0.41-0.712,0.592-1.082
                c0,0,0.071-2.84-0.246-5.871C347.832,195.343,347.606,193.929,347.258,192.721z M323.8,191.043
                c-0.088,0.881-0.592,1.553-1.137,1.494c-0.539-0.059-0.912-0.822-0.828-1.709c0.086-0.881,0.592-1.551,1.137-1.492
                C323.513,189.395,323.888,190.158,323.8,191.043z M333.142,190.828c0.086-0.881,0.592-1.551,1.137-1.492
                c0.541,0.059,0.916,0.822,0.828,1.707c-0.088,0.881-0.592,1.553-1.137,1.494C333.431,192.479,333.058,191.715,333.142,190.828z
                 M249.826,260.36c0,0.171-0.016,0.338-0.025,0.507c-0.194,3.345-2.271,6.183-5.195,7.458c-1.063,0.464-2.235,0.725-3.469,0.725
                c-4.799,0-8.689-3.891-8.689-8.689s3.891-8.689,8.689-8.689C245.937,251.671,249.826,255.562,249.826,260.36z M378.365,317.298
                c0.001,0.054,0.008,0.104,0.008,0.158c0,4.799-3.89,8.689-8.689,8.689c-1.143,0-2.23-0.227-3.229-0.627
                c-3.198-1.282-5.46-4.405-5.46-8.063c0-0.054,0.007-0.104,0.008-0.158c0.011-0.604,0.084-1.192,0.212-1.76
                c0.351-1.555,1.117-2.949,2.179-4.064c0.456-0.479,0.963-0.909,1.518-1.274c1.371-0.903,3.01-1.433,4.773-1.433
                c1.159,0,2.263,0.231,3.273,0.644c2.868,1.168,4.967,3.82,5.348,7.006C378.34,316.706,378.359,317,378.365,317.298z"></path>
            <path id="color_x5F_4" fill="#00CEC9" d="M308.601,307.797l0.74,4.19c-0.22,1.604-0.459,3.384-0.709,5.311h-161.91
                c0.023-0.427,0.049-0.849,0.072-1.276c0.147-2.743,0.275-5.504,0.383-8.225H308.601z M386.511,307.797
                c-2.563,3.846-5.391,6.998-8.206,8.619c0.035,0.29,0.055,0.584,0.061,0.882h33.037c0.469-0.595,1.109-1.097,1.989-1.368
                c0.46-0.143,0.979-0.229,1.577-0.226c2.418,0.01,4.609,0.634,6.487,1.594h9.259c6.546-1.027,14.786-1.254,22.354-0.842
                c-2.105-3.473-4.706-6.11-6.547-8.659H386.511z M464.287,300.226c3.223,1.097,6.773,1.507,10.479,1.363v-0.226
                C471.058,301.558,467.512,301.231,464.287,300.226z M364.91,310.199c1.371-0.903,3.01-1.433,4.773-1.433
                c1.159,0,2.263,0.231,3.273,0.644c0.035-0.545,0.08-1.085,0.133-1.613h-7.755L364.91,310.199z M142.462,254.543
                c-1.988-0.24-4.438-1.089-6.996-2.367l-0.521,2.872c3.887,2.439,7.434,7.537,9.745,14.339v-14.879
                C144.052,254.625,143.321,254.646,142.462,254.543z M133.38,105.445V207.75c0.494,0.189,1.023,0.391,2.542,0.64
                c0.647,0.107,1.481,0.221,2.567,0.353c2.296,0.268,4.294-0.128,6.2-0.553v-93.244h316.767v100.546
                c7.18,0.119,11.144,2.777,13.31,6.159V105.445H133.38z M431.312,176.07h-79.227c0.261,0.452,0.516,0.932,0.76,1.467
                c0,0,0.271,0.939,0.528,2.533h77.938c2.193,0,3.972-0.896,3.972-2S433.505,176.07,431.312,176.07z M431.312,192.721h-78.177
                c-0.207,1.042-0.461,2.105-0.79,3.189c-0.088,0.288-0.176,0.557-0.265,0.811h79.231c2.193,0,3.972-0.896,3.972-2
                S433.505,192.721,431.312,192.721z M435.283,211.371c0-1.104-1.778-2-3.972-2h-83.681v4h83.681
                C433.505,213.371,435.283,212.476,435.283,211.371z M430.843,230.021c-0.393-0.894-0.663-1.86-0.786-2.882
                c-0.046-0.376-0.066-0.748-0.07-1.118h-55.266c0.264,0.348,0.514,0.713,0.749,1.093c1.232,0.807,2.413,1.791,3.541,2.907H430.843z
                 M431.312,242.672h-43.532c0.698,1.35,1.345,2.694,1.94,4h41.592c2.193,0,3.972-0.896,3.972-2S433.505,242.672,431.312,242.672z
                 M435.283,145.387c0-2.193-1.778-3.972-3.972-3.972h-86.557c-2.193,0-3.971,1.778-3.971,3.972c0,2.192,1.777,3.971,3.971,3.971
                h86.557C433.505,149.357,435.283,147.579,435.283,145.387z"></path>
            <path id="color_x5F_3" fill="#E84393" d="M329.338,290.888l-3.73-24.359l2.306-15.055l4.146-27.081l0.108-0.705l0.329-2.149
                l0.011-0.06l0.01,0.06l0.229,2.149l0.095,0.88l2.442,22.921l1.984,18.62L329.338,290.888z M220.562,234.301
                c23.426,0,42.417-18.99,42.417-42.417h-42.417l23.955-35.003c-6.817-4.675-15.065-7.414-23.955-7.414
                c-23.426,0-42.417,18.99-42.417,42.417S197.135,234.301,220.562,234.301z M365.742,339.632H306.11H167.368h-7.564v0.647v8.389
                h35.272v133.223h9.036V348.668h101.262h59.795h27.123v133.223h9.036V348.668h33.956v-9.036H365.742z"></path>
            <path id="color_x5F_2" fill="#FBC02D" d="M409.29,398.178c-0.441-0.531-1.203-1.584-1.827-3.072
                C408.087,396.595,408.849,397.646,409.29,398.178z M136.808,382.277H98.527c-2.332,0-4.224,1.891-4.224,4.224
                s1.892,4.225,4.224,4.225h22.854v75.405h-14.372c-1.567,0-2.839,1.271-2.839,2.838s1.271,2.839,2.839,2.839h14.372v24.937h-14.372
                c-1.567,0-2.839,1.271-2.839,2.838s1.271,2.839,2.839,2.839h34.743c1.567,0,2.838-1.271,2.838-2.839s-1.271-2.838-2.838-2.838
                H127.38v-24.937h14.371c1.567,0,2.838-1.271,2.838-2.839s-1.271-2.838-2.838-2.838H127.38v-75.405h22.852
                c2.333,0,4.225-1.892,4.225-4.225c0-0.569-0.116-1.111-0.321-1.606C148.026,384.031,141.944,383.002,136.808,382.277z
                 M150.736,207.496c-2.074-0.251-4.007,0.238-6.046,0.694c-1.905,0.425-3.903,0.821-6.2,0.553c-1.086-0.132-1.92-0.245-2.567-0.353
                c-1.519-0.25-2.048-0.451-2.542-0.64c-0.583-0.223-1.117-0.429-3.168-0.676c-0.189-0.023-0.38-0.047-0.563-0.062l-0.056-0.007
                c-14.654-0.518-17.154,8.771-17.46,15.091c-0.238,4.937,2.21,10.387,3.773,12.374c0.425,0.533,0.859,1.047,1.31,1.535
                c0.852,0.922,1.764,1.727,2.698,2.463c0.214,0.17,0.422,0.359,0.64,0.518c0.025,0.023,0.05,0.041,0.084,0.059
                c2.463,1.792,5.108,2.924,7.625,3.305c1.339,0.211,2.635,0.208,3.854-0.018c-0.723-0.231-1.403-0.59-2.008-1.056
                c-0.638-0.481-1.184-1.093-1.614-1.813c-0.992-1.644-0.99-3.716,0.531-5.013c1.226-1.042,2.854-1.248,4.354-0.876
                c0.998,0.247,1.94,0.743,2.664,1.441c0.95,0.914,1.578,2.118,1.918,3.414c1.898-3.001,2.126-7.231,0.743-11.56
                c-0.593-0.253,3.009-0.009,5.985,0.232c1.786,0.145,3.346,0.289,3.638,0.324l0.115,0.015l0.007,0.001
                c5.38,0.582,10.242-3.33,10.902-8.795C160.017,213.148,156.163,208.15,150.736,207.496z M352.845,177.537
                c-0.244-0.535-0.499-1.015-0.76-1.467c-3.208-5.569-7.619-5.109-12.283-4.51c0,0-3.636-3.321-8.364-6.979
                c-8.62-6.667-16.296-0.16-16.963,5.92s4.233,12.679,4.233,12.679h0.003h18.392c0.206,0.607,0.51,1.168,0.952,1.651
                c3.37,3.68,3.448,6.199,3.448,7.709c0,0.314,0.021,0.66,0.049,1.007c0.085,1.041,0.257,2.093,0.328,2.497
                c0.003,0.017,0.007,0.041,0.01,0.055c0.014,0.079,0.023,0.131,0.023,0.131s0.009-0.039,0.024-0.101
                c0.006-0.021,0.015-0.058,0.021-0.084c0.114-0.457,0.457-1.759,0.938-3.082c0.684-1.876,1.639-3.76,2.606-3.202
                c0.793,0.457,1.354,1.571,1.755,2.959c0.349,1.208,0.574,2.622,0.719,4c0.317,3.031,0.246,5.871,0.246,5.871
                c0.967-1.962,2.49-1.979,3.857-5.871c0.089-0.253,0.177-0.522,0.265-0.811c0.329-1.084,0.583-2.147,0.79-3.189
                c1.058-5.314,0.675-9.943,0.238-12.65C353.116,178.477,352.845,177.537,352.845,177.537z M252.572,153l-23.955,35.003h42.417
                C271.035,173.467,263.719,160.643,252.572,153z M494.657,382.277h-12.823c6.578-4.517,10.895-12.087,10.895-20.669
                c0-1.269-0.084-2.403-0.236-3.433c0-0.007,0.001-0.013,0.001-0.019c0-2.749-7.638-25.271-7.414-34.552
                c0.131-5.448,2.916-16.458,5.203-25.453c-5.169,2.019-10.482,3.241-15.517,3.437c-3.705,0.144-7.256-0.267-10.479-1.363
                c-0.979-0.333-1.918-0.746-2.831-1.206c-2.241-1.131-4.284-2.63-6.03-4.59c-0.49-0.73-0.931-1.551-1.3-2.471
                c-1.096-2.727-1.382-5.171-1.147-7.449c-0.098,0.136-0.199,0.278-0.299,0.417c-3.653,5.088-8.166,11.913-8.472,16.522
                c-0.155,2.313,0.835,4.302,2.314,6.348c1.841,2.549,4.441,5.187,6.547,8.659c3.177,0.173,6.231,0.458,8.993,0.842
                c3.345,0.465,6.258,1.074,8.417,1.809c0.89,0.305,1.664,0.625,2.278,0.97c3.44,1.929,4.66,14.396-3.867,15.528
                c-0.086,0.01-0.187,0.017-0.282,0.021c-2.249,0.17-7.251-0.783-12.282-1.941c-0.308,2.295-0.848,4.789-1.705,7.543
                c-1.469,4.715-2.915,9.127-4.023,12.788c0.552-0.224,1.21-0.443,1.94-0.658c-0.001,0.001-1.389,0.436-1.94,0.658
                c-40.806,16.509-45.381,30.83-43.911,38.532h25.896c-0.258-0.425-0.525-0.841-0.8-1.246c2.972-0.29,6.056-0.686,9.133-1.121
                c0.606,0.337,1.294,0.545,2.037,0.545h22.853v78.243h-14.21h-0.161c-1.005,0-1.882,0.524-2.387,1.311
                c-0.283,0.441-0.452,0.964-0.452,1.527c0,1.567,1.271,2.839,2.839,2.839h14.371v22.099h-14.371c-1.568,0-2.839,1.271-2.839,2.838
                s1.271,2.839,2.839,2.839h34.742c1.568,0,2.839-1.271,2.839-2.839s-1.271-2.838-2.839-2.838h-14.371v-22.099h14.371
                c1.568,0,2.839-1.271,2.839-2.839s-1.271-2.838-2.839-2.838h-14.371v-78.243h22.853c2.333,0,4.224-1.892,4.224-4.225
                S496.99,382.277,494.657,382.277z"></path>
            <path id="color_x5F_1" fill="#0984E3" d="M448.498,243.076c0.465,0.646-0.621,1.232-1.082,0.595
                c-1.158-1.606-3.012-1.467-3.82,0.374c-0.313,0.722-1.497,0.375-1.18-0.358c0.529-1.19,1.412-2.276,2.789-2.411
                C446.62,241.135,447.713,241.982,448.498,243.076z M457.364,277.961c0.01-0.016,0.021-0.033,0.032-0.049l-0.057,0.01l0.008,0.042
                L457.364,277.961z M143.968,233.909c-1.377,0.134-2.26,1.221-2.789,2.411c-0.317,0.734,0.867,1.08,1.18,0.359
                c0.508-1.157,1.429-1.641,2.331-1.443v-1.304C144.458,233.9,144.22,233.884,143.968,233.909z M146.179,236.305
                c0.461,0.637,1.547,0.051,1.082-0.595c-0.646-0.9-1.502-1.623-2.572-1.777v1.304C145.223,235.354,145.749,235.708,146.179,236.305z
                 M333.97,192.537c0.545,0.059,1.049-0.613,1.137-1.494c0.088-0.885-0.287-1.648-0.828-1.707c-0.545-0.059-1.051,0.611-1.137,1.492
                C333.058,191.715,333.431,192.479,333.97,192.537z M322.972,189.336c-0.545-0.059-1.051,0.611-1.137,1.492
                c-0.084,0.887,0.289,1.65,0.828,1.709c0.545,0.059,1.049-0.613,1.137-1.494C323.888,190.158,323.513,189.395,322.972,189.336z
                 M448.162,453.668c0.048,0.25,0.074,0.388,0.074,0.388s-0.075-0.093-0.183-0.225l-16.724,25.056c0,0,0.004-0.002,0.018-0.007
                c0.473-0.222,7.428-3.353,17.699-8.601c0.505-0.786,1.382-1.311,2.387-1.311h0.161c1.156-0.599,2.335-1.213,3.558-1.857
                l-6.794-13.737L448.162,453.668z M490.014,298.152c-5.12,1.779-10.325,2.954-15.248,3.211c-3.708,0.194-7.254-0.132-10.479-1.138
                c-0.979-0.333-1.918-0.746-2.831-1.206c-2.241-1.131-4.284-2.63-6.03-4.59c-0.49-0.73-0.931-1.551-1.3-2.471
                c-1.096-2.727-1.382-5.171-1.147-7.449c-0.098,0.136-0.199,0.278-0.299,0.417c0.01-0.139,0.016-0.279,0.03-0.417
                c0.115-0.159,0.224-0.308,0.337-0.463c0.43-3.184,1.854-6.051,3.521-8.903l-0.064-0.354c0.067-0.115,0.138-0.229,0.206-0.344
                c1.681-2.823,3.506-5.668,4.747-8.827c0.32-0.816,0.613-1.646,0.841-2.51c0.759-2.876,0.163-5.365-0.841-7.343
                c-1.577-3.105-4.169-4.937-4.169-4.937l4.169-5.547l0.101-0.134c-0.02-0.163-0.059-0.322-0.101-0.481
                c-0.168-0.64-0.511-1.239-1.079-1.719c-0.757-0.646-1.668-0.973-2.607-1.044c-1.592-0.12-3.264,0.504-4.402,1.604
                c-0.872,0.836-1.463,1.928-1.818,3.099c-0.032,0.104-0.074,0.206-0.102,0.311c-1.9-3-2.13-7.23-0.74-11.551
                c0.16-0.07,0.003-0.102-0.364-0.107c-1.782-0.027-8.618,0.584-9.266,0.658l-0.114,0.019l-0.006,0.001
                c-4.375,0.472-8.406-2.026-10.114-5.918c-0.393-0.894-0.663-1.86-0.786-2.882c-0.046-0.376-0.066-0.748-0.07-1.118
                c-0.061-5.043,3.631-9.417,8.681-10.032c4.01-0.489,7.49,1.8,12.25,1.25c1.09-0.13,1.92-0.25,2.57-0.35
                c3.31-0.55,1.92-0.86,5.71-1.32c0.189-0.021,0.38-0.05,0.56-0.06l0.061-0.01c0.567-0.02,1.106-0.017,1.639-0.008
                c7.18,0.119,11.144,2.777,13.31,6.159c0.751,1.172,1.29,2.43,1.671,3.698c0,0,0,0.01,0,0.02c0.24,0.811,0.421,1.631,0.551,2.43
                c1.08,3.861,5.866,6.205,10.979,10.94C511.772,260.785,513.106,290.129,490.014,298.152z M457.396,277.912l-0.057,0.01l0.008,0.042
                l0.017-0.003C457.374,277.945,457.386,277.928,457.396,277.912z M154.457,474.646l-11.09-29.793l-8.695,12.74L154.457,474.646z
                 M143.731,348.464c0.394-1.622,0.809-4.502,1.216-8.231c-4.229-0.282-7.937-0.804-10.568-1.559
                c-0.904-0.259-1.694-0.543-2.324-0.856c-0.145-0.071-0.285-0.167-0.423-0.273c-0.036-0.028-0.071-0.057-0.107-0.087
                c-0.124-0.104-0.246-0.219-0.364-0.348c-0.012-0.014-0.024-0.023-0.036-0.037c-0.128-0.145-0.251-0.307-0.37-0.478
                c-0.03-0.043-0.059-0.087-0.088-0.132c-0.104-0.158-0.204-0.325-0.3-0.502c-0.013-0.025-0.027-0.048-0.041-0.073
                c-0.108-0.206-0.21-0.425-0.306-0.651c-0.018-0.043-0.035-0.086-0.053-0.13c-0.087-0.213-0.168-0.434-0.244-0.662
                c-0.008-0.023-0.016-0.046-0.024-0.069c-0.084-0.26-0.159-0.529-0.227-0.805c-0.006-0.025-0.012-0.051-0.018-0.076
                c-0.065-0.27-0.122-0.546-0.169-0.828c-0.002-0.011-0.004-0.021-0.006-0.031c-0.407-2.443-0.163-5.253,1.153-7.376
                c0.002-0.003,0.003-0.006,0.005-0.009c0.002-0.004,0.005-0.008,0.007-0.011c0.113-0.181,0.233-0.355,0.362-0.525
                c0.01-0.014,0.02-0.027,0.03-0.04c0.124-0.161,0.255-0.316,0.394-0.467c0.018-0.02,0.036-0.04,0.055-0.06
                c0.132-0.14,0.271-0.272,0.417-0.401c0.029-0.025,0.058-0.053,0.088-0.078c0.139-0.118,0.285-0.229,0.436-0.338
                c0.042-0.029,0.082-0.062,0.125-0.091c0.145-0.099,0.298-0.188,0.454-0.277c0.054-0.031,0.106-0.064,0.162-0.095
                c0.153-0.08,0.315-0.153,0.479-0.225c0.065-0.028,0.127-0.061,0.195-0.088c0.169-0.067,0.348-0.125,0.529-0.183
                c0.068-0.021,0.131-0.048,0.202-0.067c0.252-0.072,0.515-0.135,0.789-0.185c0.085-0.015,0.187-0.025,0.28-0.037
                c2.027-0.253,6.355,0.305,10.93,1.089c0.125-1.925,0.241-3.895,0.351-5.874c0.023-0.427,0.049-0.849,0.072-1.276
                c0.147-2.743,0.275-5.504,0.383-8.225c0.392-9.867,0.502-19.185,0.113-24.99c-0.327-4.93-1.255-9.461-2.6-13.419
                c-2.311-6.802-5.857-11.9-9.745-14.339l-1.565,8.624l-1.052,5.799l-19.892-12.012c-7.661,3.403-11.985,16.15-11.095,29.88
                c0.395,5.882,0.585,17.23,0.886,28.683c0.081,3.105,0.171,6.215,0.275,9.229c0.343,9.924,0.843,18.772,1.724,22.722
                c-1.298,1.882-2,4.548-2,8.336c0,1.194,0.089,2.368,0.25,3.518c0.004,0.025,0.006,0.051,0.01,0.076
                c1.744,12.136,12.179,21.464,24.797,21.464c2.385,0,5.693,0.371,9.524,0.912c5.137,0.725,11.219,1.754,17.328,2.617
                c1.858,0.262,3.718,0.511,5.553,0.729c-0.555,0.985-1.064,2.019-1.523,3.098c-4.803,11.291-14.799,56.132-14.799,56.132
                s32.541-37.087,37.344-48.376c3.332-7.835,6.201-13.765,4.973-17.799C183.803,368.928,161.512,355.575,143.731,348.464z
                 M369.88,408.953c-1.631-12.822-4.998-41.813-4.712-60.285h-59.795c-0.164,2.37-0.299,4.696-0.394,6.932
                c-0.956,22.713,4.112,42.5,4.112,42.5l0.569,0.619l12.878,69.095l-17.642,16.108h20.779l-2.666-14.886
                c1.111-2.849,7.58-20.022,8.55-36.116c0.626-10.4-1.138-17.789-3.9-23.058c0.95-10.939,2.933-31.364,5.7-47.573
                c4.467,20.99,13.188,37.389,13.188,37.389l1.608,1.047l21.302,68.602l-15.985,14.596h20.779l-2.921-16.307l-1.735,1.584
                c0.832-2.201,6.844-18.686,7.104-35.884C376.876,421.624,373.936,413.975,369.88,408.953z M392.995,254.7
                c-0.799-2.199-1.899-5.012-3.275-8.028c-0.596-1.306-1.242-2.65-1.94-4c-2.371-4.589-5.32-9.236-8.769-12.65
                c-1.128-1.117-2.309-2.101-3.541-2.907c-0.235-0.38-0.485-0.745-0.749-1.093c-2.092-2.761-5.018-4.483-8.263-4.483h-14.92
                l-1.436,4.483l-1.28,4l-4.051,12.65l-1.246,3.893l-6.258,19.544l-7.93,24.779l-3.73-24.359l-2.031-13.249l-2.49-16.236
                l-1.551-10.108l-0.229-1.495l-0.599-3.902h-11.23c-3.301,0-6.269,1.785-8.366,4.629c-0.23,0.212-0.458,0.43-0.68,0.663
                c-4.644,4.902-15.28,27.104-15.28,27.104s-1.606,5.123-2.874,11.219c-7.062-1.949-21.532-3.171-21.532-3.171
                s-4.496-0.846-8.944-1.114c-0.194,3.345-2.271,6.183-5.195,7.458c7.709,7.312,25.583,14.368,36.228,16.083
                c0.458,0.388,0.994,0.658,1.64,0.755c6.111,0.916,13.38-4.364,19.986-12.146l6.141,34.779l0.74,4.19
                c-0.22,1.604-0.459,3.384-0.709,5.311c-0.831,6.392-1.778,14.331-2.521,22.334h59.632c0.114-0.849,0.241-1.653,0.393-2.375
                c0.761-3.624,0.776-7.634,0.319-11.738c-3.198-1.282-5.46-4.405-5.46-8.063c0-0.054,0.007-0.104,0.008-0.158
                c0.011-0.604,0.084-1.192,0.212-1.76c0.351-1.555,1.117-2.949,2.179-4.064c0.456-0.479,0.963-0.909,1.518-1.274l0.425-2.402
                l6.21-35.174c1.234,1.958,3.563,5.466,6.321,8.691c-2.543,3.643-3.945,20.854-3.945,20.854s-0.53,2.585-0.831,5.628
                c-0.053,0.528-0.098,1.068-0.133,1.613c2.868,1.168,4.967,3.82,5.348,7.006c2.815-1.621,5.643-4.773,8.206-8.619
                c6.472-9.707,11.256-23.813,9.853-28.79c-0.007-0.024-0.021-0.046-0.029-0.069C397.671,272.055,396.065,262.748,392.995,254.7z"></path>
            </svg>
