<?xml version="1.0" encoding="UTF-8"?>
<!DOCTYPE svg PUBLIC "-//W3C//DTD SVG 1.1//EN" "http://www.w3.org/Graphics/SVG/1.1/DTD/svg11.dtd">
    <svg version="1.1" id="Layer_1" xmlns="http://www.w3.org/2000/svg" xmlns:xlink="http://www.w3.org/1999/xlink" x="0px" y="0px" width="595.279px" height="595.281px" viewBox="0 0 595.279 595.281" enable-background="new 0 0 595.279 595.281" xml:space="preserve">
        <path id="color_x5F_6" fill="#1ACEBC" d="M124.5,281.6c-0.8,9.3-0.5,18.7,0.7,28c0,0.2,0,0.5-0.2,0.7c0,0,0,0,0,0.1
            c-0.1,0.2-0.4,0.3-0.6,0.4l0,0l1.5,7.8c0.2,0,0.5,0,0.7,0.1c0,0,0,0,0.1,0.1c0.2,0.1,0.3,0.3,0.4,0.5c1.8,7.3,4.6,14.2,8.3,20.7
            c9.1,15.4,23.1,26.6,41.6,33.4c0.5,0.2,0.7,0.7,0.6,1.2l-0.7,3.1l4.6,14.5c4.6-6.9,9.5-13.8,13-18.3c3-4.3,5.5-8.9,7.5-13.8
            c2.5-3.8,6.6-15.3,8.1-19.8H210c-12.9-1-20.7-5.6-23.3-7.5c-0.1-0.1-0.2-0.1-0.2-0.2c-0.1-0.1-0.2-0.1-0.3-0.2
            c-0.3-0.2-0.5-0.4-0.5-0.4c-5.5-4.6-10-11-13.4-19.2c-3.4-8.4-5-17.5-4.7-26.5L124.5,281.6z M202.6,358.6L202.6,358.6L202.6,358.6
            c-0.1,0.3-0.2,0.6-0.4,0.8C202.4,359.2,202.5,358.9,202.6,358.6z M173.9,404.9c0.8,0,1.5,0,2.3,0.1l-3.2-10l-2.5,11.2l0.4,0.1
            C171.8,405.6,172.8,405.1,173.9,404.9L173.9,404.9z M158.3,161.9c-4.3,19.1-2.9,36.7,4.3,52.3s21,29.4,41.2,40.9l22.7,13.2
            c9.5,5.5,16,11.8,19.2,18.7c0.2,0.4,0.4,0.9,0.6,1.4c1.4-1,2.7-1.9,4.1-2.8c2.6-3.6,4.4-7.8,5.1-12.2c0.3-2.3,0.8-6.7,0.2-9.2
            c-5.7-2.3-10.4-6.4-13.7-11.6c-4-6.5-5.2-14.3-5.2-21.4c-1.8-3.6-3.1-9.1-4-13.8l-18.6-11.7c-6.7-5.1-11.4-11-13.8-17.4
            c-2.4-6.2-2.9-13-1.5-19.5c1.5-7,5.2-13.4,10.5-18.2c5.3-4.9,12-8.1,19.1-8.9c0.5-0.1,1,0.3,1.1,0.9l0,0v0.1
            c9.1,0.1,19.4,4.3,22.4,5.6c0.3-0.5,0.9-0.7,1.4-0.4c0,0,0.1,0,0.1,0.1c2.7,1.9,8.4,9.2,8.7,9.7c9-5.4,17.9-7.6,26.7-6.5
            c6.8,0.9,13.3,3.6,18.7,7.9c-1.7-7.2-4.5-14.1-8.4-20.4c-8-12.8-20.7-22.5-37.8-28.6c-0.5-0.2-0.7-0.7-0.6-1.2l3.8-16.8l-22.5-5
            l-3.8,16.8c-0.1,0.5-0.6,0.8-1.1,0.8c-10.4-1.4-21.1-0.5-31.2,2.5c-0.5,0.2-1.1-0.1-1.2-0.7l0,0c-2.9,0.9-11.7,3.9-18.3,9.2l0,0
            c0.3,0.4,0.2,1.1-0.2,1.4l0,0C172.1,127.5,162.6,142.6,158.3,161.9L158.3,161.9z M347.5,351c3.4,12,13,47,11.1,55.8
            c-1.9,8.9-4.6,11.3-10.1,15.1C342.8,415.4,340.9,388.4,347.5,351z M387.1,454.8c-0.1,0-0.2,0-0.2,0c-0.3,0-0.6-0.2-0.8-0.4
            c-2.4,0.9-7.6,1.8-13.8,2.6l-0.4,2.2l26.8,3l2.7-17.3C397.8,449.6,392.8,453.1,387.1,454.8z M461.2,413.7
            c15-14.8,23.9-34.3,26.5-58.1c2.3-21.2-1.2-39.5-10.2-54.2s-28-28.1-56.4-39.9c-2-0.8-48.3-19.7-46.5-50.5
            c1.4-24.3,20.2-32.2,28.2-34.5c13-3.7,21.6,0.8,27.7,5.2c12.9,9.2,19.2,25.2,18.8,47.7l45.5-1.4c0.4-20.2-4.6-42.3-12.7-56.5
            c-0.2-0.4-0.1-1,0.3-1.3l-9.7-12c-0.4,0.3-0.9,0.3-1.3,0c-9.5-8.8-21.9-15.2-36.9-18.8c-0.5-0.1-0.8-0.6-0.8-1.1l2.6-24.1l-24.8-2.7
            l-2.6,24.1c-0.1,0.5-0.5,0.9-1,0.9c-0.1,0-0.2,0-0.3,0c-20.9,0-38.7,6.7-52.7,19.8c-11.5,10.7-19.1,24.4-22.8,40.6
            c2.2,3,4.8,5.7,7.8,8c0.4,0.3,0.5,0.8,0.3,1.2l10.1,5.2c0.2-0.5,0.8-0.7,1.3-0.4c20.7,9.8,24,23.1,24.1,23.6
            c4.1,17.1,9.3,21.7,15.3,26.9c5.4,4.4,9.9,9.8,13.3,15.8c4.8,8.4,2.6,19-6.6,31.4l17.9,8c8.8,3.9,15.5,8.5,19.8,14l0.1,0.1
            c0.4,0.5,0.7,1,1.1,1.4c0.1,0.1,0.2,0.2,0.3,0.4c0.4,0.5,0.7,1.1,1.1,1.6c4.2,7,5.8,15,4.8,23.9c-0.8,9.4-4.9,18.3-11.5,25.1
            c-6.6,6.8-14.6,11-24,11.4c-0.2,0-0.5,0-0.7,0c0.8,12.2,0.7,24.5-0.3,36.6c-0.1,1.3-0.3,2.5-0.4,3.5c-0.1,0.6-0.2,1.1-0.3,1.6
            c-0.1,0.3-0.1,0.6-0.2,0.8c0,0.1,0,0.2-0.1,0.3l0,0c13.1-0.9,24.9-3.8,35.2-8.9c0.4-0.2,1-0.1,1.2,0.3l19.6-13.9
            C460.8,414.6,460.9,414,461.2,413.7z M495.9,255.4c-0.2,0.4-0.8,0.6-1.2,0.4c-1.4-0.6-2.9-0.9-4.5-0.9l0,0
            c-5.5-0.1-10.1,4.3-10.2,9.9c-0.1,5.5,4.3,10.1,9.9,10.2c0.1,0,0.2,0,0.3,0c5.6,0,10.2-4.6,10.2-10.3c0-2-0.6-4-1.8-5.7
            c-0.3-0.4-0.2-0.9,0.1-1.2L495.9,255.4z M125.1,260.5c0.4,0.1,0.7,0.6,0.7,1l3.7,0.2c0-0.5,0.3-0.8,0.8-0.9c5.5-1.1,9-6.5,7.9-12
            s-6.5-9-12-7.9s-9,6.5-7.9,12C119,256.4,121.6,259.4,125.1,260.5L125.1,260.5z"></path>
        <path id="color_x5F_5" fill="#82521f" d="M266.7,265.1c-10.7-1.6-18.5-6.2-23-13.6c-9.3-15.3-2.5-38.2-1.3-41.9
            c27.1-6.4,40.7-16.6,45.7-21.2c-1,7.6-0.6,15.4,1.1,22.9c3.3,14.5,9.6,19.2,13.1,21.7c0.7,0.5,1.8,1.3,1.8,1.6
            c0,2.6,3.5,27.3,4,30.5c-13.7,27.2-30.1,36-32.9,37.4c-10.4-6.1-5.1-24.7-5.1-24.9l0,0l0,0c0.1-0.5,0.1-1,0.1-1.5V276
            c-0.3-3-0.9-5.9-1.6-8.8c5.6-0.4,21.9-3.4,31.5-25.5c0.2-0.5,0-1.1-0.5-1.3s-1.1,0-1.3,0.5l0,0C287.2,265.7,268.2,265.2,266.7,265.1
            z M361,419c-2.9,0-5.8,0.6-8.4,1.8c0,0-1.3,0.8-2,1.2c-6.3,3.6-23.1,13.1-39.9,15.1c-1.3,0.1-2.4,0.3-3.6,0.4
            c-15.8,1.8-21.1,2.4-31.7,13.2c-0.1,0.1-5.1,2.4-7.4,3.1c-0.5,0.9-0.5,1.9-0.1,2.8c0.5,1.3,2.2,4.1,8.1,3.5c-0.9-1.5-1-3.3-0.5-4.9
            c1.1-3,6.4-11.6,18-15.1c0.5-0.2,1.1,0.1,1.2,0.7c0.2,0.5-0.1,1.1-0.7,1.2c-10.8,3.3-15.7,11.2-16.7,13.9c-0.8,2.3,2.9,7.9,6.5,10.3
            c1,0.7,1.6,2.2,2.3,4.5c1.1,3.7,2.7,8.9,7.2,10.7c5.5,2.2,18,1.4,30.2-15.7c2.4-3.4,3.7-4.6,15.3-5.8c0.5-0.1,0.9,0.3,1,0.8v0.1l0,0
            l10-0.9v-0.1c0-0.6,0.4-1,0.9-1.1c20.2-2.1,32-3.9,35-5.2C386,453.3,384.1,421,361,419z M166.9,413.9L166.9,413.9
            c-0.5-0.6-2.6-1.5-4.8-1.5c-1.3-0.1-2.6,0.4-3.5,1.4c-1.4,2.1-0.1,6.6,0.8,8.6c6.1,2.5,11.2,6.9,14.6,12.5c0.7,0.8,1.6,1.3,2.6,1.5
            c0.4,0,0.8-0.1,1.1-0.4c1-0.7,1.3-2.7,1.3-3.5C178.7,431.3,175.4,423,166.9,413.9L166.9,413.9L166.9,413.9z M158.4,424.2
            c-0.8-0.1-1.6-0.2-2.4-0.2c-1.5,0-3.5,0.2-4.6,1.3c-1.6,1.5,0.8,4.6,1.1,5c0.4,0.3,5.4,4.6,17.3,7.4c0.8,0,1.6-0.3,2.1-0.8
            c0.2-0.3,0.3-0.6,0.3-0.9C169,430.7,164.1,426.6,158.4,424.2z M188.1,412.5l3.1,9.9c0.1-0.1,0.2-0.3,0.2-0.5c0-0.6,0.4-1,0.9-1
            c0.6,0,1,0.4,1.1,0.9c0,0.7-0.3,1.4-0.8,2c-0.8,0.7-1.8,1.1-2.9,1.1c-1.4,0-5,1.8-6.8,4.5c-1,1.3-1.2,2.9-0.7,4.5
            c0.2,0.3,0.5,0.5,0.7,0.7c0.9,0.8,2.4,1.1,4.5,1.1c1.6,0,3.2-0.2,4.8-0.4c0.6-0.1,1.2-0.2,1.6-0.2c0.1,0,13.1-1.3,13.2-9.5
            C207.1,420.8,195.1,415.2,188.1,412.5L188.1,412.5z M183.3,426l1.1-0.8c0,0,0-0.7-1.3-4.6s-5.6-9.7-5.6-9.7l-0.5,0.8
            c-0.1-0.2-0.2-0.3-0.2-0.3c-0.3-0.5-0.2-1.1,0.2-1.4c0.2-0.1,0.4-0.2,0.7-0.2l0,0l-0.8-2.6c-0.9-0.4-1.8-0.5-2.8-0.4
            c-2.7,0.4-4.7,4.1-5.4,6.1c4.8,5.1,8.7,10.9,11.5,17.2c0.2-0.7,0.6-1.4,1-2C181.9,427.4,182.6,426.6,183.3,426z M149.8,436.3
            c0.3,2.8,6.7,4.5,12.4,4.5c1.1,0,2.2-0.1,3.3-0.3c0.9-0.2,1.8-0.7,2.5-1.3c-10.2-2.5-15.2-6.1-16.6-7.2
            C150.8,432.3,149.5,433.2,149.8,436.3z"></path>
        <path id="color_x5F_4" fill="#db6832" d="M254.3,283c2.6-5.4,4.1-12.6,3.5-18.1c2.8,1,5.7,1.7,8.6,2.1c0.7,2.7,1.2,5.5,1.6,8.3
            C263.3,277.7,254.3,283,254.3,283z M237.1,225.9c0.5-6,1.8-11.9,3.6-17.6c0.1-0.3,0.4-0.6,0.7-0.6c34.9-8.2,47.3-22.8,47.5-23
            c0.3-0.4,1-0.5,1.4-0.1c0.3,0.2,0.4,0.6,0.3,1c-1.6,8.3-1.5,16.9,0.5,25.2c3.1,13.8,9.1,18.2,12.3,20.5c1.5,1.1,2.6,1.9,2.6,3.2
            c0,1.8,2.1,17.1,3.5,27.2l-0.1,0.1c5.2-0.5,10.3-0.8,15.5-0.8c6.9-0.1,13.8,0.6,20.6,2c18.9,4.4,29.5,22.7,30,23.5
            c5.4,8.9,10.1,18.2,13.9,27.9v-0.1c0.1,0.2,0.2,0.4,0.3,0.6c9.7-10.7,19.3-25.3,12.8-36.8c-3.3-5.9-7.7-11-12.9-15.3
            c-6.2-5.5-11.6-10.2-15.9-28c0-0.1-3.3-12.9-23.1-22.3c-0.5-0.2-0.7-0.8-0.5-1.3l0,0l0,0L340,206c0,0.1,0,0.1-0.1,0.2
            c-0.3,0.4-1,0.5-1.4,0.2c-10.1-7.7-15.9-20.7-19.4-28.5c-0.9-1.9-1.6-3.6-2.2-4.6c-3.6-6.6-13.6-18.3-28.3-20.1
            c-14-1.8-28.6,5.4-43.5,21.4C230.1,190.7,232.1,210.7,237.1,225.9L237.1,225.9z"></path>
        <path id="color_x5F_3" fill="#E84393" d="M275.5,520.6c0.1,0.3,0.1,0.6,0,0.9c-0.2,0.7-0.5,1.5-0.8,2.1c-0.3,0.7-0.7,1.4-1.2,2.1
            c-0.2,0.2-0.4,0.4-0.7,0.5c-0.4,0.1-0.9-0.1-1.1-0.5c-0.1-0.3-0.1-0.6,0-0.9c0.4-1.5,1.1-2.9,2-4.2c0.2-0.2,0.4-0.4,0.7-0.5
            c0.2-0.1,0.4,0,0.6,0.1C275.3,520.2,275.4,520.4,275.5,520.6z M238.9,503.4c-0.2-0.1-0.4-0.1-0.6-0.1c-0.3,0.1-0.5,0.3-0.7,0.5
            c-0.9,1.3-1.5,2.7-2,4.2c-0.1,0.3-0.1,0.6,0,0.9c0.2,0.4,0.6,0.6,1.1,0.5c0.3-0.1,0.5-0.3,0.7-0.5c0.9-1.3,1.5-2.7,2-4.2
            c0.1-0.3,0.1-0.6,0-0.9C239.2,503.6,239,503.5,238.9,503.4z M254.4,491.6l-7.2-3.6l-2,3.3l7.5,3.9L254.4,491.6z M266,516
            c-0.2-0.1-0.4-0.1-0.6-0.1c-0.3,0.1-0.5,0.3-0.7,0.5c-0.9,1.3-1.5,2.7-2,4.2c-0.1,0.3-0.1,0.6,0,0.9c0.2,0.4,0.6,0.6,1.1,0.5
            c0.3-0.1,0.5-0.3,0.7-0.5c0.5-0.6,0.9-1.3,1.2-2.1c0.3-0.7,0.6-1.4,0.8-2.1c0.1-0.3,0.1-0.6,0-0.9C266.4,516.2,266.2,516,266,516
            L266,516z M247.9,507.6c-0.2-0.1-0.4-0.1-0.6-0.1c-0.3,0.1-0.5,0.3-0.7,0.5c-0.9,1.3-1.5,2.7-2,4.2c-0.1,0.3-0.1,0.6,0,0.9
            c0.1,0.2,0.2,0.3,0.4,0.4c0.2,0.1,0.4,0.1,0.6,0.1c0.3-0.1,0.5-0.3,0.7-0.5c0.9-1.3,1.5-2.7,2-4.2c0.1-0.3,0.1-0.6,0-0.9
            C248.3,507.8,248.1,507.7,247.9,507.6L247.9,507.6z M257,511.8c-0.2-0.1-0.4-0.1-0.6-0.1c-0.3,0.1-0.5,0.3-0.7,0.5
            c-0.9,1.3-1.5,2.7-2,4.2c-0.1,0.3-0.1,0.6,0,0.9c0.2,0.4,0.6,0.6,1.1,0.5c0.3-0.1,0.5-0.3,0.7-0.5c0.9-1.3,1.5-2.7,2-4.2
            c0.1-0.3,0.1-0.6,0-0.9C257.3,512,257.2,511.8,257,511.8z M261.2,497.7l21.2,9.9l3.8-21.8l-16.5-8L261.2,497.7z M289.9,510.1l-1,5.7
            c-0.5-0.1-1.1,0.3-1.2,0.8c-0.9,5-2.1,9.9-3.6,14.7c-0.7,1.9-2.3,4.9-5.6,4c-9.2-2.3-51.8-21.9-55.5-24.2c-1.5-0.6-2.1-2.3-1.5-3.8
            c0.1-0.2,0.2-0.3,0.3-0.5l0,0c1.4-1.7,33.2-40.5,34.8-42.8c0.3-0.5,0.7-0.9,1.3-1c0.5-0.1,1.1,0.1,1.6,0.4l0.1,0.1l27.8,14.8
            c1.2,2.1,3,3.7,5.2,4.7c-0.6,5.1-1.8,16.1-3.4,26C289,509.5,289.3,510,289.9,510.1L289.9,510.1z M249.7,482.6
            c0.1,0.3,0.2,0.5,0.5,0.6l7.8,4.3c0.1,0.1,0.3,0.1,0.5,0.1c0.1,0,0.2,0,0.3,0c0.3-0.1,0.5-0.2,0.6-0.5l6.4-11.7
            c0.3-0.5,0.1-1-0.3-1.3l-7.1-4.5c-0.5-0.3-1.1-0.2-1.4,0.3l0,0l-7.1,11.8C249.7,482.1,249.6,482.3,249.7,482.6z M242.9,491.9
            c0.1,0.3,0.3,0.5,0.5,0.6l9.4,4.9c0.2,0.1,0.5,0.1,0.8,0.1c0.3-0.1,0.5-0.3,0.6-0.5l2.5-5.4c0.2-0.5,0-1.1-0.5-1.3l-8.8-4.5
            c-0.5-0.2-1-0.1-1.3,0.4l-3.1,5C242.8,491.4,242.8,491.7,242.9,491.9L242.9,491.9z M241,503.8c-0.4-1.5-2-2.4-3.5-1.9
            c-0.1,0-0.2,0.1-0.4,0.1c-2.1,1.7-3.3,4.2-3.3,6.9c0.2,0.8,0.8,1.6,1.6,1.9c0.7,0.4,1.6,0.4,2.3,0
            C239.9,509.1,241.1,506.5,241,503.8L241,503.8z M250.1,508c-0.4-1.5-2-2.4-3.5-1.9c-0.1,0-0.2,0.1-0.4,0.1c-2.1,1.7-3.3,4.2-3.3,6.9
            c0.2,0.8,0.8,1.6,1.6,1.9c0.7,0.4,1.6,0.4,2.3,0C249,513.3,250.2,510.7,250.1,508z M259.1,512.2c-0.4-1.5-2-2.4-3.5-1.9
            c-0.1,0-0.2,0.1-0.4,0.1c-2.1,1.7-3.3,4.2-3.3,6.9c0.2,0.8,0.8,1.6,1.6,1.9c0.7,0.4,1.6,0.4,2.3,0
            C258,517.5,259.2,514.9,259.1,512.2L259.1,512.2z M268.2,516.4c-0.4-1.5-2-2.4-3.5-1.9c-0.1,0-0.2,0.1-0.4,0.1
            c-2.1,1.7-3.3,4.2-3.3,6.9c0.2,0.8,0.8,1.6,1.6,1.9c0.7,0.4,1.6,0.4,2.3,0C267.1,521.7,268.3,519.1,268.2,516.4L268.2,516.4z
             M277.2,520.6c-0.4-1.5-2-2.4-3.5-1.9c-0.1,0-0.2,0.1-0.4,0.1c-2.1,1.7-3.3,4.2-3.3,6.9c0.2,0.8,0.8,1.6,1.6,1.9
            c0.7,0.4,1.6,0.4,2.3,0C276.1,525.9,277.3,523.3,277.2,520.6L277.2,520.6z M285.5,515.9l-48.3-23c-0.5-0.2-1.1,0-1.3,0.5
            s0,1.1,0.5,1.3l0,0l48.3,23c0.1,0.1,0.3,0.1,0.4,0.1c0.6,0,1-0.5,1-1C286,516.4,285.8,516,285.5,515.9L285.5,515.9z M287.8,484.4
            l-18.2-8.8c-0.5-0.2-1.1,0-1.3,0.5l0,0l-9.3,21.7c-0.2,0.5,0,1.1,0.5,1.3l23.3,10.9c0.5,0.2,1.1,0,1.3-0.5c0-0.1,0.1-0.2,0.1-0.2
            l4.2-23.8C288.4,485,288.2,484.5,287.8,484.4L287.8,484.4z M263.6,475.3l-5.5-3.5l-6.1,10.1l6,3.3L263.6,475.3z M275.3,447.9
            c10.3-10.1,16.6-10.8,31.6-12.5c1.1-0.1,2.3-0.3,3.6-0.4c10.4-1.2,22.5-5.6,36.1-13.1c-0.2-0.8-0.5-1.6-1-2.2
            c-0.1-0.1-0.2-0.3-0.2-0.4c-0.1-0.3-7.3-31,1-72.7c0.3-2.2,7.8-53.6,16.9-71.6c-3.1-2.8-6.6-5.2-10.4-7.1
            c-6,9.1-65.7,101-71.2,140.4c-0.2,1.1-1,2-2,2.3c-0.3,0.1-0.6,0.1-1,0.1c-2.3,0-5.3-2.1-9.4-6.2c-9.7-10-27-68.9-29.9-108.1
            c-1.9,1.7-3.7,3.5-5.5,5.3c-0.1,3.6-0.5,31.2,0.3,54.3c1,30,5.9,40.2,6,40.3l0,0c0,0.1,0.1,0.2,0.1,0.3c0.2,1.1,4.7,27.8-1.6,36.8
            c-0.3,0.4-0.3,0.9-0.1,1.3C240.4,438.8,255.9,445.3,275.3,447.9L275.3,447.9z"></path>
        <path id="color_x5F_2" fill="#e3b05d" d="M231.9,304c-0.1,8-0.4,31.7,0.3,52.1c0.9,26.6,4.7,37.7,5.9,40.4l-29.3,27.8
            c-1.6-6.1-15.6-12.1-21.8-14.4l-5-14.9c4.9-7.5,10.4-15.1,14.1-20.1c4.9-6.5,8.7-16.1,13-27.2c5.6-14.4,12-30.7,22.6-43.6
            C231.8,304.1,231.9,304,231.9,304z M361.1,417c23.8,2,26.6,29,26.9,35.4c5.3-2,14.2-8,15.6-18c2.9-20.8,3.6-92.5-29.9-146.8
            c-2.5-4.1-5.6-7.8-9-11.2c-8.6,17.6-15.9,66.6-16.4,70.2c1.2,3.9,14.6,49.7,12.3,60.6c-0.7,3.7-2.2,7.3-4.4,10.3
            c1.6-0.3,3.1-0.5,4.7-0.5L361.1,417L361.1,417z M270.7,403c5.6,5.8,7.8,5.7,8.3,5.6c0.3-0.1,0.6-0.4,0.6-0.7
            C285.2,368,343.8,278,351,267c-1.9-0.8-3.9-1.5-6-2c-6.6-1.4-13.4-2.1-20.1-2c-4.9,0-10.1,0.3-15.1,0.8l0.2,1.2c0,0.2,0,0.4-0.1,0.6
            c-15.3,30.6-33.7,38.5-34.5,38.8c-0.3,0.1-0.6,0.1-0.9,0c-10.9-5.9-7.6-22.8-6.7-26.7c-9.4,4.7-18.3,10.4-26.5,17
            C243.7,332.6,261.3,393.3,270.7,403z"></path>
        <path id="color_x5F_1_5_" fill="#1639A0" d="M148.8,457.2c0.6,0,1-0.4,1-1c0-0.3-0.2-0.7-0.5-0.8L138,448c-0.5-0.3-1.1-0.2-1.4,0.3
            c-0.3,0.5-0.2,1.1,0.3,1.4l0,0l11.3,7.4C148.4,457.2,148.6,457.2,148.8,457.2z M173.3,487.5l-18-11.3c-0.5-0.3-1.1-0.2-1.4,0.3
            c-0.3,0.5-0.2,1.1,0.3,1.4l18,11.3c0.5,0.3,1.1,0.2,1.4-0.3S173.7,487.8,173.3,487.5z M157.8,470.7c0.6,0,1-0.4,1-1
            c0-0.3-0.2-0.7-0.5-0.8l-19.2-12.6c-0.5-0.3-1.1-0.2-1.4,0.3c-0.3,0.5-0.2,1.1,0.3,1.4l0,0l19.2,12.6
            C157.4,470.7,157.6,470.7,157.8,470.7L157.8,470.7z M152.3,458.5c-0.3,0.5-0.2,1.1,0.3,1.4l0,0l20.1,13.1c0.5,0.3,1.1,0.2,1.4-0.3
            c0.3-0.5,0.2-1.1-0.3-1.4l0,0l-20.1-13.1C153.2,457.9,152.6,458,152.3,458.5L152.3,458.5L152.3,458.5z M179.9,483L163,471.9
            c-0.5-0.3-1.1-0.2-1.4,0.3c-0.3,0.5-0.2,1.1,0.3,1.4l0,0l16.9,11.1c0.5,0.3,1.1,0.2,1.4-0.3C180.6,484,180.4,483.3,179.9,483
            C180,483,180,483,179.9,483z M124.5,262.4c0.5,0.1,1.1-0.2,1.2-0.7s-0.1-1-0.6-1.2c-5.3-1.7-8.3-7.4-6.6-12.8
            c1.7-5.3,7.4-8.3,12.8-6.6c5.4,1.7,8.3,7.4,6.6,12.8c-1.1,3.5-4,6.1-7.6,6.9c-0.5,0.1-0.9,0.6-0.8,1.2s0.6,0.9,1.2,0.8l0,0
            c6.6-1.4,10.8-7.8,9.5-14.4c-1.4-6.6-7.8-10.8-14.4-9.5c-6.6,1.4-10.8,7.8-9.5,14.4C117.1,257.6,120.3,261.1,124.5,262.4
            L124.5,262.4z M145.6,441.7l7.2,4.5c0.5,0.3,1.1,0.1,1.4-0.3c0.3-0.5,0.1-1.1-0.3-1.4l0,0l-7.2-4.5c-0.5-0.3-1.1-0.1-1.4,0.3
            C145,440.8,145.2,441.4,145.6,441.7z M141.1,445.7l24.1,15.4c0.5,0.3,1.1,0.2,1.4-0.3c0.3-0.5,0.2-1.1-0.3-1.4L142.2,444
            c-0.5-0.3-1.1-0.2-1.4,0.3C140.5,444.8,140.7,445.4,141.1,445.7z M415.9,315.6l-17.7-7.9c8.7-12.1,10.8-22.3,6-30.6
            c-3.4-6-7.9-11.4-13.3-15.8c-6-5.3-11.1-9.8-15.3-26.9c-0.1-0.6-3.5-13.8-24.1-23.6c-0.5-0.2-1.1,0-1.3,0.5c-0.2,0.5,0,1.1,0.5,1.3
            c19.7,9.3,23,22.2,23.1,22.3c4.3,17.7,9.7,22.5,15.9,28c5.2,4.2,9.6,9.4,12.9,15.3c6.6,11.4-3,26.1-12.8,36.8
            c-0.1-0.2-0.2-0.4-0.3-0.6v0.1c-3.8-9.7-8.5-19-13.9-27.9c-0.4-0.8-11.1-19.1-30-23.5c-6.8-1.4-13.7-2.1-20.6-2
            c-5.2,0-10.4,0.3-15.5,0.8l0.1-0.1c-1.4-10.1-3.5-25.4-3.5-27.2c0-1.3-1.1-2.1-2.6-3.2c-3.2-2.4-9.2-6.8-12.3-20.5
            c-1.9-8.3-2.1-16.9-0.5-25.2c0.1-0.2,0-0.4-0.1-0.6l0,0c0-0.1-0.1-0.2-0.2-0.3l0,0c-0.4-0.4-1-0.4-1.4,0l-0.1,0.1c0,0,0,0-0.1,0.1
            c-1,1.1-13.7,15-47.4,22.9c-0.3,0.1-0.6,0.3-0.7,0.6c-1.9,5.7-3.1,11.6-3.6,17.6c-0.8-2.3-1.4-4.7-2-7.2c-0.2-0.9-0.4-1.8-0.6-2.7
            l0,0c-2.5-13.4-1.3-28.7,10.7-41.6c4.9-5.3,10.3-10.1,16.4-14.1l0,0c0.6-0.4,1.1-0.7,1.7-1c8.7-5.2,17.2-7.3,25.5-6.3
            c7.4,1.1,14.3,4.4,19.7,9.5c0.9,0.8,1.7,1.6,2.4,2.4c2.4,2.5,4.5,5.3,6.2,8.3c0.6,1.1,1.3,2.7,2.2,4.6c3.5,7.8,9.3,20.9,19.4,28.5
            c0.4,0.3,1.1,0.2,1.4-0.2s0.2-1-0.2-1.4c-2.9-2.3-5.6-5-7.8-8c3.7-16.3,11.3-29.9,22.8-40.6c14-13.1,31.7-19.8,52.7-19.8
            c0.1,0,0.2,0,0.3,0c0.5,0,0.9-0.4,1-0.9l2.6-24.1l24.8,2.7l-2.6,24.1c-0.1,0.5,0.3,1,0.8,1.1c15,3.6,27.4,10,36.9,18.8
            c0.4,0.4,1,0.4,1.4,0s0.4-1,0-1.4l0,0c-8-7.3-17.4-12.8-27.6-16.3V121l-7-8.6v0.1c-0.1-0.1-0.3-0.2-0.5-0.2l-26.8-3
            c-0.5-0.1-1,0.3-1.1,0.9l-2.6,24.2c-21.2,0.1-39.2,7-53.5,20.3c-10,9.4-17.4,21.3-21.4,34.5l-1.4,4.9c-3.1-3.5-9.2-16.3-11.8-21.9
            c-2.1-4.3-5-8.1-8.6-11.2c-1.6-8.3-4.7-16.3-9.2-23.5c-6.9-11.1-17.2-19.8-30.6-26.1c0.9-3.4,2.9-12,2.1-14.5s-4.4-5.2-5.8-6.3
            c-0.1-0.2-0.4-0.4-0.6-0.4L242,84.7c-0.5-0.1-1.1,0.2-1.2,0.8l0,0l-3.8,16.9c-10.4-1.2-21-0.4-31.1,2.6c-0.5,0.2-0.8,0.7-0.6,1.3
            c0.2,0.5,0.7,0.8,1.2,0.6c10.1-3,20.7-3.8,31.2-2.5c0.5,0.1,1-0.3,1.1-0.8l3.8-16.8l22.5,5l-3.8,16.8c-0.1,0.5,0.2,1,0.6,1.2
            c17.1,6.2,29.8,15.8,37.8,28.6c3.9,6.3,6.7,13.2,8.4,20.4c-5.4-4.2-11.9-6.9-18.7-7.9c-8.7-1.1-17.6,1.1-26.7,6.5
            c-2.3-3.8-5.2-7-8.7-9.7c-0.4-0.3-1.1-0.3-1.4,0.2c-0.3,0.4-0.3,1.1,0.2,1.4c3.3,2.5,6.1,5.6,8.2,9.2c-6.2,4.1-11.8,8.9-16.8,14.4
            c-2.2,2.4-4.2,5-5.9,7.8l-2,3.8l0,0c-3.2,7-4.7,14.6-4.4,22.2c-4.4-2.9-21.7-15-24.6-31.6c-3.1-17.7,19.2-30.7,20.3-31.3
            c0.5-0.1,1.1-0.2,1.6-0.3s0.9-0.6,0.9-1.1c-0.1-0.5-0.6-0.9-1.1-0.9c-7.2,0.8-13.9,4-19.1,8.9c-5.3,4.9-8.9,11.2-10.5,18.2
            c-1.5,6.5-1,13.3,1.5,19.5c2.4,6.4,7,12.2,13.8,17.4l18.6,11.7c0.9,4.7,2.2,10.2,4,13.8c0,7.1,1.2,14.8,5.2,21.4
            c3.2,5.2,8,9.3,13.7,11.6c0.6,2.5,0.1,6.9-0.2,9.2c-0.7,4.4-2.5,8.6-5.1,12.2c-1.4,0.9-2.7,1.9-4.1,2.8c-0.2-0.5-0.4-0.9-0.6-1.4
            c-3.2-7-9.7-13.3-19.2-18.7l-22.7-13.2c-20.2-11.5-34.1-25.2-41.2-40.9s-8.5-33.2-4.3-52.3c4.3-19.3,13.8-34.4,28.2-45
            c0.4-0.3,0.5-1,0.2-1.4s-1-0.5-1.4-0.2l0,0c-14.8,10.8-24.5,26.4-28.9,46.1c-4.4,19.5-2.9,37.5,4.4,53.6s21.4,30.1,42,41.8
            l22.7,13.2c9.2,5.3,15.4,11.2,18.4,17.8c0.3,0.6,0.5,1.2,0.7,1.7c-1.7,1.3-3.4,2.6-5,3.9l-0.1,0.1c-3.4,2.8-6.5,5.9-9.3,9.3
            c-7.6,9.4-13.1,20.3-17.7,31.1h-0.1c-27.8-7-32.4-38-33.6-41.5s-9.9-8.3-9.9-8.3c0,0.1,0,0.1,0,0.2l0,0l-45.1-4.9
            c-0.3,0-0.5,0.1-0.7,0.2c-0.2,0.2-0.3,0.4-0.4,0.7c-0.9,9.8-0.6,19.7,0.7,29.5c0.1,0.5,0.6,0.9,1.1,0.9c0.5-0.1,0.9-0.6,0.8-1.1
            c-1.2-9.3-1.5-18.7-0.7-28l43.2,4.6c-0.3,9.1,1.2,18.1,4.7,26.5c3.4,8.2,7.9,14.6,13.4,19.2c0.3,0.3,8.5,7,24.4,8.2
            c-1.6,4.5-5.6,16-8.1,19.8c-2,4.9-4.5,9.5-7.5,13.8c-3.5,4.6-8.3,11.4-13,18.3l-4.6-14.5l0.7-3.1c0.1-0.5-0.2-1-0.6-1.2
            c-18.6-6.8-32.6-18-41.6-33.4c-3.8-6.5-6.6-13.4-8.3-20.7c-0.1-0.5-0.7-0.9-1.2-0.7c-0.5,0.1-0.9,0.7-0.7,1.2
            c1.8,7.5,4.7,14.6,8.5,21.2c8.3,14,20.5,24.7,36.5,31.7c-2.1,0.9-3.1,3.3-2.4,5.4l4.1,13.1l-3.5,15.5c-0.1,0.5,0.2,1.1,0.8,1.2
            l0.2,0.1c-0.9,1.1-1.6,2.4-2.1,3.7c-1.6-0.8-3.3-1.2-5.1-1.2c-2-0.2-3.9,0.7-5.1,2.3c-1.8,2.6-0.7,7,0.1,9.4c-0.4,0-0.7,0-1.2,0
            c-2.7,0-4.7,0.6-6,1.8c-1.6,1.5-1.4,3.4-0.7,5.1c-8.3,9.7-24.9,20.9-25.1,21c-10.3,6.2-16.1,11-16.6,14c-0.1,0.5,0,1.1,0.3,1.5
            c0.1,0.1,0.2,0.2,0.3,0.2l65.1,35.4c0.5,0.3,1.1,0.1,1.4-0.4c9.7-17.3,62-49,62.5-49.3c0.3-0.2,0.5-0.5,0.5-0.8s-0.1-0.7-0.4-0.9
            l-29.1-20.7c0.3-0.7,0.5-1.4,0.7-2.1l10.2-9.7l19.6-18.6c0.5,3.6,1.4,16.7,1.3,22.3c-0.1,4.6-1.1,8.6-2.9,11.1
            c-0.7,1-0.8,2.2-0.3,3.3c2.3,5.3,18.3,11.5,36.2,14.2c-1.6,0.7-4.1,1.8-5.6,2.2s-2.1,2.6-1.5,4.8c0.9,3.3,4.3,6.4,11.4,5.2
            c1,1.4,3.8,4.9,5.7,5.9c0.4,0.3,0.9,2.1,1.3,3.4c0.4,1.2,0.8,2.6,1.4,4.1l-25.2-13.5c-0.9-0.6-2-0.9-3-0.7c-1.1,0.2-2.1,0.9-2.6,1.9
            c-1.2,1.8-23.2,28.7-34.7,42.7c-0.7,1.1-1,2.5-0.8,3.8c0.4,1.4,1.3,2.7,2.6,3.4c3.7,2.3,46.7,22,56,24.4c0.5,0.1,1.1,0.2,1.6,0.2
            c2.8,0,5.1-2,6.4-5.5c1.6-4.9,2.8-9.9,3.7-15c0.1-0.5-0.2-1.1-0.8-1.2c-0.5-0.1-1.1,0.2-1.2,0.8c0,0,0,0,0,0.1
            c-0.9,5-2.1,9.9-3.6,14.7c-0.7,1.9-2.3,4.9-5.6,4c-9.2-2.3-51.8-21.9-55.5-24.2c-1.5-0.6-2.1-2.3-1.5-3.8c0.1-0.2,0.2-0.3,0.3-0.5
            l0,0c1.4-1.7,33.2-40.5,34.8-42.8c0.3-0.5,0.7-0.9,1.3-1c0.5-0.1,1.1,0.1,1.6,0.4l0.1,0.1l27.8,14.8c1.2,2.1,3,3.7,5.2,4.7
            c-0.6,5.1-1.8,16.1-3.4,26c-0.1,0.5,0.3,1.1,0.8,1.2s1.1-0.3,1.2-0.8l0,0c1.6-9.7,2.8-20.4,3.4-25.6c1.3,0.3,2.7,0.5,4,0.5
            c7,0,17.1-3.8,26.9-17.4c1.9-2.7,2.7-3.8,14-5c0.5-0.1,0.9-0.5,0.9-1.1l0,0c-0.1-0.5-0.6-0.9-1.1-0.9c-11.6,1.2-13,2.4-15.5,5.8
            c-12.3,17.1-24.8,17.9-30.2,15.7c-4.5-1.8-6-6.9-7.2-10.7c-0.7-2.4-1.3-3.9-2.3-4.5c-3.6-2.4-7.4-7.9-6.5-10.3
            c1-2.7,5.9-10.6,16.7-13.9c0.5-0.2,0.8-0.7,0.7-1.2c-0.2-0.5-0.7-0.8-1.2-0.7c-11.6,3.6-16.9,12.1-18,15.1c-0.6,1.6-0.4,3.4,0.5,4.9
            c-5.9,0.7-7.6-2.2-8.1-3.5c-0.4-0.9-0.4-2,0.1-2.8c2.3-0.8,7.3-3,7.4-3.1c10.6-10.8,15.9-11.4,31.7-13.2c1.1-0.1,2.3-0.3,3.6-0.4
            c16.8-1.9,33.6-11.5,39.9-15.1c0.7-0.4,2-1.1,2-1.2c2.7-1.2,5.5-1.8,8.4-1.8c23.1,2,24.9,34.3,24.9,34.4c-3.1,1.3-14.8,3-35,5.2
            c-0.5,0.1-0.9,0.5-0.9,1.1l0,0c0.1,0.8,1.1,0.9,1.1,0.9c8-0.8,14.6-1.6,19.8-2.3l-0.1,0.9c-0.1,0.5,0.3,1.1,0.8,1.1c0,0,0,0,0.1,0
            l26.8,3h0.1c0.1,0,0.2,0,0.2,0l0,0l11.3-4.2l3-20.4c9.7-1.2,19.2-4,28-8.2c0.5-0.2,0.7-0.8,0.5-1.3s-0.8-0.7-1.3-0.5
            c-10.3,5-22.1,8-35.2,8.9l0,0c0.3-0.9,0.5-1.8,0.6-2.8c1.1-7.7,1.9-21.2,0.8-39.2c0,0,0.4,0,0.7,0c9.2-0.4,17.5-4.3,24.7-11.7
            c6.8-7,10.9-16,11.8-25.7c1-9.1-0.7-17.3-5-24.5C434.4,326.4,426.7,320.4,415.9,315.6z M243.7,251.5c-9.3-15.3-2.5-38.2-1.3-41.9
            c27.1-6.4,40.6-16.6,45.7-21.2c-1,7.6-0.6,15.4,1.1,22.9c3.3,14.5,9.6,19.2,13.1,21.7c0.7,0.5,1.8,1.3,1.8,1.6
            c0,2.6,3.5,27.3,4,30.5c-13.7,27.2-30.1,36-32.9,37.4c-10.4-6.1-5.1-24.7-5.1-24.9l0,0l0,0c0.1-0.5,0.1-1,0.1-1.5V276
            c-0.3-3-0.9-5.9-1.6-8.8c5.6-0.4,21.9-3.4,31.5-25.5c0.2-0.5,0-1.1-0.5-1.3s-1.1,0-1.3,0.5l0,0c-10.8,25-29.8,24.4-31.4,24.3
            C256,263.5,248.2,258.9,243.7,251.5z M257.8,264.9c2.8,1,5.7,1.7,8.6,2.1c0.7,2.7,1.2,5.5,1.6,8.3c-4.7,2.3-13.7,7.6-13.7,7.6
            C256.9,277.6,258.4,270.4,257.8,264.9L257.8,264.9z M246.2,290.9c6.8-5,14.1-9.4,21.6-13.2c-0.9,3.9-4.2,20.8,6.7,26.7
            c0.3,0.1,0.6,0.2,0.9,0c0.8-0.3,19.2-8.2,34.5-38.8c0.1-0.2,0.1-0.4,0.1-0.6l-0.2-1.2c5.1-0.5,10.3-0.8,15.1-0.8
            c6.8-0.1,13.5,0.6,20.1,2c2,0.5,4,1.1,6,2c-7.2,11-65.8,101-71.4,140.9c-0.1,0.3-0.3,0.6-0.6,0.7c-0.5,0.2-2.7,0.2-8.3-5.6
            c-9.4-9.7-27-70.3-29.4-108.3C242.6,293.6,245.9,291.1,246.2,290.9L246.2,290.9z M173.1,395l3.2,10c-0.3-0.1-0.6-0.1-0.9-0.1l0,0
            l0,0c-0.4,0-0.9,0-1.3,0c-1.1,0.2-2.1,0.6-3,1.4l-0.4-0.1L173.1,395z M174.2,406.9c0.9-0.1,1.9,0,2.8,0.4l0.8,2.6l0,0
            c-0.2,0-0.5,0-0.7,0.2c-0.4,0.3-0.6,0.9-0.2,1.4c0.1,0.1,4.5,5.7,5.8,9.4c0.7,2.2,1.3,3.6,1.6,4.3c-1.1,0.8-2.1,1.8-2.9,3
            c-0.4,0.6-0.8,1.3-1,2c-2.9-6.3-6.8-12.1-11.5-17.2C169.6,411.1,171.5,407.3,174.2,406.9z M193.4,421.8c0-0.6-0.5-1-1.1-0.9
            c-0.6,0-1,0.5-0.9,1c0,0.2-0.1,0.4-0.2,0.5l-3.1-9.9c7.1,2.7,19,8.3,18.9,13c-0.1,8.2-13,9.5-13.2,9.5c-0.4,0-1,0.1-1.6,0.2
            c-1.6,0.2-3.2,0.4-4.8,0.4c-2.1,0-3.6-0.4-4.5-1.1c-0.3-0.2-0.5-0.5-0.7-0.7c-0.5-1.5-0.2-3.2,0.7-4.5c1.8-2.7,5.4-4.4,6.8-4.5
            c1.1,0,2.1-0.4,2.9-1.1C193.1,423.2,193.4,422.5,193.4,421.8z M158.7,413.8c0.9-1,2.2-1.5,3.5-1.4c2.2,0,4.3,0.9,4.7,1.4l0,0l0,0
            c8.5,9,11.7,17.4,12.2,18.6c0,0.9-0.3,2.8-1.3,3.5c-0.3,0.2-0.7,0.4-1.1,0.4c-1-0.1-2-0.7-2.6-1.5c-3.4-5.6-8.6-10-14.6-12.5
            C158.6,420.4,157.2,415.9,158.7,413.8z M151.3,425.3c1.1-1.1,3.1-1.3,4.6-1.3c0.8,0,1.6,0.1,2.4,0.2c5.7,2.4,10.6,6.4,13.9,11.7
            c0,0.3-0.1,0.6-0.3,0.9c-0.6,0.6-1.3,0.9-2.1,0.8c-12-2.8-17-7-17.3-7.4C152.2,429.9,149.7,426.8,151.3,425.3z M151.5,432.1
            c1.4,1.1,6.4,4.7,16.6,7.2c-0.7,0.6-1.6,1-2.5,1.3c-1.1,0.2-2.2,0.3-3.3,0.3c-5.8,0-12.1-1.7-12.4-4.5
            C149.5,433.2,150.8,432.3,151.5,432.1z M234.9,450.5c-8.3,5-51.2,31.9-61.4,48.4l-63.9-34.7c0.2-0.9,1.9-4.4,15.6-12.6
            c0.6-0.4,13.9-9.4,22.8-18.4c-0.3,1.1-0.4,2.2-0.2,3.3c0.5,5,9.6,6.3,14.4,6.3c1.3,0,2.6-0.1,3.9-0.4c1.5-0.4,2.9-1.2,3.9-2.4
            c0.1,0.1,0.2,0.2,0.2,0.2l10.3,6.6c0.5,0.3,1.1,0.2,1.4-0.3c0.3-0.5,0.2-1.1-0.3-1.4L172,439c0.6-0.2,1-0.6,1.4-1.1
            c0.1-0.2,0.3-0.4,0.4-0.6c0.8,0.6,1.8,0.9,2.8,1c0.8,0,1.6-0.3,2.3-0.7c0.9-0.7,1.5-1.6,1.8-2.6c0.3,0.3,0.6,0.6,0.9,0.9
            c1.4,1.1,3.2,1.7,4.9,1.6c0.6,2,1.1,3.6,1.1,3.6c0.6,1.9,6.4,4.6,6.4,4.6s2.2-3.7,2.3-6.2l10.9,7.2c0.5,0.3,1.1,0.1,1.4-0.3
            c0.3-0.4,0.1-1-0.3-1.3l-12.6-8.3c3.8-0.7,8.8-2.4,11.4-5.9L234.9,450.5z M208.8,424.1c-1.7-6.2-14.9-11.7-21.5-14l-5-15.6
            c4.8-7.3,10.1-14.7,13.8-19.6c4.9-6.5,8.7-16.1,13-27.2c5.6-14.4,12-30.7,22.6-43.6c0-0.1,0.1-0.1,0.1-0.2c-0.1,8-0.4,31.7,0.3,52.1
            c0.9,26.6,4.7,37.7,5.9,40.4L208.8,424.1z M310.5,435.1c-1.3,0.1-2.4,0.3-3.6,0.4c-15.2,1.7-21.3,2.4-31.6,12.5
            c-19.4-2.6-34.9-9.1-36.7-13.3c-0.2-0.4-0.2-0.9,0.1-1.3c6.4-8.9,1.8-35.6,1.6-36.8c0-0.1-5-10.5-6.1-40.5
            c-0.8-23.1-0.4-50.7-0.3-54.3c1.7-1.9,3.6-3.7,5.5-5.3c2.8,39.1,20.2,98.1,29.9,108.1c4,4.2,7.1,6.2,9.4,6.2c0.3,0,0.6,0,1-0.1
            c1-0.3,1.8-1.2,2-2.3c5.6-39.3,65.3-131.3,71.2-140.4c3.8,1.9,7.2,4.3,10.4,7.1c-9.1,18-16.6,69.4-16.9,71.6
            c-8.3,41.7-1.1,72.4-1,72.7c0,0.2,1.2,2.5,1.2,2.5C339,425.8,324.7,433.4,310.5,435.1z M351.7,419l-3.3,1.9
            c-0.2-0.8-0.6-1.6-1.1-2.4c-0.6-2.7-6.3-30.2,0.3-67.6c3.4,12,13,47,11.1,55.8C356.8,415.7,352.9,418.4,351.7,419L351.7,419z
             M397.8,461.1l-24.8-2.7l0.1-0.4c8.7-1.2,13.3-2.3,14.7-3.2c0,0,0,0,0.1-0.1c4.8-1.6,9-4.4,12.3-8.2L397.8,461.1z M403.7,434.3
            c-1.4,10.1-10.3,16.1-15.6,18c-0.3-6.3-3.2-33.4-26.9-35.4c-1.7,0-3.3,0.2-4.9,0.5c2.2-3.1,3.7-6.6,4.4-10.3
            c2.3-10.9-11.1-56.7-12.3-60.6c0.5-3.7,7.8-52.7,16.4-70.2c3.5,3.3,6.5,7.1,9,11.2C407.3,341.8,406.6,413.5,403.7,434.3L403.7,434.3
            z M414.8,380.3c-2.9,1.5-6,2.5-9.2,2.9c-2-20.2-6.4-43.6-15-66.1c2.4-2.6,4.6-5.2,6.5-7.6l18.1,8.1c8,3.5,14.2,7.7,18.5,12.6
            C437.1,338.5,444.8,364.7,414.8,380.3L414.8,380.3z M246.1,486.1l-3.1,5c-0.3,0.5-0.1,1.1,0.3,1.4c0,0,0,0,0.1,0l9.4,4.9
            c0.2,0.1,0.5,0.1,0.8,0.1c0.3-0.1,0.5-0.3,0.6-0.5l2.5-5.4c0.2-0.5,0-1.1-0.5-1.3l-8.8-4.5C246.9,485.5,246.3,485.7,246.1,486.1z
             M252.8,495.2l-7.5-3.9l2-3.3l7.2,3.6L252.8,495.2z M183.9,478l-6.7-4.4c-0.5-0.3-1.1-0.2-1.4,0.3c-0.3,0.5-0.2,1.1,0.3,1.4l6.7,4.4
            c0.5,0.3,1.1,0.2,1.4-0.3C184.5,478.9,184.4,478.3,183.9,478z M239.5,502c-0.7-0.4-1.6-0.4-2.3,0c-2.1,1.7-3.3,4.2-3.3,6.9
            c0.2,0.8,0.8,1.6,1.6,1.9c0.7,0.4,1.6,0.4,2.3,0c2.1-1.7,3.3-4.3,3.2-7C240.8,503,240.3,502.3,239.5,502L239.5,502z M239.3,504.7
            c-0.2,0.7-0.5,1.5-0.8,2.1c-0.3,0.7-0.7,1.4-1.2,2.1c-0.2,0.2-0.4,0.4-0.7,0.5c-0.4,0.1-0.9-0.1-1.1-0.5c-0.1-0.3-0.1-0.6,0-0.9
            c0.4-1.5,1.1-2.9,2-4.2c0.2-0.2,0.4-0.4,0.7-0.5c0.4-0.1,0.9,0.1,1.1,0.5C239.4,504.1,239.4,504.4,239.3,504.7L239.3,504.7z
             M248.5,506.2c-0.7-0.4-1.6-0.4-2.3,0c-2.1,1.7-3.3,4.2-3.3,6.9c0.2,0.8,0.8,1.6,1.6,1.9c0.7,0.4,1.6,0.4,2.3,0
            c2.1-1.7,3.3-4.3,3.2-7C249.9,507.2,249.3,506.5,248.5,506.2L248.5,506.2z M248.4,508.9c-0.2,0.7-0.5,1.5-0.8,2.1
            c-0.3,0.7-0.7,1.4-1.2,2.1c-0.2,0.2-0.4,0.4-0.7,0.5c-0.2,0.1-0.4,0-0.6-0.1c-0.2-0.1-0.4-0.2-0.4-0.4c-0.1-0.3-0.1-0.6,0-0.9
            c0.2-0.7,0.5-1.5,0.8-2.1c0.3-0.7,0.7-1.4,1.2-2.1c0.2-0.2,0.4-0.4,0.7-0.5c0.2-0.1,0.4,0,0.6,0.1c0.2,0.1,0.4,0.2,0.4,0.4
            C248.5,508.3,248.5,508.6,248.4,508.9L248.4,508.9z M436,266.1c-5.4-3.8-11.9-8.2-19.7-13.1c-32.3-20.3-28.4-45.8-20.1-59.2
            c6.6-10.6,17.7-15.1,25.4-13.9c2.8,0.6,5.4,1.7,7.6,3.5c12.5,8.9,18.6,24.8,17.9,47.1c0,0.3,0.8,1,1,1l47.5-1.4c0.5,0,1-0.4,1-1
            c0.6-20.8-4.5-43.8-12.9-58.5c-0.3-0.5-0.9-0.6-1.4-0.4s-0.6,0.9-0.4,1.4c8.1,14.2,13.1,36.3,12.7,56.5l-45.5,1.4
            c0.4-22.5-5.9-38.5-18.8-47.7c-6.1-4.3-14.7-8.8-27.7-5.2c-8,2.3-26.8,10.2-28.2,34.5c-1.7,30.8,44.6,49.7,46.5,50.5
            c28.3,11.8,47.3,25.2,56.4,39.9s12.5,32.9,10.2,54.2c-2.6,23.8-11.5,43.3-26.5,58.1c-0.4,0.4-0.4,1-0.1,1.4c0.4,0.4,1,0.4,1.4,0.1
            c0,0,0,0,0.1-0.1c15.4-15.1,24.5-35.1,27.1-59.3c2.3-21.7-1.2-40.3-10.5-55.4C471.5,287.9,457,276.4,436,266.1z M500.2,257.9
            c-0.3-0.5-0.9-0.6-1.4-0.2c-0.5,0.3-0.6,0.9-0.3,1.4c3.2,4.6,2.1,11-2.5,14.2s-11,2.1-14.2-2.5c-1.2-1.7-1.8-3.7-1.8-5.7
            c0-5.5,4.5-10,10.1-10h0.1l0,0c1.5-0.1,3.1,0.3,4.5,0.9c0.5,0.2,1.1-0.1,1.3-0.6c0.2-0.4,0.1-1-0.4-1.2c0,0,0,0-0.1,0
            c-1.7-0.8-3.5-1.1-5.3-1l0,0c-6.6-0.1-12.1,5.2-12.2,11.8s5.2,12.1,11.8,12.2c0.1,0,0.3,0,0.4,0c6.7,0,12.2-5.4,12.2-12.2
            C502.3,262.3,501.6,259.9,500.2,257.9L500.2,257.9z M257.6,510.4c-0.7-0.4-1.6-0.4-2.3,0c-2.1,1.7-3.3,4.2-3.3,6.9
            c0.2,0.8,0.8,1.6,1.6,1.9c0.7,0.4,1.6,0.4,2.3,0c2.1-1.7,3.3-4.3,3.2-7C258.9,511.4,258.4,510.7,257.6,510.4z M257.4,513.1
            c-0.2,0.7-0.5,1.5-0.8,2.1c-0.3,0.7-0.7,1.4-1.2,2.1c-0.2,0.2-0.4,0.4-0.7,0.5c-0.4,0.1-0.9-0.1-1.1-0.5c-0.1-0.3-0.1-0.6,0-0.9
            c0.4-1.5,1.1-2.9,2-4.2c0.2-0.2,0.4-0.4,0.7-0.5c0.2-0.1,0.4,0,0.6,0.1s0.4,0.2,0.4,0.4C257.5,512.5,257.5,512.8,257.4,513.1
            L257.4,513.1z M287.8,484.4l-18.2-8.8c-0.5-0.2-1.1,0-1.3,0.5l0,0l-9.3,21.7c-0.2,0.5,0,1.1,0.5,1.3l23.3,10.9
            c0.5,0.2,1.1,0,1.3-0.5c0-0.1,0.1-0.2,0.1-0.2l4.2-23.8C288.4,485,288.2,484.5,287.8,484.4L287.8,484.4z M282.4,507.6l-21.2-9.9
            l8.5-19.9l16.5,8L282.4,507.6z M250.2,483.2l7.8,4.3c0.1,0.1,0.3,0.1,0.5,0.1c0.1,0,0.2,0,0.3,0c0.3-0.1,0.5-0.2,0.6-0.5l6.4-11.7
            c0.3-0.5,0.1-1-0.3-1.3l-7.1-4.5c-0.5-0.3-1.1-0.2-1.4,0.3l0,0l-7.1,11.8C249.5,482.3,249.7,482.9,250.2,483.2L250.2,483.2
            L250.2,483.2z M258.1,471.9l5.5,3.5l-5.5,10l-6-3.3L258.1,471.9z M194.9,470l-36.6-22.8c-0.5-0.3-1.1-0.1-1.4,0.3
            c-0.3,0.5-0.1,1.1,0.3,1.4l36.6,22.8c0.5,0.3,1.1,0.1,1.4-0.3C195.5,470.9,195.3,470.3,194.9,470z M206.2,460.6l-21.4-13.7
            c-0.5-0.3-1.1-0.2-1.4,0.3c-0.3,0.5-0.2,1.1,0.3,1.4l0,0l21.4,13.7c0.5,0.3,1.1,0.2,1.4-0.3C206.8,461.5,206.7,460.9,206.2,460.6
            L206.2,460.6z M196.3,446.1c-0.5-0.3-1.1-0.2-1.4,0.3c-0.3,0.5-0.2,1.1,0.3,1.4l16.2,10.9c0.5,0.3,1.1,0.2,1.4-0.3
            c0.3-0.5,0.2-1.1-0.3-1.4l0,0L196.3,446.1z M189.2,474.2l-17-10.9c-0.5-0.3-1.1-0.2-1.4,0.3c-0.3,0.5-0.2,1.1,0.3,1.4l17,10.9
            c0.5,0.3,1.1,0.2,1.4-0.3C189.8,475.1,189.7,474.5,189.2,474.2L189.2,474.2z M266.7,514.6c-0.7-0.4-1.6-0.4-2.3,0
            c-2.1,1.7-3.3,4.2-3.3,6.9c0.2,0.8,0.8,1.6,1.6,1.9c0.7,0.4,1.6,0.4,2.3,0c2.1-1.7,3.3-4.3,3.2-7C268,515.6,267.4,514.9,266.7,514.6
            L266.7,514.6z M266.5,517.3c-0.2,0.7-0.5,1.5-0.8,2.1c-0.3,0.7-0.7,1.4-1.2,2.1c-0.2,0.2-0.4,0.4-0.7,0.5c-0.2,0.1-0.4,0-0.6-0.1
            s-0.4-0.2-0.4-0.4c-0.1-0.3-0.1-0.6,0-0.9c0.4-1.5,1.1-2.9,2-4.2c0.2-0.2,0.4-0.4,0.7-0.5c0.2-0.1,0.4,0,0.6,0.1s0.4,0.2,0.4,0.4
            C266.6,516.7,266.6,517,266.5,517.3L266.5,517.3z M275.7,518.8c-0.7-0.4-1.6-0.4-2.3,0c-2.1,1.7-3.3,4.2-3.3,6.9
            c0.2,0.8,0.8,1.6,1.6,1.9c0.7,0.4,1.6,0.4,2.3,0c2.1-1.7,3.3-4.3,3.2-7C277,519.8,276.5,519.1,275.7,518.8L275.7,518.8z
             M275.6,521.5c-0.2,0.7-0.5,1.5-0.8,2.1c-0.3,0.7-0.7,1.4-1.2,2.1c-0.2,0.2-0.4,0.4-0.7,0.5c-0.4,0.1-0.9-0.1-1.1-0.5
            c-0.1-0.3-0.1-0.6,0-0.9c0.4-1.5,1.1-2.9,2-4.2c0.2-0.2,0.4-0.4,0.7-0.5c0.2-0.1,0.4,0,0.6,0.1s0.4,0.2,0.4,0.4
            C275.6,520.9,275.6,521.2,275.6,521.5L275.6,521.5z M212.7,450.7l5.8,3.8c0.5,0.3,1.1,0.1,1.4-0.3c0.3-0.4,0.1-1-0.3-1.3l-5.8-3.8
            c-0.4-0.3-1.1-0.2-1.4,0.2C212.1,449.7,212.2,450.3,212.7,450.7C212.6,450.6,212.6,450.7,212.7,450.7z M285,517.8c0.6,0,1-0.5,1-1
            c0-0.4-0.2-0.7-0.6-0.9l-48.3-23c-0.5-0.2-1.1,0-1.3,0.5s0,1.1,0.5,1.3l0,0l48.3,23C284.8,517.7,284.9,517.8,285,517.8z
             M202.6,358.6c-0.1,0.3-0.2,0.6-0.4,0.8C202.4,359.2,202.5,358.9,202.6,358.6L202.6,358.6L202.6,358.6z"></path>
        </svg>