<?xml version="1.0" encoding="UTF-8"?>
<!DOCTYPE svg PUBLIC "-//W3C//DTD SVG 1.1//EN" "http://www.w3.org/Graphics/SVG/1.1/DTD/svg11.dtd">
<svg version="1.1" id="Layer_1_99_" xmlns="http://www.w3.org/2000/svg" xmlns:xlink="http://www.w3.org/1999/xlink" x="0px" y="0px" viewBox="0 0 595.276 595.276" enable-background="new 0 0 595.276 595.276" xml:space="preserve">
<path id="color_x5F_7" fill-rule="evenodd" clip-rule="evenodd" fill="#E96257" d="M170.514,308.815h15.711
	c-0.897,2.926-3.998,5.19-7.857,5.19C174.51,314.005,171.411,311.742,170.514,308.815z"></path>
<path id="color_x5F_6" fill-rule="evenodd" clip-rule="evenodd" fill="#1ACEBD" d="M475.901,469.478H92.526
	c-1.014,0-1.925-0.326-2.562-0.821c-0.637-0.496-0.995-1.14-0.995-1.838v-6.318c0-0.699,0.358-1.344,0.995-1.84
	c0.637-0.496,1.548-0.82,2.562-0.82h383.375c1.014,0,1.923,0.324,2.56,0.82c0.637,0.495,0.995,1.141,0.995,1.84v6.318
	c0,0.698-0.358,1.341-0.995,1.838C477.824,469.152,476.916,469.478,475.901,469.478z M228.742,359.711l-0.196,0.038l-11.339-21.004
	l-0.094,0.051c-1.351-1.789-3.435-2.992-5.817-3.133c-12.253-0.723-36.346-2.145-36.85-2.174v-7.226
	c1.64,0.307,14.242,2.347,20.612-7.241c3.422-5.152,4.885-10.213,4.885-16.411c0-9.987,0.206-15.875,0.214-23.201
	c0.205-0.019,0.439-0.051,0.714-0.125c0.739-0.199,1.707-0.658,2.638-1.652c1.861-1.989,3.556-6.046,3.379-14.372
	c-0.182-8.549-7.799-16.883-18.168-21.815c-6.48-3.082-14.07-4.84-21.675-4.438c-4.562,0.242-9.131,1.26-13.468,3.238
	c-9.17,4.181-15.472,8.438-19.689,13.277V152.305H391.76c-1.655,4.776-2.597,10.637-2.594,17.808
	c-0.067,0.081-0.107,0.181-0.114,0.285c0,0-0.332,5.484-0.332,12.994c0,2.719,0.53,6.225,1.534,9.551
	c1.003,3.326,2.464,6.469,4.428,8.447c3.795,3.822,8.938,5.98,14.4,6.006h1.731l-0.032,8.722c-0.125-0.008-0.232-0.01-0.438-0.004
	c-0.262,0.007-0.612,0.021-1.04,0.041c-0.855,0.039-2.019,0.1-3.393,0.178c-2.748,0.156-6.332,0.374-9.921,0.594
	c-3.59,0.222-7.184,0.447-9.955,0.615c-1.385,0.083-2.565,0.153-3.434,0.201c-0.868,0.048-1.477,0.071-1.541,0.07
	c-0.355-0.007-0.601,0.158-0.868,0.361c-0.266,0.204-0.546,0.479-0.86,0.831c-0.627,0.704-1.378,1.709-2.241,2.989
	c-1.727,2.56-3.892,6.214-6.268,10.637c-4.722,8.793-10.262,20.626-14.747,32.847c-0.143-0.076-0.377-0.229-0.698-0.53
	c-0.729-0.684-1.757-1.883-2.955-3.416c-2.398-3.066-5.499-7.48-8.563-11.995c-5.879-8.668-11.35-17.29-11.804-18.005
	c0.071-0.163,0.051-0.351-0.053-0.494c-0.181-0.27-0.763-1.011-1.619-2.102s-1.949-2.476-3.027-3.837
	c-2.157-2.723-4.253-5.35-4.253-5.35c-0.002-0.004-0.005-0.008-0.008-0.012c-0.513-0.61-1.23-0.955-1.97-1.017
	c-0.74-0.061-1.502,0.16-2.109,0.677l-3.382,2.883l-23.256-47.595c-0.082-0.168-0.253-0.276-0.44-0.279
	c-0.08-0.002-0.159,0.016-0.23,0.051l-5.353,2.653c-0.245,0.122-0.347,0.422-0.226,0.667l23.202,47.481l-6.032,3.479
	c-2.63,1.516-3.551,4.899-2.051,7.54l6.326,11.132c1.5,2.64,4.873,3.557,7.503,2.041l1.229-0.708
	c0.292,0.556,8.887,16.917,19.075,32.006c5.182,7.674,10.745,14.972,15.833,19.628c2.544,2.329,4.965,4.006,7.221,4.721
	c2.257,0.715,4.41,0.401,6.069-1.243c4.651-4.607,8.246-8.549,10.718-12.977v8.401c0,0.25,1.703,0.655,1.703,0.655l-1.392,57.519
	c-0.029,0.255-0.045,0.541-0.045,0.844l0.145,1.415H274.959c1.45-12.361,2.64-23.793,3.262-30.631
	c0.549-0.995,1.196-2.711,1.921-4.894c0.748-2.25,1.55-4.909,2.288-7.456c1.476-5.09,2.695-9.728,2.697-9.734
	c0.93-3.344-1.018-6.831-4.343-7.768l-11.102-3.131c-0.832-0.235-1.671-0.288-2.478-0.184c-2.421,0.315-4.545,2.047-5.244,4.555
	c0,0.001,0,0.001,0,0.002l-0.745,2.681l-0.442-1.085c-0.594-1.459-2.271-2.165-3.722-1.565l-4.352,1.799
	c-1.451,0.6-2.147,2.283-1.553,3.741c0.017,0.049,5.256,15.526,6.223,18.758l-5.866,34.911H228.742z M484.261,359.711h-3.859
	l-0.842-52.167c0.727,0.209,1.139,0.327,1.837,0.526c0.945,0.273,1.904,0.455,2.865,0.556V359.711z M133.888,305.416
	c2.01,3.179,3.64,4.869,3.64,4.869c0.008,0.009,0.017,0.017,0.026,0.026l5.614,4.972c0.035,0.032,0.076,0.059,0.119,0.08
	l-0.031,18.449l-9.368,0.197V305.416z M279.912,226.726c0.274,0,0.499-0.226,0.499-0.499v-9.906c0-0.274-0.226-0.499-0.499-0.499
	H163.379c-0.274,0-0.499,0.226-0.499,0.499v9.906c0,0.274,0.226,0.499,0.499,0.499H279.912z M457.233,152.305h27.028v73.629
	c-2.611-3.243-6.422-6.01-11.266-7.186c-0.151-0.037-0.345-0.063-0.661-0.106c-0.317-0.042-0.733-0.093-1.241-0.152
	c-0.623-0.073-1.588-0.174-2.452-0.268c-0.002-0.035-0.008-0.069-0.018-0.103c-0.373-1.238-0.613-3.58-0.796-6.641
	c-0.182-3.061-0.32-6.863-0.543-11.124c-0.449-8.526-1.241-18.896-3.438-28.954C462.379,164.681,460.28,158.103,457.233,152.305z
	 M279.912,202.753c0.274,0,0.499-0.226,0.499-0.499v-9.904c0-0.274-0.226-0.499-0.499-0.499H163.379
	c-0.274,0-0.499,0.226-0.499,0.499v9.904c0,0.274,0.226,0.499,0.499,0.499H279.912z M280.606,178.713
	c0.275-0.001,0.499-0.226,0.499-0.499v-9.904c0-0.275-0.225-0.499-0.499-0.499H164.073c-0.274,0-0.499,0.225-0.499,0.499v9.904
	c0,0.274,0.226,0.499,0.499,0.499H280.606z"></path>
<path id="color_x5F_5" fill-rule="evenodd" clip-rule="evenodd" fill="#FFD2BB" d="M124.705,401.114
	c-0.137,0.089-1.556,29.585-1.556,29.585c-0.012,0.271,58.657,3.821,58.657,3.821c0.17,0.014,4.866-0.825,9.087-1.144
	c2.11-0.159,4.272-0.209,5.979-0.015c0.854,0.096,3.712,0.465,3.88,2.024c0.044,0.404-1.022,1.471-1.469,1.726
	c-0.894,0.508-2.435,1.146-2.23,1.212c0,0,3.584,1.585,6.573,3.734c1.495,1.075,2.85,2.396,3.59,3.899
	c0.739,1.503,0.903,3.17,0.006,5.144c-0.419,0.924-1.187,1.61-2.282,2.118c-1.097,0.509-2.513,0.823-4.128,0.966
	c-3.231,0.287-7.252-0.101-11.16-0.757c-5.276-0.884-15.758-4.313-16.031-4.313c-0.039,0-0.078,0.005-0.115,0.014
	c0,0-14.671,3.079-31.854,4.071c-17.183,0.991-42.612-0.101-48.989-9.899c-4.66-7.159-1.573-33.549-1.233-42.13L124.705,401.114z
	 M267.838,296.864c0.517-0.015,1.047,0.047,1.572,0.195l11.104,3.129c2.803,0.789,4.437,3.714,3.651,6.541
	c-0.001,0.002-0.002,0.005-0.002,0.007c0,0-6.406,21.644-6.413,21.716c-0.971,10.69-9.228,71.45-10.633,78.443
	c-0.702,3.496-3.667,12.304-3.848,12.44c-5.582,4.176-12.742,5.577-19.47,3.813c-6.083-1.594-9.565-2.788-12.842-5.376
	c-2.285-1.806-7.184-8.287-7.114-8.384l17.393-24.034c0,0,5.52,8.655,5.56,8.416c0,0,11.589-69.077,11.568-69.15
	c-0.963-3.238-6.279-18.927-6.279-18.927c-0.004-0.009-0.008-0.018-0.012-0.027c-0.392-0.96,0.061-2.049,1.011-2.442l4.352-1.799
	c0.95-0.392,2.022,0.058,2.413,1.019c0,0,1.257,2.747,1.458,2.747c0.223,0,1.618-4.452,1.618-4.452
	C263.561,298.441,265.595,296.927,267.838,296.864z M183.4,273.64c0.044,0.749,0.21,1.721,0.739,2.676
	c1.08,1.948,3.655,3.694,9.064,3.213c3.494-0.31,5.079-2.624,5.983-4.37c0,0-0.242,17.295-0.242,27.45
	c0,6.044-1.388,10.848-4.717,15.859c-6.391,9.619-20.428,7.138-20.428,7.138c-0.034-0.007-0.352,16.283-0.352,16.283
	c-4.76,4.805-9.531,7.096-14.358,7.059c-4.823-0.036-9.769-2.409-14.849-7.073l0.063-36.666c0,0,0,0,0-0.001
	c0-0.274-1.155-0.421-1.448-0.421c-3.606,0-6.652-3.758-6.652-8.525c0-2.461,0.235-4.393,0.876-5.628
	c0.626-1.206,1.585-1.805,3.348-1.834c0.017,0.015,0.023,0.019,0.045,0.037c0.117,0.101,4.385,4.19,4.413,4.19
	c0.25,0,0.463-0.188,0.495-0.436c0.057-0.086-0.327-12.381-0.327-12.381c0.231,0.318,0.442,0.637,0.785,0.954
	c1.973,1.827,5.911,3.409,13.776,2.9C173.204,283.187,181.302,275.779,183.4,273.64z M187.452,308.41
	c0.006-0.031-18.177-0.368-18.177-0.094c0,0.032,0.003,0.063,0.009,0.094c0.714,3.784,4.543,6.594,9.083,6.594
	C182.908,315.004,186.738,312.194,187.452,308.41z M421.371,267.591c0.292-0.004,9.415,1.32,9.415,1.32l-2.089,22.8l-10.552-2.329
	c-0.004-0.001-0.009-0.002-0.013-0.004c-2.388-0.46-3.953-2.779-3.494-5.189l2.473-12.998
	C417.511,269.083,419.324,267.616,421.371,267.591z M314.83,223.994c1.518,0.036,2.977,0.846,3.786,2.27l6.326,11.133
	c1.232,2.169,0.48,4.933-1.682,6.179l-8.682,5.006c-2.161,1.245-4.902,0.501-6.136-1.668l-6.326-11.133
	c-1.233-2.169-0.479-4.933,1.682-6.179l8.682-5.006C313.021,224.284,314.613,223.988,314.83,223.994z M321.044,219.708
	c0.481,0.04,0.947,0.267,1.287,0.67c0.008,0.01,8.266,10.462,8.503,10.777l-4.767,6.255c-0.076-0.172-6.582-11.64-6.582-11.64
	c-0.759-1.336-2.002-2.218-3.381-2.579l3.561-3.037C320.065,219.813,320.562,219.667,321.044,219.708z M407.486,217.252
	c0.641-0.035,4.292-0.532,4.292-0.806c0-0.002,0-0.004,0-0.006l0.035-9.541c0,0,0-0.001,0-0.002c0-0.274-2.731-0.499-2.731-0.499
	c-5.134,0-10.058-2.052-13.69-5.709c-1.761-1.774-3.208-4.801-4.182-8.033c-0.975-3.233-1.491-6.675-1.491-9.263
	c0-7.168,0.292-11.965,0.317-12.395c0,0,6.763,0.8,6.869,0.638l3.625-5.618l-0.284,5.349c-0.013,0.25,12.194,2.572,12.302,2.396
	l3.373-5.511l1.05,6.199c0.026,0.241,10.283,0.594,10.375,0.423l3.137-5.792c0.237,0.863,0.682,2.506,1.433,5.062
	c0.464,1.578,1.641,6.927,3.595,6.957c1.537,0.023,2.411-2.003,1.626-8.15c-0.098-0.766,0.944-2.167,1.091-2.276
	c0.049-0.036,0.08-0.056,0.115-0.078c3.042,0.061,5.614,3.237,5.614,7.299c0,4.101-2.618,7.319-5.698,7.319
	c-0.25,0-1.322,0.158-1.322,0.431c0,0,0.28,30.827,0.553,30.827c0.167,0,4.106,0.227,4.048,0.33c0,0-2.2,3.607-5.428,7.208
	c-3.229,3.603-7.491,7.116-11.379,7.116s-8.349-3.525-11.767-7.133C410.208,221.085,408.194,218.273,407.486,217.252z
	 M402.118,193.101c-0.273,0.002-0.495,0.227-0.495,0.499c0,0.034,0.003,0.068,0.01,0.102c0.402,2.065,2.52,3.546,4.988,3.546
	c2.469,0,4.586-1.48,4.988-3.546c0.006-0.032,0.009-0.063,0.009-0.095c0-0.275-0.225-0.499-0.499-0.499
	c-0.239,0-0.445,0.171-0.49,0.405c-0.291,1.494-1.938,2.737-4.007,2.737c-2.068,0-3.716-1.242-4.006-2.737
	C402.577,193.308,402.417,193.15,402.118,193.101z"></path>
<path id="color_x5F_4" fill-rule="evenodd" clip-rule="evenodd" fill="#00CEC9" d="M216.953,456.842h-42.358
	c0.019-0.054,0.028-0.112,0.027-0.169c0-1.674,0.679-3.495,1.922-5.262c2.773,0.801,7.644,2.114,12.941,3.002
	c3.954,0.663,8.032,1.066,11.414,0.766c1.69-0.15,3.209-0.472,4.459-1.053c1.25-0.58,2.24-1.436,2.775-2.613
	c1-2.199,0.829-4.239-0.002-5.955c5.364,2.908,8.795,7.381,8.795,11.113C216.925,456.731,216.934,456.788,216.953,456.842z
	 M143.958,277.292l0.477,14.161c-0.205-0.208-2.216-2.753-4.25-3.207c-1.795-0.401-3.624,1.219-3.992,1.927
	c-0.785,1.512-0.989,3.571-0.989,6.091c0,5.195,3.992,9.269,8.28,9.269c0.153,0-0.194,8.525-0.194,8.525l-5.059-4.482
	c-0.031-0.032-10.178-10.43-10.84-28.996c-0.333-9.34,0.686-16.593,4.57-22.806c3.884-6.213,10.677-11.442,22.03-16.619
	c4.915-2.241,10.154-3.217,15.34-3.201c6.668,0.02,13.251,1.679,18.958,4.394c10.144,4.825,17.429,12.973,17.598,20.936
	c0.174,8.183-1.507,11.954-3.11,13.666c-0.801,0.856-2.351,1.794-2.933,1.951c-0.298,0.08,0.14-6.278-0.135-6.278
	c-0.217,0-0.41,0.142-0.475,0.349c0,0-1.735,5.176-6.122,5.565c-5.178,0.459-7.213-1.104-8.1-2.702
	c-0.886-1.598-1.362-3.858-1.457-3.749c0,0-8.632,9.991-24.006,10.985c-7.711,0.498-11.336-1.065-13.033-2.636
	c-0.848-0.785-1.796-3.649-2.062-3.649c-0.26,0-0.477,0.203-0.497,0.461c0,0,0.007,0.044,0.008,0.047H143.958z M424.265,291.756
	c0,0,20.59,5.816,31.609,8.983l-31.609,3.422V291.756z M376.22,250.02l42.062,4.596v13.017c-1.08,0.784-1.885,1.957-2.153,3.371
	l-2.474,12.998c-0.558,2.937,1.364,5.793,4.286,6.357l0.342,0.076v13.721l-42.062-5.322V250.02z M466.275,250.018v25.131
	l-42.01-8.195v-12.51L466.275,250.018z M324.916,243.548l7.434,15.21l-4.458,2.21l-7.155-14.546
	c-0.031-0.063-0.074-0.118-0.127-0.162C320.61,246.26,324.577,243.887,324.916,243.548z M291.702,175.573l23.175,47.43
	c-0.274-0.008-0.549,0.002-0.823,0.036c-0.71,0.086-3.855,1.718-3.855,1.718l-22.954-46.974L291.702,175.573z M425.128,133.303
	c11.826,0,19.524,5.13,26.059,11.666c4.954,4.953,10.189,19.801,11.684,26.645c2.176,9.966,2.967,20.288,3.416,28.793
	c0.224,4.253,0.925,16.242,1.31,17.701c-0.194-0.021-29.341-2.844-29.609-2.85c0,0,0.16-29.046,0.27-29.046
	c3.762,0,6.697-3.788,6.697-8.318c0-4.529-2.934-8.32-6.697-8.32c-0.231,0-2.253,2.406-2.112,3.502
	c0.551,4.32-0.305,7.023-0.711,7.667c-0.204,0.321-4.581-13.478-4.805-13.478c-0.184,0-4.009,6.851-4.009,6.851l-9.151-0.589
	c0,0-0.951-7.296-1.206-7.296c-0.174,0-4.388,6.717-4.388,6.717l-10.61-1.968c0,0-0.28-6.602-0.28-6.611
	c0-0.274-4.749,6.456-4.749,6.456l-6.073-0.817c0.006-7.21,2.169-17.557,2.043-17.651c2-5.148,5.815-9.827,9.228-12.508
	C408.123,134.596,416.913,133.303,425.128,133.303z"></path>
<path id="color_x5F_3" fill-rule="evenodd" clip-rule="evenodd" fill="#E84393" d="M393.106,456.842H220.634
	c0-0.029-0.29-17.166-0.386-22.888h172.858V456.842z M272.589,378.74c0.031,0.006,0.062,0.008,0.094,0.008h72.037
	c-0.004,0.025-0.005,0.051-0.004,0.076v53.796c-0.002,0.124,0.042,0.243,0.123,0.336h-77.66c0.037-0.071,0.055-0.151,0.055-0.232
	v-19.372c0.002-0.25,0.43-4.109,0.862-6.26C269.508,400.061,272.486,379.509,272.589,378.74z M248.473,377.75h-10.208l-9.2-17.04
	h22.27L248.473,377.75z M499.237,377.75H272.719c0.76-5.709,1.457-11.407,2.122-17.04H484.76c0.274,0,0.499-0.225,0.499-0.499
	v-51.509c4.059,0.181,8.096-1.13,11.314-3.77c4.244-3.482,6.529-8.834,6.12-14.329c-0.519-6.879-1.815-12.677-1.819-12.694
	c0-0.002-0.001-0.004-0.002-0.006c0-0.004-0.001-0.009-0.002-0.013c0,0-0.007-0.035-0.007-0.036
	c-0.002-0.005-0.004-0.01-0.006-0.015c-0.039-0.155-8.026-32.084-13.525-46.615c-0.501-1.324-1.197-2.662-2.073-3.952
	c0-0.005,0-0.011,0-0.016v-75.449c0-0.274-0.226-0.499-0.499-0.499h-28.066c-1.386-2.502-2.953-4.851-4.742-6.982
	c-3.768-4.489-8.507-8.013-14.423-10.056h61.708c2.272,0,4.106,1.83,4.106,4.104v235.275c0,1.088-0.432,2.13-1.204,2.9h-0.002
	C501.369,377.317,500.327,377.75,499.237,377.75z M118.299,134.269h291.895c-3.343,1.037-6.533,2.564-9.375,4.796
	c-3.612,2.838-6.629,6.807-8.692,12.241H133.389c-0.275,0-0.499,0.226-0.499,0.499v102.449c-0.002,0.12,0.04,0.237,0.117,0.329
	c-0.69,0.867-1.324,1.75-1.893,2.659c-4.028,6.444-5.054,13.943-4.718,23.374c0.375,10.513,3.761,18.483,6.703,23.504
	c-0.133,0.096-0.212,0.251-0.209,0.413v29.496l-18.183,0.38c-0.272,0.005-0.491,0.229-0.491,0.499c0,0.051,0.008,0.102,0.023,0.151
	c-0.011-0.027-0.024-0.053-0.039-0.078c0-0.007,0-0.015,0-0.022V138.373C114.199,136.098,116.031,134.269,118.299,134.269z
	 M423.266,304.224h-3.985v-13.568l3.985,0.88V304.224z M419.281,254.532l3.985,0.08v12.196l-0.819-0.119
	c-1.108-0.214-2.202-0.065-3.166,0.359V254.532z M406.317,217.312c0.001,0.003,0.003,0.007,0.005,0.01c0,0,2.428,3.677,5.915,7.358
	c2.596,2.741,5.772,5.523,9.069,6.769l-17.401,4.914l-3.206-18.715c1.807-0.109,3.81-0.234,5.269-0.316
	C406.109,217.324,406.179,217.32,406.317,217.312z M442.232,216.618c0.562,0.051,0.96,0.084,1.605,0.144
	c1.611,0.15,3.808,0.366,5.77,0.554l0.006,17.081l-20.758-3.254l0.002-0.002c2.959-1.36,5.726-3.932,7.994-6.463
	C440.151,220.997,442.381,216.707,442.232,216.618z"></path>
<path id="color_x5F_2" fill-rule="evenodd" clip-rule="evenodd" fill="#FBC02D" d="M106.765,451.312v6.078h66.603
	c0,0,1.164-2.539,1.493-4.001c0.329-1.462,0.696-2.803,0.696-2.803l-2.651-0.653c0,0-21.507,4.719-38.627,4.582
	C117.159,454.379,106.765,451.312,106.765,451.312z M219.637,456.842h-1.74c0.019-0.054,0.028-0.112,0.027-0.169
	c-1.847-8.578-10.645-12.56-10.682-12.55c-0.832-1.109-1.906-2.064-3.033-2.875c-2.224-1.599-4.214-2.445-5.462-2.926
	c0.426-0.123,2.26-1.405,2.417-1.779c0.28-0.663,0.237-1.502-0.238-2.407c-0.303-0.576-5.22-1.535-6.13-1.638
	c-1.819-0.206-9.18,1.352-14.091,1.225c-18.464-0.484-56.536-3.471-56.536-3.471l1.358-29.161c0.01-0.18,1.975-0.365,1.98-0.541
	c0.281-9.701,0.699-20.773,0.252-30.492c-0.447-9.719-1.706-18.079-5.037-22.479c-0.09-0.123-0.232-0.198-0.385-0.203
	c-0.005,0-0.011,0-0.017,0c-0.274,0-0.499,0.225-0.499,0.499c0,0.111,0.037,0.219,0.105,0.306c3.028,4,4.392,12.265,4.836,21.921
	c0.438,9.522,0.039,20.397-0.242,30.008l-35.152,0.062c0.408-12.215,2.968-27.052,6.97-39.473
	c2.029-6.296,4.425-11.968,7.077-16.353c2.653-4.385,6.118-8.125,9.087-9.299c0.255-0.095,28.752-0.241,28.752-0.241
	s0.045,7.575,0.148,7.671c5.251,4.868,10.483,7.43,15.68,7.469c5.198,0.039,10.289-2.456,15.223-7.487
	c0.091-0.093,0.142-7.974,0.142-7.974c0.579,0.034,24.558,1.452,36.791,2.174c3.602,0.213,6.427,3.177,6.488,6.815
	c0.265,15.751,0.589,34.984,1.025,60.783l-0.202,0.145c0.077,0.107,0.134,0.182,0.209,0.289L219.637,456.842z M218.728,343.666
	l21.997,40.743c-0.055,0.035-0.102,0.08-0.139,0.133l-17.555,24.259c-0.012,0.015-0.022,0.031-0.032,0.047
	c-0.984-1.324-2.077-2.846-3.249-4.489C219.316,378.622,218.995,359.501,218.728,343.666z M479.403,359.711H376.228
	c0.079-0.307,0.131-0.732,0.143-1.21c0.086-0.088,0.14-0.207,0.144-0.337l1.404-58.105l40.798,5.16
	c0.009,0.001,0.019,0.001,0.029,0.002c0.012,0.001,0.023,0.002,0.035,0.002h4.984c0.041,0,0.082-0.006,0.121-0.016l34.527-3.737
	c8.562,2.461,12.01,3.457,20.143,5.786L479.403,359.711z M450.606,217.412c1.672,0.161,3.088,0.293,4.826,0.464
	c4.177,0.41,8.346,0.831,11.561,1.171c1.607,0.169,2.974,0.319,3.983,0.436c0.504,0.059,0.92,0.109,1.227,0.15
	c0.308,0.041,0.53,0.08,0.556,0.086c7.009,1.703,11.778,6.935,13.639,11.857c5.453,14.412,13.504,46.557,13.504,46.557
	c0,0.002,0.001,0.005,0.002,0.008c0.013,0.06,1.283,5.767,1.795,12.537c0.385,5.172-1.765,10.208-5.757,13.482
	c-3.115,2.557-7.043,3.78-10.971,3.522c-0.069-0.032-0.144-0.048-0.219-0.047c-0.048,0.001-0.095,0.009-0.141,0.023
	c-0.986-0.088-1.97-0.267-2.939-0.546c0,0,0-0.001,0-0.002c-8.432-2.411-12.738-3.655-22.17-6.365
	c-0.072-0.216-0.283-0.357-0.509-0.341c-0.012,0-0.024,0.002-0.035,0.003l-0.456,0.049c-12.125-3.484-28.576-8.205-28.846-8.283
	l2.124-23.167l34.549,7.175c0.086,0.167,0.258,0.273,0.445,0.273c0.117,0,0.23-0.041,0.32-0.115l5.105,1.061
	c0.034,0.007,0.068,0.011,0.103,0.011c0.274,0,0.499-0.226,0.499-0.499c0-0.048-0.007-0.096-0.021-0.142
	c-0.704-2.395-2.861-7.726-5.255-13.723c-0.046-0.119-0.137-0.216-0.252-0.271v-13.312c0,0,0,0,0-0.001
	c0-0.274-0.226-0.499-0.499-0.499c-0.005,0-0.009,0-0.014,0.001c-0.013,0-0.026,0-0.039,0.002l-43.059,4.539
	c-0.103,0.007-0.2,0.046-0.28,0.111l-4.589-0.092c-0.017-0.001-0.034-0.001-0.051,0c-0.1,0.008-0.195,0.046-0.273,0.109
	l-42.695-4.665c-0.016-0.003-0.033-0.004-0.05-0.004c-0.002,0-0.003,0-0.004,0c-0.275,0-0.499,0.225-0.499,0.499v39.334
	c-0.043,0.041-0.078,0.09-0.104,0.143c-2.381,4.889-6.168,9.106-11.316,14.206c-1.41,1.396-3.044,1.639-5.064,0.999
	c-2.021-0.64-4.366-2.231-6.852-4.507c-4.971-4.55-10.517-11.809-15.678-19.451c-10.177-15.071-18.794-31.486-19.035-31.945
	l2.624-1.514c0.007,0.047,0.022,0.092,0.043,0.135l7.375,14.996c0.084,0.171,0.259,0.281,0.449,0.281
	c0.077,0,0.153-0.018,0.222-0.053l5.351-2.653c0.244-0.122,0.346-0.421,0.226-0.667l-7.832-16.029
	c-0.006-0.014-0.013-0.029-0.021-0.043c0.829-1.261,1.122-2.829,0.772-4.321c0.141-0.012,0.27-0.083,0.356-0.195l4.562-5.987
	c0.369,0.58,5.791,9.148,11.732,17.905c3.069,4.525,6.176,8.949,8.604,12.052c1.213,1.551,2.249,2.77,3.058,3.529
	c0.405,0.38,0.737,0.649,1.099,0.796c0.181,0.073,0.392,0.125,0.631,0.053c0.241-0.073,0.429-0.293,0.503-0.494
	c4.481-12.243,10.047-24.125,14.775-32.928c2.364-4.402,4.52-8.036,6.217-10.552c0.848-1.257,1.582-2.238,2.157-2.882
	c0.288-0.323,0.537-0.561,0.722-0.703c0.184-0.14,0.308-0.152,0.242-0.154c0.231,0.004,0.743-0.024,1.615-0.072
	c0.872-0.048,2.053-0.117,3.439-0.201c2.773-0.168,6.368-0.392,9.957-0.613c1.319-0.081,2.368-0.141,3.645-0.218l3.318,19.368
	c0.041,0.239,0.25,0.415,0.492,0.415c0.046,0,0.092-0.007,0.136-0.019l18.99-5.36c0.11-0.032,0.206-0.1,0.272-0.194
	c0.608,0.13,1.217,0.207,1.826,0.207c0.794,0,1.583-0.125,2.364-0.342c0.074,0.072,0.168,0.119,0.27,0.135l22.671,3.555
	c0.026,0.004,0.052,0.006,0.078,0.006c0.274,0,0.499-0.226,0.499-0.499l0,0L450.606,217.412z M467.274,265.123
	c1.916,4.81,3.539,8.932,4.237,11.113l-4.237-0.88V265.123z M279.412,225.727H163.879v-8.907h115.534V225.727z M279.412,201.755
	H163.879v-8.905h115.534V201.755z M280.106,177.714H164.573v-8.905h115.533V177.714z"></path>
<path id="color_x5F_1" fill-rule="evenodd" clip-rule="evenodd" fill="#0984E3" d="M475.901,470.976H92.526
	c-1.33,0-2.554-0.414-3.483-1.138c-0.928-0.723-1.572-1.801-1.572-3.019v-6.318c0-1.22,0.644-2.299,1.572-3.022
	c0.929-0.723,2.153-1.136,3.483-1.136h13.422c-0.029-1.445-0.027-2.892,0.004-4.339c-4.644-1.385-8.754-3.336-11.988-6.018
	c-1.933-1.603-3.076-4.205-3.807-7.395s-0.389-37.972-0.299-38.236c0.389-12.429,2.978-27.463,7.053-40.113
	c2.054-6.374,4.481-12.139,7.222-16.672c2.555-4.224,5.378-7.393,8.568-8.92V138.373c0-3.083,2.52-5.602,5.598-5.602h294.578
	c0.186-0.003,0.37,0.046,0.528,0.142c3.89-0.83,7.887-1.108,11.723-1.108c3.257,0,6.264,0.353,9.053,0.997
	c0.084-0.022,0.171-0.032,0.258-0.031h64.798c3.081,0,5.604,2.519,5.604,5.602v235.275c0,1.483-0.59,2.909-1.642,3.959l-0.002,0.002
	c-1.049,1.05-2.474,1.639-3.96,1.639H346.214v53.208h47.391c0.548,0,0.999,0.451,0.999,0.999v22.888h81.297
	c1.33,0,2.552,0.413,3.481,1.136c0.928,0.723,1.572,1.803,1.572,3.022v6.318c0,1.219-0.644,2.296-1.572,3.019
	C478.454,470.562,477.232,470.976,475.901,470.976z M475.901,458.341H92.526c-0.909,0-1.716,0.294-2.255,0.714
	c-0.54,0.42-0.802,0.921-0.802,1.446v6.318c0,0.524,0.262,1.023,0.802,1.443s1.346,0.716,2.255,0.716h383.375
	c0.909,0,1.714-0.296,2.253-0.716c0.54-0.42,0.802-0.919,0.802-1.443v-6.318c0-0.525-0.262-1.026-0.802-1.446
	C477.615,458.634,476.81,458.341,475.901,458.341z M173.141,456.343c0.068-1.661,0.645-3.333,1.613-4.931
	c-0.287-0.089-1.23-0.489-1.354-0.737c-1.108,0.229-15.04,3.063-31.664,4.022c-11.432,0.659-23.994,0.468-34.248-2.259
	c0.023,1.301,0.021,2.604-0.004,3.905H173.141z M216.407,456.343c-0.183-3.114-2.93-6.92-7.333-9.659
	c0.402,1.532,0.322,3.258-0.487,5.038c-0.592,1.303-1.692,2.242-3.018,2.859c-1.326,0.616-2.896,0.945-4.624,1.098
	c-3.457,0.307-7.564-0.105-11.541-0.772c-5.125-0.859-9.809-2.104-12.653-2.918c-0.99,1.49-1.535,2.987-1.611,4.356H216.407z
	 M392.607,434.454h-171.85c0.091,5.375,0.367,21.722,0.37,21.889h171.48V434.454z M219.129,456.343
	c-0.007-0.417-0.5-29.727-0.868-51.483c-0.043-0.062-0.077-0.105-0.121-0.166l0.115-0.082c-0.436-25.881-0.763-45.289-1.03-61.13
	c-0.056-3.382-2.675-6.127-6.018-6.324c-12.058-0.712-35.024-2.068-36.263-2.141v7.094c0,0.262-0.102,0.512-0.285,0.699
	c-4.994,5.094-10.224,7.678-15.583,7.637c-5.358-0.04-10.708-2.683-16.016-7.604c-0.204-0.19-0.32-0.455-0.32-0.734l0.012-6.79
	c0,0-28.463,0.801-28.622,0.86c-2.799,1.107-5.667,4.09-8.29,8.425c-2.623,4.336-5.009,9.98-7.028,16.25
	c-3.929,12.198-6.462,26.757-6.922,38.82l34.142-0.06c0.28-9.497,0.658-20.151,0.228-29.488c-0.443-9.623-1.858-17.842-4.734-21.642
	c-0.138-0.176-0.212-0.392-0.212-0.615c0-0.547,0.45-0.999,0.999-0.999c0.012,0,0.025,0,0.038,0.001
	c0.304,0.012,0.586,0.162,0.767,0.408c3.482,4.6,4.688,13.004,5.138,22.755c0.449,9.751,0.027,20.834-0.254,30.532
	c0.003,0.426-0.269,0.81-0.673,0.95c-0.135,0.063-1.359,0.096-1.359,0.096l-1.281,28.169l57.201,3.244
	c0.073,0.004,13.275-1.365,15.15-1.154c0.938,0.107,1.788,0.278,2.529,0.574c0.74,0.296,1.415,0.733,1.796,1.459
	c0.524,0.998,0.598,2.024,0.258,2.833c-0.328,0.779-0.945,1.266-1.543,1.617c1.289,0.583,2.887,1.386,4.421,2.489
	c1.086,0.781,2.132,1.698,2.978,2.77c0.117,0.013,10.595,4.339,10.927,12.73H219.129z M123.972,401.616l-1.322,29.06
	c-0.025,0.544,0.399,1.014,0.942,1.044l58.187,3.301c0.179,0.01,13.387-1.349,15.039-1.163c0.826,0.093,1.527,0.25,2.011,0.442
	c0.484,0.194,0.599,2.154,0.209,2.376c-0.78,0.443-1.873,0.622-1.873,0.622c-0.489,0.07-0.858,0.494-0.858,0.989
	c0,0.429,0.277,0.813,0.684,0.949c0,0,3.436,1.137,6.344,3.228c1.454,1.046,2.747,2.322,3.432,3.714
	c0.684,1.392,0.841,2.865,0,4.716c-0.363,0.797-1.02,1.399-2.039,1.873c-1.02,0.473-2.383,0.781-3.96,0.921
	c-3.156,0.28-7.15-0.101-11.036-0.753c-12.016-2.015-15.844-4.41-16.332-4.295c0,0-14.639,3.072-31.779,4.061
	s-36.743-0.258-46.383-8.252c-1.394-1.156-2.453-3.334-3.133-6.302c-0.68-2.969-0.547-28.005-0.199-36.476L123.972,401.616z
	 M265.736,432.456v-14.433c-0.103,0.252-1.001,2.084-1.571,2.511c-5.946,4.448-13.576,5.943-20.746,4.063
	c-6.125-1.605-9.885-2.878-13.392-5.649c-2.975-2.35-5.78-5.826-9.721-11.259c0.173,10.224,0.308,18.261,0.417,24.768H265.736z
	 M344.216,379.248h-71.194c-0.084,0.622-0.164,1.256-0.249,1.875c-1.338,9.785-2.772,19.018-4.188,26.066
	c-0.331,1.644-0.849,5.869-0.852,6.163v19.105h76.483V379.248z M268.324,297.37c0.317,0.023,12.054,3.299,12.054,3.299
	c2.54,0.716,4.02,3.357,3.306,5.925c-0.001,0.004-0.002,0.009-0.004,0.013c0,0-4.223,14.887-4.96,17.106
	c-0.737,2.22-1.45,4.061-1.858,4.772c-0.071,0.124-0.115,0.263-0.129,0.405c-0.97,10.68-3.266,32.436-5.938,51.96
	c-1.336,9.763-2.768,18.973-4.169,25.945c-0.7,3.487-1.395,6.416-2.055,8.553c-0.331,1.068-1.549,3.546-1.602,3.585
	c-5.461,4.086-12.464,5.457-19.045,3.732c-6.069-1.591-9.461-2.757-12.661-5.285c-2.154-1.703-4.279-4.107-7.013-7.708
	l16.923-23.384l4.249,7.869c0.174,0.322,0.512,0.522,0.878,0.522c0.485,0,0.903-0.353,0.985-0.831l11.584-68.924
	c0.024-0.15,0.014-0.305-0.03-0.45c-0.98-3.298-6.285-18.944-6.285-18.944c-0.006-0.019,0.02-1.558,0.718-1.847l4.351-1.799
	c0.698-0.289,3.278,3.804,3.682,3.804c0.446,0,2.099-4.821,2.099-4.821h-0.002C264.027,298.624,266.111,297.21,268.324,297.37z
	 M219.26,345.705l20.86,38.633l-17.121,23.658c-0.847-1.147-1.768-2.424-2.751-3.801C219.83,379.362,219.534,361.953,219.26,345.705
	z M239.641,379.248h8.072l-1.916,11.402L239.641,379.248z M250.746,361.209h-20.844l8.661,16.041h9.484L250.746,361.209z
	 M275.284,361.209c-0.628,5.31-1.284,10.66-1.998,16.041h225.95c0.959,0,1.873-0.378,2.548-1.054c0,0,0.001-0.001,0.001-0.002
	c0.678-0.676,1.058-1.591,1.058-2.547v-78.112c-0.817,3.797-2.884,7.264-5.952,9.781c-3.175,2.606-7.128,3.948-11.132,3.893v51
	c0,0.548-0.451,0.999-0.999,0.999H275.284z M483.762,359.211v-50.146c-0.84-0.11-3.227-0.723-3.692-0.856l0.822,51.002H483.762z
	 M391.069,152.804H134.388v99.42c4.26-4.512,10.386-8.515,18.983-12.434c4.398-2.006,9.025-3.039,13.643-3.285
	c7.697-0.408,15.369,1.37,21.92,4.487c10.481,4.986,18.265,13.417,18.453,22.258c0.178,8.398-1.523,12.596-3.514,14.723
	c-0.995,1.063-3.105,1.842-3.219,1.863c-0.016,7.133-0.212,12.993-0.212,22.773c0,6.275-1.498,11.466-4.967,16.689
	c-6.136,9.233-17.615,8.002-20.53,7.537v6.182c1.096,0.065,24.283,1.433,36.38,2.147c2.558,0.152,4.793,1.458,6.228,3.393
	l0.092-0.051l11.178,20.705h22.258l5.776-34.372c-0.973-3.227-5.982-18.031-6.189-18.644c-0.669-1.699,0.149-3.656,1.839-4.355
	h0.002l4.351-1.801c1.627-0.673,3.474,0.086,4.245,1.643l0.375-1.346c0.752-2.702,3.048-4.575,5.663-4.916
	c0.871-0.113,13.778,3.326,13.778,3.326c3.587,1.012,5.69,4.781,4.687,8.385c-0.003,0.013-4.241,14.953-4.992,17.213
	c-0.707,2.129-1.323,3.753-1.904,4.836c-0.613,6.743-1.777,17.916-3.193,30.031h99.526c0-0.26,1.37-58.84,1.37-58.84l-0.819-0.103
	c-0.497-0.063-0.874-0.49-0.874-0.991v-6.594c-2.448,3.874-5.754,7.451-9.867,11.525c-1.784,1.766-4.195,2.116-6.57,1.363
	c-2.375-0.752-4.836-2.473-7.409-4.828c-5.146-4.71-10.716-12.028-15.909-19.718c-9.795-14.506-17.935-29.845-18.858-31.597
	l-0.782,0.451c-2.865,1.651-6.552,0.649-8.185-2.226l-6.326-11.13c-1.634-2.876-0.631-6.57,2.233-8.221l5.63-3.244l-23-47.064
	c-0.24-0.49-0.035-1.093,0.454-1.334l5.351-2.651c0.143-0.071,0.301-0.107,0.46-0.104c0.376,0.006,0.716,0.223,0.882,0.56
	l22.972,47.015c0,0,4.498-3.328,5.367-3.256c0.868,0.073,1.711,0.474,2.311,1.189c0.006,0.007,0.012,0.014,0.018,0.021
	c0,0,9.11,11.756,9.084,11.989c0.595,0.938,23.21,33.216,23.279,33.273c4.454-12.023,19.077-40.399,20.819-42.982
	c0.87-1.29,2.906-3.703,3.213-3.938c0.307-0.235,0.613-0.472,1.18-0.462c-0.02,0,28.952-1.69,29.214-1.697l0.028-7.722h-1.23
	c-5.533,0-10.842-2.213-14.753-6.152c-2.065-2.079-3.537-5.283-4.553-8.655c-1.017-3.373-1.555-6.911-1.555-9.695
	c0-7.524,0.332-13.025,0.332-13.025C388.561,170.225,389.542,157.482,391.069,152.804z M423.976,305.698
	c-0.069,0.016-5.195,0.024-5.195,0.024c-0.036,0-0.072-0.002-0.107-0.006c-0.007-0.001-0.013-0.001-0.02-0.002l-40.25-5.092
	c0,0-1.41,58.289-1.41,58.589h101.902l-0.833-51.577c-8.004-2.292-11.315-3.249-19.697-5.657L423.976,305.698z M183.156,274.582
	c0.111,0.642,0.153,1.267,0.546,1.977c1.177,2.121,4.018,3.958,9.542,3.468c2.538-0.225,4.242-1.67,5.417-3.136
	c0,0-0.218,15.585-0.218,25.719c0,5.966-1.351,10.641-4.633,15.582c-6.184,9.308-19.795,6.502-19.865,6.502
	c-0.547,0-0.999,0.45-0.999,0.999v15.973c-4.648,4.641-9.237,6.82-13.854,6.785c-4.612-0.035-9.391-2.297-14.354-6.808l0.063-36.433
	c0,0,0-0.001,0-0.002c0-0.547-1.683-0.919-1.948-0.919c-3.264,0-6.153-3.473-6.153-8.025c0-2.431,0.252-4.302,0.821-5.397
	c0.531-1.022,1.263-1.471,2.744-1.533c0.096,0.088,3.972,4.103,4.453,4.182c0.515,0.094,1.02-0.232,1.148-0.739
	c0.072-0.154-0.268-11.176-0.268-11.176c2.134,1.922,6.204,3.471,14.048,2.963C171.955,283.767,180.035,277.479,183.156,274.582z
	 M407.306,134.768H118.299c-1.999,0-3.601,1.6-3.601,3.605V333.91l17.691-0.371c0,0,0.035-29.328,0.109-29.473
	c-2.934-5.1-6.232-13.036-6.603-23.432c-0.338-9.476,0.694-17.096,4.795-23.655c0.525-0.842,1.698-2.638,1.699-2.724V151.805
	c0-0.547,0.45-0.999,0.999-0.999h258.395c2.091-5.354,5.116-9.298,8.727-12.135C402.617,137.016,404.91,135.746,407.306,134.768z
	 M134.388,307.076c1.596,2.322,2.784,3.559,2.784,3.559c0.017,0.017,0.034,0.033,0.053,0.049l5.563,4.931l-0.029,17.707
	l-8.371,0.175V307.076z M186.961,307.317c0.547,0.001,0.998,0.451,0.998,1c0,0.062-0.006,0.124-0.017,0.185
	c-0.766,4.062-4.828,7.001-9.574,7.001c-4.745,0-8.806-2.939-9.572-7.001c-0.012-0.061-0.017-0.123-0.017-0.185
	c0-0.548,0.45-0.999,0.998-1H186.961z M171.253,309.315h14.231c-1.075,2.369-3.751,4.191-7.116,4.191
	C175.003,313.506,172.326,311.684,171.253,309.315z M143.471,277.309c0.001-0.005-0.013-0.095-0.013-0.095
	c0.03-0.525,0.47-0.941,0.997-0.941c0.536,0,1.003,1.101,1.003,1.101c-0.002,0.023,0.619,1.971,1.398,2.692
	c1.558,1.443,5.029,2.996,12.663,2.503c15.17-0.981,24.124-11.155,24.413-11.155c0.548,0,0.999,0.45,0.999,0.999
	c0,0.059-0.271,1.753,0.519,3.177c0.789,1.424,2.558,2.897,7.62,2.448c4.018-0.357,5.69-5.224,5.69-5.224
	c0.133-0.411,0.518-0.691,0.95-0.691c0.548,0,0.999,0.451,0.999,0.999c0,0.006,0,0.011,0,0.016l-0.058,4.593
	c0.488-0.153,1.092-0.406,1.763-1.124c1.473-1.573,3.147-5.204,2.975-13.316c-0.163-7.669-7.281-15.723-17.313-20.494
	c-5.643-2.685-12.154-4.322-18.741-4.343c-5.123-0.016-10.292,0.946-15.136,3.154c-11.306,5.155-18.001,10.328-21.813,16.428
	c-3.812,6.099-4.826,13.231-4.495,22.525c0.655,18.382,10.656,28.62,10.696,28.661l4.204,3.725l0.012-6.675
	c-4.601-0.038-8.098-4.622-8.098-10.01c0-2.549,0.188-4.67,1.046-6.32c0.858-1.65,2.553-2.661,4.779-2.661
	c0.561,0,3.2,2.719,3.361,2.886l-0.432-12.859H143.471z M430.19,291.805c0.526,0.152,53.482,15.297,53.596,15.338
	c3.769,0.225,8.848-0.916,11.839-3.37c3.865-3.172,5.948-8.048,5.575-13.059c-0.507-6.722-9.851-44.648-15.267-58.961
	c-1.804-4.769-6.457-9.889-13.29-11.548c0.037,0.009-20.043-2.099-21.537-2.243l0.006,17.018c0,0.548-0.45,0.999-0.999,0.999
	c-0.052,0-0.104-0.004-0.156-0.012c0,0-22.87-3.595-22.962-3.637c-0.745,0.185-1.499,0.295-2.265,0.295
	c-0.558,0-1.115-0.058-1.666-0.158c-0.091,0.057-19.287,5.487-19.287,5.487c-0.088,0.025-0.179,0.037-0.27,0.037
	c-0.485,0-0.904-0.353-0.985-0.831l-3.244-18.928c-1.128,0.069-17.749,1.07-18.06,1.071c-0.007,0.001-2.044,2.28-2.885,3.528
	c-1.682,2.494-16.468,31.157-20.938,43.372c-0.11,0.302-0.426,0.68-0.827,0.8c-0.401,0.121-1.792-0.565-2.216-0.964
	c-0.849-0.797-22.384-31.882-23.083-32.985l-4.134,5.425c-0.053,0.073-0.243,3.03-0.956,4.241l7.733,15.826
	c0.24,0.49,0.036,1.09-0.452,1.332l-5.352,2.654c-0.138,0.068-0.29,0.104-0.443,0.104c-0.381,0-0.729-0.218-0.897-0.559l-7.2-14.64
	l-1.726,0.993c0.826,1.569,9.003,16.996,18.781,31.478c5.15,7.627,10.69,14.864,15.602,19.361c2.457,2.248,4.762,3.796,6.664,4.399
	c1.902,0.603,3.277,0.396,4.563-0.878c5.138-5.089,8.878-9.266,11.218-14.069c0.016-0.032,0.033-0.063,0.053-0.093v-39.165
	c0-0.548,0.45-0.999,0.999-0.999c0.002,0,0.005,0,0.008,0c0.033,0,0.066,0.002,0.099,0.005l42.53,4.649
	c0.139-0.065,5.121-0.1,5.252-0.11c0,0,43.155-4.545,43.165-4.545c0.547,0,0.999,0.451,0.999,0.999v13.059
	c0.094,0.097,5.528,14.295,5.528,14.39c0,0.547-0.451,0.999-0.999,0.999c-0.069,0-40.076-8.302-40.076-8.302L430.19,291.805z
	 M250.668,306.195c0.005,0.012-0.006-0.02-0.006-0.02L250.668,306.195z M422.767,303.725v-11.787l-2.986-0.659v12.446H422.767z
	 M424.764,292.378c0,0,18.962,5.39,28.522,8.139l-28.522,3.088V292.378z M376.72,250.576l41.063,4.489v12.315
	c-1.077,0.854-1.868,2.079-2.143,3.531l-2.474,12.998c-0.605,3.18,1.464,6.28,4.617,6.926v12.756l-41.063-5.193V250.576z
	 M421.375,268.088c0.259-0.003,8.872,1.248,8.872,1.248l-1.998,21.767l-9.998-2.208c-0.009-0.002-0.018-0.004-0.028-0.006
	c-2.119-0.409-3.504-2.459-3.095-4.605l2.473-12.998C417.959,269.407,419.56,268.109,421.375,268.088z M440.135,134.768h59.102
	c2.003,0,3.607,1.6,3.607,3.605V287.01c-0.589-5.117-9.524-41.375-15.044-55.963v-0.002c-0.498-1.317-1.184-2.645-2.041-3.926
	v-75.313c0-0.547-0.451-0.999-0.999-0.999h-27.773c-1.364-2.429-2.902-4.717-4.652-6.802
	C449.051,140.094,445.018,136.908,440.135,134.768z M467.773,267.762c1.256,3.2,2.332,5.998,2.943,7.798l-2.943-0.61V267.762z
	 M465.776,250.572v23.963l-41.011-8.013v-11.627L465.776,250.572z M422.511,266.194l0.256,0.037v-11.129l-2.986-0.06v11.298
	C420.642,266.084,421.572,266.017,422.511,266.194z M422.511,266.194l-0.015-0.002l0.045,0.007
	C422.531,266.198,422.521,266.196,422.511,266.194z M324.755,244.357l6.928,14.175l-3.566,1.765l-6.817-13.858l2.71-1.562
	C324.277,244.722,324.521,244.545,324.755,244.357z M314.241,224.52c0.194-0.024,3.219,0.722,3.94,1.992l6.326,11.131
	c1.1,1.935,0.431,4.392-1.496,5.502l-8.682,5.004c-1.928,1.112-4.351,0.452-5.45-1.482l-6.326-11.131
	c-1.1-1.935-0.431-4.39,1.496-5.501C304.048,230.034,313.725,224.584,314.241,224.52z M321.003,220.201
	c0.352,0.03,0.692,0.199,0.946,0.499c0.016,0.02,7.981,10.092,8.257,10.454l-4.059,5.328l-6.226-10.958
	c-0.666-1.173-1.679-2.02-2.833-2.517C317.087,223.008,320.65,220.171,321.003,220.201z M406.063,217.825
	c0.389,0.576,2.606,3.812,5.813,7.198c2.282,2.409,5.006,4.881,7.935,6.328l-15.508,4.378l-3.02-17.618
	c1.593-0.096,3.408-0.209,4.711-0.283C406.022,217.827,406.035,217.826,406.063,217.825z M442.816,217.581
	c0.074-0.122,4.502,0.017,6.291,0.189l0.006,16.041l-18.676-2.926c2.531-1.481,4.841-3.704,6.787-5.874
	C440.559,221.291,442.816,217.581,442.816,217.581z M279.912,227.226H163.379c-0.547,0-0.999-0.45-0.999-0.999v-9.906
	c0-0.548,0.451-0.999,0.999-0.999h116.532c0.548,0,0.999,0.45,0.999,0.999v9.906C280.91,226.775,280.46,227.226,279.912,227.226z
	 M278.913,217.32H164.378v7.908h114.535V217.32z M458.054,152.804h25.708v71.78c-2.624-2.867-6.212-5.242-10.649-6.32
	c-0.215-0.052-3.347-0.421-4.058-0.499c-0.317-1.19-1.048-13.168-1.271-17.436c-0.449-8.535-1.243-18.932-3.45-29.035
	C462.921,164.824,460.925,158.472,458.054,152.804z M291.474,176.245c0,0,22.553,46.297,22.518,46.301
	c-0.774,0.094-3.578,1.514-3.578,1.514l-22.502-46.049L291.474,176.245z M425.128,133.802c11.695,0,19.812,4.503,25.676,11.486
	c5.625,6.701,10.104,19.687,11.577,26.433c2.166,9.92,2.959,20.217,3.407,28.713c0.223,4.248,0.863,15.606,1.165,17.102
	c-3.197-0.337-27.953-2.261-28.31-2.284l-0.209-28.583c4.009-0.122,7.02-4.103,7.02-8.774c0-4.744-3.092-8.819-7.196-8.819
	c-0.455,0-1.431,0.806-1.701,1.128c-0.54,0.643-1.069,1.675-0.907,2.936c0.545,4.277,0.101,6.16-0.166,6.581
	c-0.134,0.212-3.892-12.219-3.892-12.219c-0.118-0.432-0.514-0.735-0.963-0.735c-0.367,0-0.704,0.201-0.879,0.522l-3.417,6.309
	l-8.412-0.54l-0.663-6.43c-0.053-0.506-0.484-0.897-0.994-0.897c-0.348,0-4.636,6.664-4.636,6.664l-9.84-1.825
	c0,0,0.338-6.383,0.338-6.4c0-0.539-0.437-0.987-0.977-0.999c-0.348-0.008-0.674,0.165-0.863,0.456l-4.297,6.662l-5.32-0.718
	c0.043-6.82,0.949-12.348,2.504-16.823c1.344-3.868,5.293-9.928,8.572-12.505C408.297,135.097,416.965,133.802,425.128,133.802z
	 M279.912,203.253H163.379c-0.547,0-0.999-0.45-0.999-0.999v-9.904c0-0.548,0.451-0.999,0.999-0.999h116.532
	c0.548,0,0.999,0.45,0.999,0.999v9.904C280.91,202.802,280.46,203.253,279.912,203.253z M278.913,193.349H164.378v7.906h114.535
	V193.349z M411.111,192.582c-0.481,0.006-0.894,0.36-0.973,0.835c-0.235,1.208-1.648,2.333-3.518,2.333
	c-1.868,0-3.282-1.126-3.517-2.333c-0.085-0.476-0.505-0.826-0.989-0.823c-0.546,0.004-0.993,0.453-0.993,0.999
	c0,0.069,0.007,0.138,0.021,0.205c0.457,2.353,2.81,3.95,5.477,3.95c2.669,0,5.021-1.597,5.478-3.95
	c0.015-0.071,0.023-0.144,0.023-0.217c0-0.547-0.45-0.999-0.999-0.999C411.119,192.582,411.115,192.582,411.111,192.582z
	 M280.606,179.212H164.073c-0.547,0-0.999-0.451-0.999-0.999v-9.904c0-0.548,0.451-0.999,0.999-0.999h116.532
	c0.548,0,0.999,0.45,0.999,0.999v9.904C281.604,178.761,281.154,179.212,280.606,179.212z M279.607,169.308H165.072v7.906h114.535
	V169.308z M411.445,217.437c-0.2,0.14-2.735,0.25-3.017,0.264c0.961,1.334,2.668,3.595,4.898,5.95
	c3.384,3.573,7.807,6.978,11.404,6.978c3.599,0,7.812-3.388,11.007-6.951c2.607-2.908,4.466-5.713,5.087-6.685
	c-0.316-0.028-3.111-0.013-3.334-0.013c-0.547,0-0.999-0.451-0.999-0.999c0-0.005,0-0.01,0-0.014l-0.054-30.321
	c0-0.547,0.45-0.999,0.999-0.999c0.055,0,0.601,0.068,0.823,0.068c2.74,0,5.199-2.933,5.199-6.82c0-3.784-2.338-6.617-4.99-6.767
	c-0.114,0.09-0.248,0.205-0.379,0.361c-0.303,0.361-0.533,0.796-0.456,1.397c0,0,0,0.001,0,0.002c0.568,4.45,0.368,6.594-0.46,7.9
	c-0.413,0.653-1.124,1.005-1.726,1.05c-1.411,0.105-2.431-2.504-2.64-3.127c-0.418-1.248-2.138-7.12-2.468-8.309
	c0,0-3.107,5.254-3.496,5.229l-9.89-0.634c-0.485-0.031-0.881-0.412-0.931-0.895l-0.446-4.328l-2.6,4.249
	c-0.216,0.353-0.628,0.536-1.035,0.46l-11.378-2.108c-0.491-0.091-0.842-0.537-0.816-1.036l0.184-3.475l-2.606,4.04
	c-0.21,0.326-0.59,0.5-0.974,0.449l-5.831-0.787c-0.046,0.812-0.301,4.984-0.301,11.826c0,2.522,0.508,5.932,1.469,9.118
	s2.398,6.153,4.058,7.824c3.539,3.564,8.336,5.563,13.337,5.563h2.231c0.548,0,0.999,0.451,0.999,1c0,0.001,0,0.002,0,0.003
	l-0.035,9.541C412.283,216.931,411.927,217.356,411.445,217.437z"></path>
</svg>