<?xml version="1.0" encoding="UTF-8"?>
<!DOCTYPE svg PUBLIC "-//W3C//DTD SVG 1.1//EN" "http://www.w3.org/Graphics/SVG/1.1/DTD/svg11.dtd">
<svg version="1.1" id="Layer_1" xmlns="http://www.w3.org/2000/svg" xmlns:xlink="http://www.w3.org/1999/xlink" x="0px" y="0px" width="595.279px" height="595.281px" viewBox="0 0 595.279 595.281" enable-background="new 0 0 595.279 595.281" xml:space="preserve">
<path id="color_x5F_2" fill="#2aafe8" d="M347.738,317.514c-10.873,0-21.747,0-32.62,0c-0.053,0-0.108,0.006-0.165,0.014
	c-1.317-5.267-2.357-10.553-1.96-15.904c0.019-0.248,0.049-0.481,0.082-0.714c0.021-0.065,0.03-0.134,0.029-0.204
	c0.822-4.937,5.111-6.308,9.826-6.463c2.592,0.079,5.396,0.27,8.111,0.505c0.475,0.053,0.933,0.104,1.367,0.149
	c4.051,0.421,8.228,0.716,11.947,2.512c4.723,2.279,4.493,7.161,3.212,11.487c-0.053,0.179-0.041,0.323,0.016,0.443
	C347.593,312.084,347.642,314.807,347.738,317.514z M287.96,235.529c-0.035-0.097-0.061-0.2-0.061-0.321c0-13.987,0-27.974,0-41.959
	c-18.124,2.58-31.597,17.609-31.908,35.921c5.212,4.002,12.691,4.903,19.024,5.558C279.322,235.173,283.639,235.404,287.96,235.529z
	 M300.234,235.588c-0.05-0.111-0.084-0.233-0.084-0.38c0-16.113,0-32.228,0-48.34c-3.104,0-6.211,0-9.315,0
	c0,16.037,0,32.074,0,48.11c0,0.24-0.104,0.451-0.27,0.625c1.843,0.034,3.685,0.052,5.526,0.054
	C297.473,235.658,298.854,235.632,300.234,235.588z M306.262,247.602l1.629-0.452c-1.222,0.136-2.448,0.243-3.681,0.31
	C305.509,247.551,306.262,247.602,306.262,247.602z M329.31,234.366c-11.674,2.08-23.504,3.602-35.366,3.519
	c-7.494-0.053-15.058-0.218-22.488-1.263c-4.217-0.594-8.81-1.298-12.881-2.984c0.486,0.623,1.005,1.212,1.55,1.773
	c1.183,1.063,2.513,2.184,3.956,3.281c1.867,1.253,3.906,2.293,6.058,3.151c0.515-0.037,0.977,0.087,1.129,0.429
	c6.7,2.444,14.297,3.275,20.842,3.583c6.576,0.311,13.558,0.661,20.039-0.64C319.311,243.779,324.579,239.59,329.31,234.366z
	 M266.031,202.334c-2.46,1.819-4.573,3.913-5.788,6.246C261.929,206.293,263.874,204.203,266.031,202.334z M324.699,206.127
	c-5.299-7.17-13.066-10.938-21.614-12.528c0,13.794,0,27.587,0,41.38c0,0.179-0.063,0.34-0.159,0.482
	c9.303-0.479,18.597-1.861,27.736-3.541C331.156,223.104,330.079,213.406,324.699,206.127z M354.567,407.84
	c-0.067,0.08-0.089,0.152-0.057,0.217c-0.432,1.673-0.887,3.341-1.383,4.995c-0.356,0.089-0.713,0.178-1.069,0.265l-6.594,1.05
	c-0.345,0.01-0.689,0.021-1.034,0.01c-0.081-0.004-0.172,0.007-0.265,0.021c0.429-1.018,0.799-2.068,1.034-3.179
	c0.187-0.879,0.1-1.705-0.161-2.481c0.16-0.165,0.271-0.356,0.297-0.579c0.615-5.419-3.522-10.4-8.198-12.6
	c-0.871-0.41-1.929-0.682-2.967-0.688c-0.134-0.13-0.208-0.201-0.208-0.201v-0.749c1.938-4.355,3.21-8.99,3.571-14.138
	c0.753-10.72-2.285-21.608-9.275-29.842c-2.702-3.183-5.955-5.67-9.536-7.545c0.244-1.939,0.286-3.873,0.176-5.802l0.772-2.909
	c9.771,0,19.542,0,29.313,0c1.044,8.385,2.765,16.67,5.474,24.954C359.712,374.712,358.712,391.675,354.567,407.84z M342.097,361.54
	c2.728-2.728,5.452-5.453,8.178-8.181c1.265-1.264-1.56-1.561-2.391-0.729c-2.728,2.727-5.452,5.453-8.178,8.18
	C338.442,362.074,341.266,362.372,342.097,361.54z M349.499,396.534c-2.517-2.517-5.033-5.032-7.55-7.55
	c-0.555-0.554-3.222,0.51-2.726,1.006c2.518,2.518,5.033,5.033,7.55,7.551C347.328,398.095,349.995,397.03,349.499,396.534z
	 M352.848,375.671c-3.564,0-7.131,0-10.695,0c-0.699,0-1.455,0.166-2.05,0.549c-0.446,0.288-0.396,0.659,0.177,0.659
	c3.565,0,7.132,0,10.695,0c0.7,0,1.455-0.166,2.05-0.55C353.472,376.042,353.421,375.671,352.848,375.671z M227.048,375.688
	c-0.555,2.842-0.338,6.759,0.274,10.962C227.006,382.997,226.903,379.332,227.048,375.688z M273.584,335.793
	c-0.354,3.175-0.576,6.362-0.521,9.58c0.006,0.311,0.127,0.542,0.314,0.707c-8.571,6.352-14.139,16.267-14.988,28.646
	c-0.738,10.756,2.6,20.107,8.059,28.9c-0.644-0.126-1.313-0.183-1.951-0.192c0.213-0.243,0.299-0.546,0.155-0.882
	c-1.229-2.883-3.661-5.263-6.982-4.005c-3.114,1.179-4.174,4.79-3.938,7.822c0.016,0.185,0.07,0.339,0.151,0.471
	c-1.453,1.259-2.427,2.873-2.472,4.847l-0.234,0.534l0.262,0.179c0.045,0.511,0.145,1.041,0.315,1.595
	c0.051,0.164,0.233,0.249,0.478,0.28c-0.396,0.989-0.584,2.05-0.517,3.132c-5.833,2.299-11.364,0.195-17.177-1.238
	c0.183-0.183,0.299-0.406,0.298-0.668c-0.004-1.559-0.158-3.106-0.163-4.665c0-0.063-0.013-0.118-0.022-0.176
	c0.271-0.217,0.424-0.484,0.337-0.773c-5.146-17.139-7.067-35.448-1.868-52.813c2.109-7.051,3.943-13.948,5.056-21.15
	c0.07,0.006,0.139,0.015,0.218,0.015c11.333,0,22.666,0,34,0c0.272,0,0.516-0.061,0.725-0.155L273.584,335.793z M240.553,352.612
	c2.729,2.727,5.453,5.453,8.18,8.181c0.984,0.983,3.441-0.522,2.213-1.751c-2.727-2.728-5.452-5.454-8.18-8.181
	C241.781,349.878,239.325,351.385,240.553,352.612z M238.24,375.744c3.564,0,7.131,0,10.695,0c0.96,0,3.127-1.457,1.178-1.457
	c-3.564,0-7.131,0-10.695,0C238.458,374.287,236.291,375.744,238.24,375.744z M250.977,387.199c-0.745-0.292-1.517,0.017-2.049,0.55
	c-2.517,2.517-5.034,5.032-7.551,7.551c-0.507,0.506-0.191,1.274,0.403,1.508c0.745,0.292,1.518-0.016,2.05-0.549
	c2.517-2.518,5.033-5.033,7.551-7.551C251.888,388.202,251.572,387.433,250.977,387.199z M233.367,418.272l3.011,0.371
	c-1.005-0.268-2.008-0.531-3.011-0.765V418.272z M268.35,292.669c-2.124-0.6-4.359-0.898-6.623-0.975
	c-5.57,0.422-10.551,1.638-10.551,1.638s-0.365-0.034-0.971-0.057c-0.437,0.134-0.877,0.258-1.304,0.407
	c-4.271,1.496-10.854,4.62-8.919,10.204c0.141,0.403-0.021,0.755-0.327,1.017c0.003,4.858,0.017,9.731-0.125,14.599
	c11.936,0,23.868,0,35.803,0l1.106-6.563C276.855,305.294,277.225,295.169,268.35,292.669z"></path>
<path id="color_x5F_1" d="M278.531,266.912c-0.488-1.47-0.964-2.938-1-4.5c-0.021-0.946,2.883-1.446,2.897-0.775
	c0.036,1.562,0.511,3.03,1,4.5C281.68,266.892,278.804,267.734,278.531,266.912z M306.919,261.12
	c-0.474,1.542-0.482,3.149-0.482,4.749c0,0.653,2.898,0.18,2.898-0.775c-0.001-1.498,0.016-2.979,0.459-4.423
	C310.033,259.894,307.173,260.294,306.919,261.12z M292.706,278.45c1.394,0.486,2.743,0.58,4.211,0.595
	c0.508,0.005,1.354-0.371,1.509-0.913c1.479-5.202,0.178-10.496,0.08-15.786c-0.029-1.565-2.967-1.153-2.941,0.199
	c0.087,4.698,1.31,9.604,0.316,14.258c-0.514-0.063-1.021-0.181-1.518-0.362C293.077,275.991,290.959,277.841,292.706,278.45z
	 M283.868,279.662c-0.542-1.026-3.332-0.034-2.666,1.226c1.254,2.374,3.564,3.799,5.979,4.796c1.104,0.455,3.38-1.126,1.709-1.816
	C286.801,283.005,284.94,281.692,283.868,279.662z M285.728,254.344c1.646-0.086,2.229-2.242,0.254-2.138
	c-4.817,0.253-8.834-3.259-13.75-3c-1.646,0.086-2.229,2.241-0.254,2.138C276.796,251.091,280.812,254.602,285.728,254.344z
	 M307.59,253.21c1.964-2.209,4.212-2.563,6.997-1.83c0.666,0.175,1.439-0.013,2.037-0.328c0.268-0.143,0.985-0.737,0.313-0.914
	c-4.362-1.147-8.926-0.289-12.003,3.17C304.223,254.107,307.068,253.796,307.59,253.21z M311.629,423.878
	c-6.082,0-12.164,0-18.245,0c-1.113,0-3.075,1.688-1.115,1.688c6.082,0,12.164,0,18.245,0
	C311.627,425.566,313.589,423.878,311.629,423.878z M238.24,375.744c3.564,0,7.131,0,10.695,0c0.96,0,3.127-1.457,1.178-1.457
	c-3.564,0-7.131,0-10.695,0C238.458,374.287,236.291,375.744,238.24,375.744z M248.732,360.792c0.984,0.983,3.441-0.522,2.213-1.751
	c-2.727-2.728-5.452-5.454-8.18-8.181c-0.984-0.983-3.44,0.523-2.213,1.751C243.281,355.339,246.006,358.065,248.732,360.792z
	 M248.928,387.75c-2.517,2.517-5.034,5.032-7.551,7.551c-0.507,0.506-0.191,1.274,0.403,1.508c0.745,0.292,1.518-0.016,2.05-0.549
	c2.517-2.518,5.033-5.033,7.551-7.551c0.507-0.507,0.19-1.275-0.404-1.509C250.231,386.908,249.46,387.217,248.928,387.75z
	 M352.848,375.671c-3.564,0-7.131,0-10.695,0c-0.699,0-1.455,0.166-2.05,0.549c-0.446,0.288-0.396,0.659,0.177,0.659
	c3.565,0,7.132,0,10.695,0c0.7,0,1.455-0.166,2.05-0.55C353.472,376.042,353.421,375.671,352.848,375.671z M342.097,361.54
	c2.728-2.728,5.452-5.453,8.178-8.181c1.265-1.264-1.56-1.561-2.391-0.729c-2.728,2.727-5.452,5.453-8.178,8.18
	C338.442,362.074,341.266,362.372,342.097,361.54z M341.949,388.984c-0.555-0.554-3.222,0.51-2.726,1.006
	c2.518,2.518,5.033,5.033,7.55,7.551c0.555,0.554,3.222-0.511,2.726-1.007C346.982,394.018,344.465,391.502,341.949,388.984z
	 M163.915,408.819c0.63,0.958,1.571,2.1,0.037,2.734c-0.307,0.126-0.576,0.188-0.821,0.206
	c-12.168,9.048-24.396,18.02-36.708,26.868c-1.498,1.076-2.996,2.153-4.495,3.229c0.005,0.011,0.014,0.021,0.018,0.032
	c0.13,0.325-0.341,0.664-0.557,0.79c-0.001,0-0.002,0.001-0.003,0.001c-0.272,0.16-0.722,0.337-1.164,0.399
	c-5.485,3.93-11.003,7.821-16.656,11.498c-0.27,0.175-9.091,5.706-8.578,2.756c-11.811-26.209-23.462-52.519-34.381-79.113
	c-0.325-0.244-0.363-0.647,0.047-1.278c0.455-0.697,1.655-0.791,2.273-0.396c0.309-0.041,0.613-0.089,0.918-0.152
	c0.993-0.206,1.981-0.438,2.964-0.689c3.182-0.813,6.338-1.717,9.486-2.645c8.775-2.586,17.505-5.33,26.222-8.11
	c8.083-2.577,16.153-5.199,24.217-7.843c0.104-0.671,1.868-1.255,2.625-0.863c3.191-1.049,6.387-2.089,9.573-3.148
	c1.147-0.382,1.76,0.331,1.581,1.039c0.058,0.055,0.107,0.116,0.138,0.191c6.014,15.119,12.044,30.255,18.692,45.109
	c1.308,2.922,2.62,5.85,4.073,8.703c0.085,0.167,0.179,0.33,0.265,0.497C163.777,408.679,163.86,408.738,163.915,408.819z
	 M131.781,405.283c4.393-2.143,8.783-4.285,13.177-6.429c-0.293-0.638-0.587-1.274-0.879-1.913
	c-2.944-6.441-5.857-12.898-8.709-19.384c-4.418,1.712-8.835,3.424-13.253,5.136C125.204,390.282,128.392,397.835,131.781,405.283z
	 M119.349,383.766c-7.102,2.752-14.202,5.504-21.304,8.255c3.44,8.222,7.014,16.389,10.775,24.464
	c6.771-3.303,13.541-6.606,20.313-9.91C125.703,399.054,122.473,391.43,119.349,383.766z M147.615,397.558
	c1.727-0.842,3.452-1.686,5.18-2.527c0.387-0.188,0.78-0.217,1.12-0.144c-3.084-6.962-5.973-14.026-8.789-21.109
	c-2.33,0.903-4.659,1.806-6.989,2.708c3.082,7.017,6.236,14,9.43,20.965C147.583,397.487,147.599,397.522,147.615,397.558z
	 M130.309,358.118c2.271,5.511,4.611,10.992,6.997,16.454c2.352-0.91,4.701-1.821,7.052-2.731
	c-2.146-5.42-4.266-10.843-6.405-16.233C135.406,356.451,132.855,357.279,130.309,358.118z M114.373,363.326
	c2.308,5.806,4.613,11.626,6.964,17.435c4.399-1.705,8.801-3.41,13.201-5.115c-2.41-5.508-4.771-11.037-7.063-16.595
	C123.109,360.482,118.745,361.914,114.373,363.326z M89.576,371.22c2.513,6.305,5.06,12.603,7.669,18.876
	c7.106-2.754,14.215-5.508,21.321-8.263c-2.377-5.861-4.709-11.736-7.04-17.599c-5.294,1.704-10.587,3.41-15.892,5.078
	C93.617,369.948,91.596,370.586,89.576,371.22z M63.895,378.389c2.913,7.082,5.878,14.143,8.883,21.188
	c7.234-2.803,14.469-5.605,21.701-8.408c-2.642-6.333-5.218-12.692-7.758-19.063c-5.9,1.836-11.819,3.624-17.789,5.199
	C68.609,377.39,66.113,378.084,63.895,378.389z M73.582,401.455c3.801,8.884,7.658,17.743,11.563,26.583
	c7.011-3.421,14.021-6.842,21.032-10.263c-3.802-8.148-7.415-16.389-10.896-24.684c-7.109,2.755-14.222,5.511-21.332,8.266
	C73.828,401.405,73.705,401.434,73.582,401.455z M97.956,456.953c0.01-0.038,0.003-0.061,0.009-0.096
	c0,0.003-0.001,0.006-0.001,0.008C97.959,456.896,97.964,456.921,97.956,456.953z M97.897,456.417
	c0.065,0.105,0.084,0.242,0.069,0.397c0,0.001,0.001,0.003,0.001,0.004C97.99,456.641,97.969,456.504,97.897,456.417z
	 M118.211,441.768c-3.102-3.846-5.166-9.759-7.212-13.906c-1.335-2.706-2.639-5.428-3.924-8.158
	c-6.976,3.403-13.95,6.808-20.926,10.209c-0.05,0.024-0.099,0.039-0.147,0.059c3.812,8.612,7.659,17.209,11.524,25.794
	c0.056-0.031,0.099-0.057,0.158-0.09c0.875-0.492,1.729-1.017,2.575-1.558c2.766-1.768,5.481-3.613,8.181-5.48
	C111.716,446.374,114.966,444.074,118.211,441.768z M139.24,426.571c-2.063-1.959-3.486-6.16-4.537-8.267
	c-1.613-3.238-3.16-6.511-4.68-9.798c-6.769,3.302-13.537,6.604-20.306,9.907c1.25,2.653,2.516,5.3,3.813,7.93
	c2.014,4.078,4.014,9.854,6.972,13.799c3.442-2.461,6.877-4.935,10.303-7.418C133.623,430.682,136.429,428.624,139.24,426.571z
	 M152.874,416.565c0.004-0.135,0.064-0.267,0.176-0.39c-0.321-1.514-2.075-4.221-2.559-5.276c-1.544-3.373-3.098-6.742-4.646-10.113
	c-4.392,2.144-8.783,4.286-13.175,6.429c1.519,3.293,3.064,6.57,4.681,9.813c0.863,1.732,2.656,5.958,4.13,7.91
	C145.286,422.156,149.082,419.364,152.874,416.565z M161.233,410.389c-0.253-0.468-0.473-0.994-0.716-1.477
	c-2.072-4.109-4.032-8.283-5.921-12.497c-0.124,0.124-0.292,0.242-0.512,0.351c-1.86,0.908-3.722,1.814-5.581,2.723
	c1.863,4.048,3.738,8.092,5.576,12.151c0.317,0.705,1.045,1.84,1.508,2.919C157.469,413.169,159.355,411.785,161.233,410.389z
	 M534.319,378.232c-3.047,7.411-6.15,14.799-9.299,22.17c0.066,0.025,0.132,0.051,0.198,0.077c1.483,0.575,0.101,1.977-1.107,2.048
	c-7.785,18.179-15.826,36.251-23.949,54.275c0.91,4.069-8.386-1.846-8.704-2.056c-5.729-3.752-11.336-7.693-16.908-11.68
	c-0.386,0.063-0.768,0.048-1.028-0.104c0-0.001-0.001-0.001-0.002-0.002c-0.167-0.098-0.382-0.259-0.289-0.493
	c0.034-0.088,0.084-0.168,0.132-0.251c-1.589-1.14-3.177-2.279-4.763-3.421c-12.379-8.905-24.681-17.923-36.918-27.023
	c-0.237,0.032-0.496,0.028-0.778-0.019c-1.26-0.208,0.015-1.866,0.358-2.391c0.071-0.109,0.196-0.207,0.35-0.294
	c0.69-1.303,1.293-2.667,1.907-3.984c4.987-10.672,9.535-21.559,13.948-32.493c-0.036-0.24,0.082-0.496,0.291-0.727
	c2.276-5.648,4.521-11.31,6.77-16.961c0.021-0.051,0.051-0.1,0.086-0.146c-0.589-0.74,1.124-1.998,2.193-1.643
	c3.29,1.094,6.588,2.169,9.883,3.252c0.906-0.253,1.957-0.182,1.729,0.375c-0.023,0.057-0.048,0.113-0.071,0.171
	c8.281,2.717,16.57,5.412,24.875,8.059c8.718,2.775,17.442,5.535,26.223,8.109c3.147,0.924,6.303,1.846,9.484,2.645
	c0.981,0.246,1.966,0.495,2.962,0.677c0.326,0.061,0.556,0.104,0.723,0.137c0.688-0.351,1.635-0.388,2.019,0.2
	c0.031,0.047,0.052,0.089,0.076,0.135c0.021,0.035,0.041,0.07,0.06,0.104C535.102,377.635,534.879,378.025,534.319,378.232z
	 M531.813,377.682c0.008-0.021,0.017-0.038,0.023-0.059c-0.027-0.245,0.06-0.474,0.228-0.672
	C531.837,377.096,531.691,377.319,531.813,377.682z M483.384,364.31c-2.287,5.755-4.574,11.526-6.906,17.283
	c7.238,2.805,14.479,5.61,21.716,8.416c2.57-6.176,5.082-12.376,7.559-18.586c-2.262-0.706-4.521-1.417-6.777-2.128
	C493.771,367.654,488.578,365.979,483.384,364.31z M473.174,382.932c-4.554-1.765-9.108-3.53-13.663-5.294
	c-2.758,6.263-5.571,12.503-8.42,18.726c-0.338,0.738-0.678,1.477-1.017,2.213c4.527,2.209,9.057,4.419,13.584,6.628
	C466.981,397.85,470.125,390.408,473.174,382.932z M465.916,406.305c6.906,3.37,13.813,6.739,20.72,10.108
	c3.696-7.979,7.22-16.038,10.62-24.15c-7.23-2.802-14.462-5.604-21.693-8.407C472.485,391.4,469.302,398.904,465.916,406.305z
	 M467.422,359.123c-2.254,5.448-4.565,10.874-6.93,16.274c4.532,1.757,9.064,3.514,13.599,5.271
	c2.313-5.707,4.589-11.427,6.86-17.137C476.437,362.075,471.929,360.601,467.422,359.123z M450.681,371.596
	c2.49,0.965,4.98,1.93,7.471,2.895c2.341-5.363,4.64-10.746,6.867-16.157c-2.687-0.884-5.376-1.757-8.06-2.647
	C454.863,360.97,452.786,366.283,450.681,371.596z M440.875,395.188c0.483-0.351,1.171-0.53,1.691-0.275
	c1.764,0.859,3.525,1.72,5.288,2.58c3.155-6.899,6.275-13.813,9.325-20.76c-2.466-0.956-4.933-1.91-7.398-2.866
	C446.931,381.023,444.009,388.162,440.875,395.188z M433.812,410.014c2.007,1.492,4.023,2.971,6.034,4.459
	c0.541-1.134,1.258-2.275,1.583-2.988c1.785-3.909,3.589-7.81,5.382-11.715c-1.971-0.962-3.94-1.923-5.912-2.885
	c-0.307-0.149-0.481-0.331-0.562-0.523c-1.806,4.009-3.672,7.984-5.646,11.899C434.417,408.804,434.144,409.435,433.812,410.014z
	 M442.246,416.246c3.877,2.863,7.76,5.719,11.65,8.563c1.569-2.468,2.897-5.101,4.186-7.722c1.561-3.178,3.061-6.386,4.536-9.605
	c-4.529-2.21-9.061-4.42-13.589-6.63c-1.452,3.155-2.906,6.311-4.351,9.469c-0.502,1.101-2.346,3.938-2.567,5.417
	C442.312,415.835,442.385,416,442.246,416.246z M475.039,440.135c2.578-3.828,5.13-10.186,6.979-13.975
	c1.21-2.479,2.396-4.973,3.567-7.473c-6.907-3.37-13.813-6.74-20.722-10.11c-1.459,3.139-2.945,6.264-4.498,9.354
	c-1.099,2.187-2.47,6.234-4.571,8.261c2.907,2.122,5.81,4.251,8.725,6.362C468.018,435.09,471.521,437.62,475.039,440.135z
	 M497.218,457.341c0.001-0.005,0.002-0.011,0.004-0.016c-0.042-0.335,0.109-0.628,0.369-0.856c0.035-0.079,0.07-0.158,0.106-0.236
	C497.328,456.358,497.076,456.67,497.218,457.341z M509.35,430.148c-0.181-0.004-0.355-0.039-0.517-0.117
	c-7.013-3.422-14.026-6.844-21.039-10.265c-1.306,2.756-2.625,5.505-3.98,8.237c-2.011,4.052-4.002,9.642-7.014,13.386
	c3.345,2.382,6.701,4.748,10.081,7.079c2.702,1.863,5.408,3.726,8.181,5.48c0.947,0.601,1.896,1.204,2.88,1.741
	C501.769,447.189,505.578,438.678,509.35,430.148z M521.718,401.741c-7.369-2.854-14.738-5.711-22.106-8.565
	c-3.437,8.173-7.004,16.292-10.757,24.322c7.154,3.489,14.309,6.98,21.462,10.472C514.167,419.249,517.97,410.507,521.718,401.741z
	 M531.531,378.364c-2.541-0.234-5.616-1.017-5.854-1.08c-5.865-1.568-11.685-3.314-17.487-5.11c-2.5,6.264-5.035,12.52-7.636,18.749
	c7.375,2.857,14.75,5.716,22.125,8.572C525.673,392.47,528.628,385.428,531.531,378.364z M427.783,360.928
	c-5.106,12.297-10.368,24.532-15.694,36.73c-0.03,0.069-0.078,0.135-0.134,0.196c-0.452,0.54-1.905,1.007-2.468,0.689
	c-5.225-2.959-10.106-6.408-14.908-9.977c-0.433,0.064-0.854,0.014-1.146-0.241c-0.001,0-0.001-0.001-0.002-0.001
	c-0.103-0.104-0.135-0.228-0.099-0.367c0.032-0.073,0.078-0.138,0.115-0.206c-0.004,0-0.009,0.001-0.013,0.002
	c0.006-0.008,0.012-0.017,0.019-0.023c-1.468-1.098-2.93-2.202-4.393-3.307c1.421,4.338,2.822,8.679,4.157,13.037
	c0.146,0.478-0.259,0.892-0.81,1.134c3.487,2.735,6.077,6.269,4.935,10.663c1.834,2.945,3.463,6.619-0.142,8.809
	c-0.819,0.498-1.756,0.835-2.733,1.062c-0.992,7.26-3.054,15.359-8.818,20.262c-4.625,3.935-10.21,5.488-16.201,5.719
	c-14.805,0.57-29.032-5.582-43.723-6.536c-8.414,0.571-8.151-9.609-8.938-17.028c-1.904,4.426-3.034,9.174-2.994,14.637
	c0.006,0.823-1.413,1.321-2.275,1.063c-0.327,0.182-0.688,0.309-0.994,0.309c-0.109,0-0.219,0-0.328,0
	c-0.48,1.464-1.647,2.506-3.156,3.24c0.214,0.008,0.353,0.038,0.344,0.088c-1.171,6.838-21.004,7.771-20.935,0.146
	c0-0.021,0.012-0.041,0.016-0.062c-1.521-0.735-2.636-1.822-2.889-3.414c-1.084,0-2.168,0-3.252,0c-1.005,0-0.991-0.459-0.589-0.907
	c0.058-8.133-2.247-14.815-5.822-21.28c1.522,6.35,3.314,12.639-1.289,18.374c-0.036,0.045-0.084,0.086-0.137,0.125
	c-2.019,5.029-7.438,8.108-13.019,8.542c-0.018,0.005-0.026,0.014-0.044,0.019c-17.987,5.047-66.07,19.541-65.676-12.924
	c-0.441-0.066-0.878-0.162-1.302-0.302c-4.083-1.348-3.469-6.039-2.688-9.402c0.019-0.079,0.061-0.153,0.111-0.225
	c-3.06-6.171-5.355-13.144,2.295-16.791c0.896-0.427,1.811-0.802,2.733-1.158c-1.529-2.113,0.172-7.413,1.473-10.882
	c-3.39,2.538-6.801,5.008-10.473,7.173c-0.493,0.662-2.466,1.127-2.816,0.325c-5.458-12.502-10.851-25.041-16.075-37.647
	c-0.747-0.075-1.22-0.502-0.406-0.972c-2.084-5.039-4.146-10.086-6.162-15.15c-0.373-0.19-0.496-0.539-0.17-1.133
	c0.366-0.666,1.534-0.924,2.273-0.732c0.113-0.032,0.336-0.083,0.721-0.172c0.776-0.181,1.55-0.375,2.318-0.586
	c2.238-0.614,4.464-1.275,6.682-1.958c5.619-1.729,11.212-3.543,16.796-5.386c1.813-0.598,3.624-1.207,5.437-1.81
	c0.108-0.036,0.218-0.072,0.326-0.108c3.207-1.066,6.412-2.142,9.614-3.225c0.37-0.232,0.926-0.421,1.426-0.484
	c2.209-0.749,4.419-1.492,6.625-2.25c0.651-0.224,1.129-0.089,1.39,0.199c4.091-12.22,10.563-23.896,22.703-24.866
	c-0.317-11.04,23.592-13.407,30.676-11.977c3.817,0.771,6.484,2.147,8.346,4.198c-1.953-4.822-6.94-8.247-9.751-13.119
	c-1.493-2.59-2.479-5.303-3.202-8.084c-0.12,0.049-0.234,0.102-0.387,0.134c-3.474,0.74-7.614,0.755-10.215-2.085
	c-2.248-2.454-3.017-5.99-2.611-9.244c0.459-3.687,2.493-6.924,5.3-8.248c-2.968-2.277-4.302-7.051-4.731-10.402
	c-0.599-4.68-0.337-9.702,3.053-13.241c0.007-0.073,0.022-0.146,0.051-0.216c0.191-8.091,2.82-15.239,7.14-21.096
	c1.688-2.287,3.632-4.375,5.789-6.246c5.976-5.181,13.576-8.689,21.869-10.065c0-1.809,0-3.616,0-5.424
	c0-0.779,1.077-1.249,1.926-1.164c0.372-0.209,0.798-0.361,1.117-0.361c3.833,0,7.666,0,11.5,0c1.005,0,0.939,0.409,0.503,0.808
	c0.087,0.133,0.139,0.293,0.139,0.489c0,1.872,0,3.743,0,5.615c0.214-0.049,0.397-0.071,0.521-0.053
	c8.627,1.276,17.729,4.699,23.102,11.969c6.051,8.188,7.489,18.139,6.785,28.084c4.718,3.677,5.588,10.44,3.889,15.958
	c-0.558,1.807-1.438,3.968-2.835,5.327c2.828,1.267,4.761,4.593,4.999,8.643c0.471,7.982-5.814,12.493-13.294,11.021
	c-0.646,2.322-1.503,4.561-2.737,6.633c-3.197,5.367-9.095,9.511-10.477,15.376c0.017-0.012,0.027-0.028,0.045-0.041
	c6.51-4.95,17.77-2.867,25.233-1.735c6.535,0.991,11.585,3.497,12.67,8.615c0.147-0.012,0.288-0.006,0.411,0.025
	c7.537,1.996,14.817,5.503,18.379,12.852c3.751,7.742,4.004,16.505,5.894,24.771c0.102,0.443,0.211,0.884,0.313,1.326
	c0.107-0.271,0.212-0.544,0.319-0.815c0.05-0.127,0.1-0.255,0.148-0.383c1.518-3.849,3.033-7.697,4.521-11.559
	c0.006-0.017,0.019-0.031,0.026-0.046c-0.408-0.755,1.223-1.907,2.253-1.553c2.184,0.75,4.372,1.485,6.559,2.228
	c0.757-0.126,1.461-0.006,1.335,0.454c5.172,1.75,10.348,3.488,15.534,5.194c5.838,1.922,11.682,3.835,17.563,5.619
	c2.138,0.647,4.276,1.3,6.438,1.863c0.712,0.187,1.426,0.384,2.15,0.513c0.083,0.015,0.143,0.025,0.207,0.038
	c0.67-0.279,1.49-0.255,1.803,0.311c0.02,0.036,0.024,0.064,0.042,0.1c0.073,0.062,0.109,0.141,0.102,0.238
	c0.229,0.624,0.012,0.998-0.462,1.2c-1.948,4.882-3.933,9.75-5.941,14.608C429.679,359.556,428.804,360.629,427.783,360.928z
	 M432.041,343.774c0.011-0.024,0.021-0.051,0.031-0.076c-0.004-0.316,0.172-0.604,0.439-0.827
	C432.174,343.017,431.91,343.282,432.041,343.774z M417.197,340.451c-1.563,4.036-3.146,8.069-4.766,12.088
	c4.604,1.843,9.209,3.684,13.813,5.524c1.856-4.504,3.688-9.02,5.493-13.544c-1.021-0.127-1.948-0.339-2.229-0.412
	C425.371,343.026,421.275,341.759,417.197,340.451z M400.789,335.088c-1.405,3.704-2.858,7.388-4.35,11.057
	c4.54,1.814,9.08,3.631,13.62,5.447c1.595-3.965,3.156-7.941,4.696-11.925c-0.784-0.254-1.568-0.507-2.352-0.76
	C408.526,337.653,404.658,336.37,400.789,335.088z M383.924,368.744c0.741-1.598,1.491-3.192,2.215-4.798
	c-1.479-0.745-2.96-1.49-4.438-2.235C382.426,364.06,383.169,366.404,383.924,368.744z M387.012,361.992
	c2.14-4.802,4.188-9.643,6.176-14.51c-2.729-1.092-5.462-2.184-8.191-3.275c-1.396,3.261-2.805,6.516-4.232,9.762
	c-0.15,0.344-0.631,0.604-1.159,0.754c0.45,1.551,0.912,3.1,1.381,4.646c0.348-0.067,0.665-0.075,0.872,0.029
	C383.576,360.262,385.293,361.128,387.012,361.992z M389.21,363.1c4.393,2.212,8.786,4.425,13.18,6.637
	c2.347-5.249,4.589-10.545,6.754-15.872c-4.545-1.818-9.091-3.636-13.636-5.454C393.479,353.338,391.395,358.239,389.21,363.1z
	 M390.254,331.556c-1.401,3.479-2.831,6.945-4.294,10.396c2.72,1.087,5.438,2.176,8.159,3.264c1.46-3.624,2.886-7.263,4.263-10.92
	C395.67,333.392,392.963,332.472,390.254,331.556z M379.379,339.32c1.41,0.564,2.82,1.128,4.229,1.692
	c1.438-3.413,2.851-6.837,4.226-10.276c-1.5-0.509-3.002-1.012-4.501-1.524C382.029,332.587,380.706,335.955,379.379,339.32z
	 M376.74,344.132c0.661,2.659,1.369,5.305,2.11,7.941c1.281-2.929,2.552-5.861,3.803-8.804c-1.389-0.556-2.777-1.111-4.167-1.667
	c-0.238,0.604-0.47,1.211-0.71,1.815C377.651,343.732,377.226,343.978,376.74,344.132z M330.769,402.475
	c-0.165-0.111-0.293-0.267-0.349-0.481c-0.091-0.349-0.17-0.712-0.241-1.079c-1.203,1.896-2.523,3.761-3.936,5.612
	c1.016,3.719,2.427,8.44,6.087,10.285c0.058,0.029,0.099,0.061,0.143,0.092c0.593-1.71,0.551-3.462-0.965-5.097
	c-1.299-1.402-2.643-2.832-3.121-4.754C327.747,404.489,328.918,403.087,330.769,402.475z M333.039,402.105
	c0.254-0.008,0.511-0.011,0.77-0.002c2.283,0.077,5.762,1.176,8.298,3.014c-0.761-2.673-2.7-5.068-4.943-6.612
	c-0.864-0.596-2.62-1.875-3.775-1.508c-1.109,0.354-0.243,3.543-0.067,4.221C333.408,401.56,333.279,401.863,333.039,402.105z
	 M345.465,414.366c2.202-0.059,4.4-0.514,6.594-1.05c0.356-0.087,0.713-0.176,1.069-0.265c0.496-1.654,0.951-3.321,1.383-4.995
	c-0.032-0.064-0.012-0.138,0.057-0.217c4.146-16.165,5.146-33.128-0.11-49.201c-2.709-8.283-4.43-16.569-5.474-24.954
	c-9.771,0-19.541,0-29.313,0c-0.128,0-0.257,0-0.386,0c-0.346,0-0.558-0.048-0.677-0.125c0.133,1.01,0.231,2.021,0.289,3.034
	c0.11,1.929,0.068,3.861-0.176,5.802c3.581,1.875,6.834,4.362,9.536,7.545c6.99,8.232,10.027,19.122,9.274,29.842
	c-0.36,5.147-1.633,9.782-3.57,14.137c-0.146,0.33-0.3,0.656-0.454,0.982c0.219-0.025,0.438-0.032,0.662-0.031
	c1.038,0.006,2.096,0.278,2.967,0.688c4.676,2.197,8.813,7.181,8.198,12.6c-0.025,0.222-0.138,0.415-0.297,0.579
	c0.261,0.776,0.348,1.603,0.16,2.481c-0.234,1.11-0.604,2.16-1.033,3.179c0.093-0.016,0.184-0.025,0.265-0.022
	C344.775,414.388,345.121,414.376,345.465,414.366z M266.44,406.229c-0.825-1.446-3.077-1.596-4.54-1.499
	c-2.021,0.135-3.971,0.84-5.387,2.013c-0.1,0.146-0.237,0.271-0.404,0.369c-1.098,1.065-1.776,2.455-1.77,4.111
	c2.612-2.476,6.769-3.602,10.679-1.667c0.138,0.068,0.217,0.167,0.263,0.275C266.297,408.742,267.113,407.408,266.44,406.229z
	 M225.767,415.584c2.017-0.288,4.055-0.279,6.128,0.036c-0.008-1.124-0.073-2.243-0.118-3.365
	C229.726,413.134,227.725,414.337,225.767,415.584z M234.835,415.5c0.001,0.261-0.115,0.484-0.298,0.668
	c5.813,1.434,11.344,3.536,17.177,1.237c-0.067-1.082,0.119-2.143,0.517-3.132c-0.244-0.031-0.427-0.116-0.478-0.28
	c-0.172-0.555-0.271-1.084-0.315-1.595c-0.021-0.242-0.031-0.479-0.026-0.713c0.045-1.975,1.019-3.588,2.472-4.847
	c-0.081-0.132-0.137-0.287-0.151-0.471c-0.235-3.032,0.823-6.644,3.938-7.822c3.321-1.258,5.755,1.122,6.982,4.005
	c0.144,0.336,0.058,0.639-0.155,0.882c0.638,0.01,1.309,0.066,1.95,0.192c-5.457-8.793-8.796-18.146-8.058-28.9
	c0.851-12.379,6.417-22.294,14.988-28.646c-0.188-0.165-0.31-0.396-0.314-0.707c-0.055-3.218,0.169-6.405,0.521-9.58
	c0.015-0.129,0.025-0.259,0.041-0.388c-0.13,0.15-0.302,0.28-0.511,0.375c-0.209,0.096-0.451,0.155-0.725,0.155
	c-11.334,0-22.667,0-34,0c-0.079,0-0.146-0.008-0.218-0.015c-1.111,7.203-2.945,14.1-5.056,21.15
	c-5.199,17.364-3.276,35.674,1.867,52.813c0.087,0.289-0.065,0.557-0.336,0.773c0.01,0.058,0.022,0.111,0.022,0.176
	C234.677,412.392,234.832,413.94,234.835,415.5z M275.688,320.711c-0.358,0.192-0.759,0.332-1.063,0.332
	c-11.714,0-23.429,0-35.142,0c-0.129,3.553-0.351,7.099-0.738,10.63c-0.085,0.769-0.189,1.527-0.292,2.289
	c0.073-0.01,0.147-0.019,0.228-0.019c11.334,0,22.667,0,34,0c0.557,0,0.897,0.161,1.073,0.389
	C274.313,329.784,275.094,325.259,275.688,320.711z M261.904,403.573c-0.06-0.072-0.111-0.152-0.15-0.246
	c-0.419-0.984-1.941-3.827-3.417-2.651c-1.317,1.049-1.685,2.77-1.696,4.405C258.315,404.29,260.181,403.789,261.904,403.573z
	 M276.011,344.303c6.169-3.799,13.623-5.935,21.846-6.057c0.241-0.004,0.351,0.028,0.373,0.083c0.376-0.294,0.861-0.518,1.302-0.511
	c5.603,0.083,11.26,1.119,16.403,3.277c0.547-8.77-3.158-18.105-4.735-26.54c-0.448-2.396-1.18-5.737-1.373-9.059
	c-7.177,8.28-23.104,6.313-30.541-1.444c0.024,0.225,0.056,0.441,0.077,0.672C280.656,317.975,275.998,331.06,276.011,344.303z
	 M348.81,332.194c-0.504-4.386-0.832-8.801-1.019-13.258c-0.182,0.057-0.354,0.093-0.503,0.093c-10.65,0-21.304,0-31.954,0
	c1.219,4.721,2.567,9.429,3.224,14.155c0.266-0.433,1.295-0.99,1.896-0.99C329.906,332.194,339.356,332.194,348.81,332.194z
	 M322.931,294.242c-4.715,0.155-9.004,1.526-9.826,6.463c-0.012,0.066-0.02,0.137-0.03,0.204c-0.032,0.232-0.063,0.468-0.081,0.715
	c-0.397,5.351,0.643,10.637,1.96,15.903c0.057-0.008,0.112-0.014,0.165-0.014c10.872,0,21.747,0,32.62,0
	c-0.097-2.708-0.146-5.431-0.153-8.174c-0.057-0.12-0.067-0.267-0.016-0.444c1.281-4.326,1.511-9.208-3.212-11.487
	c-3.721-1.796-7.896-2.091-11.947-2.512c-0.436-0.045-0.894-0.096-1.367-0.148C328.6,294.476,325.693,294.151,322.931,294.242z
	 M312.146,245.218c7.164-1.438,12.433-5.628,17.163-10.852c-11.674,2.08-23.504,3.602-35.366,3.519
	c-7.494-0.053-15.058-0.218-22.488-1.263c-4.217-0.594-8.81-1.298-12.881-2.984c0.486,0.623,1.005,1.212,1.55,1.773
	c1.195,1.231,2.522,2.32,3.956,3.281c1.867,1.253,3.906,2.293,6.058,3.151c0.515-0.037,0.977,0.087,1.129,0.429
	c6.7,2.444,14.297,3.275,20.842,3.583C298.684,246.167,305.665,246.518,312.146,245.218z M324.699,206.127
	c-5.299-7.17-13.066-10.938-21.614-12.528c0,13.794,0,27.587,0,41.38c0,0.179-0.063,0.34-0.159,0.482
	c9.303-0.479,18.597-1.861,27.736-3.541C331.156,223.104,330.079,213.406,324.699,206.127z M290.565,235.604
	c1.843,0.034,3.685,0.052,5.526,0.054c1.381,0.001,2.762-0.025,4.143-0.069c-0.05-0.111-0.084-0.233-0.084-0.38
	c0-16.113,0-32.228,0-48.34c-3.104,0-6.211,0-9.315,0c0,16.037,0,32.074,0,48.11C290.834,235.219,290.731,235.43,290.565,235.604z
	 M329.253,255.531c-1.04,5.159-1.357,10.784-2.595,16.059c0.389-0.159,0.792-0.244,1.09-0.18c6.191,1.319,9.555-3.573,8.83-9.392
	C336.096,258.138,333.577,252.957,329.253,255.531z M255.992,229.17c5.212,4.002,12.691,4.903,19.024,5.558
	c4.307,0.445,8.622,0.677,12.943,0.802c-0.035-0.097-0.061-0.2-0.061-0.321c0-13.987,0-27.974,0-41.959
	C269.776,195.828,256.304,210.858,255.992,229.17z M262.262,271.399c-1.145-5.089-1.562-10.375-2.641-15.554
	c-1.812-1.2-3.859-1.829-5.339,0.257c-1.294,1.826-1.947,4.059-2.007,6.292c-0.15,5.761,3.4,10.352,9.534,9.044
	C261.977,271.403,262.12,271.401,262.262,271.399z M269.662,281.664c2.08,2.728,4.584,5.151,6.52,7.779
	c0.285,0.016,0.536,0.091,0.695,0.251c8.104,8.231,20.328,10.968,30.1,3.841c0.95-0.693,3.409-0.213,1.82,0.944
	c-9.236,6.737-20.903,6.244-29.906,0.258c0.414,1.554,0.505,3.25,0.178,5.137c0.362,0.001,0.672,0.097,0.812,0.327
	c5.554,9.208,23.914,13.509,29.304,2.029c0.106-0.226,0.376-0.415,0.707-0.55c0.041-0.363,0.102-0.718,0.165-1.069
	c-1.329-7.054,3.295-11.398,7.607-16.505c6.057-7.171,6.619-16.128,8.075-24.934c-0.074-0.022-0.145-0.051-0.203-0.09
	c-4.913-3.261-5.563-9.399-6.019-14.858c-1.333,0.628-2.724,1.157-4.185,1.557c-2.431,0.667-4.924,1.091-7.44,1.369
	c-1.222,0.135-2.448,0.243-3.681,0.31c-4.055,0.218-8.14,0.109-12.133-0.077c-6.523-0.307-14.08-0.975-20.939-3.077
	c-0.903,5.831-4.786,10.771-7.247,16.028c-0.077,0.165-0.236,0.308-0.439,0.427C264.449,268.07,265.143,275.735,269.662,281.664z
	 M250.206,293.275c-0.437,0.134-0.877,0.258-1.304,0.407c-4.271,1.496-10.854,4.62-8.919,10.204
	c0.141,0.403-0.021,0.755-0.327,1.017c0.003,4.858,0.017,9.731-0.125,14.599c11.936,0,23.868,0,35.803,0c0.148,0,0.298,0,0.447,0
	c0.022,0,0.038,0.003,0.061,0.003c0.262-2.137,0.476-4.277,0.593-6.43c0.003-0.044,0.005-0.091,0.007-0.136
	c0.415-7.646,0.784-17.771-8.091-20.271c-2.124-0.6-4.359-0.898-6.623-0.975C257.828,291.563,253.856,292.151,250.206,293.275z
	 M207.478,330.52c1.024,2.571,2.072,5.133,3.138,7.688c0.556-2.196,1.159-4.485,1.834-6.806c-0.293-0.757-0.585-1.514-0.877-2.271
	C210.209,329.598,208.842,330.056,207.478,330.52z M202.226,374.526c0.802-3.283,1.519-6.583,2.219-9.885
	c-3.728,1.938-7.407,3.963-11.081,6.001c0.783,1.741,1.578,3.477,2.393,5.204c1.148,2.437,2.318,4.869,3.595,7.243
	C200.454,380.281,201.511,377.456,202.226,374.526z M204.99,362.068c-0.109-0.094-0.202-0.207-0.265-0.35
	c-1.994-4.616-3.873-9.276-5.704-13.955c-4.359,1.792-8.718,3.591-13.074,5.391c2.23,5.542,4.541,11.052,6.978,16.503
	c3.678-2.035,7.367-4.049,11.113-5.957c0.111-0.058,0.354-0.12,0.645-0.176C204.785,363.04,204.887,362.554,204.99,362.068z
	 M208.406,347.068c0.284-1.087,0.576-2.258,0.878-3.48c-2.503,1.009-5.003,2.022-7.501,3.046c1.377,3.522,2.797,7.028,4.254,10.52
	C206.767,353.779,207.533,350.412,208.406,347.068z M196.947,334.08c1.442,3.764,2.884,7.527,4.345,11.283
	c2.589-1.059,5.18-2.112,7.773-3.156c-1.516-3.559-2.979-7.137-4.413-10.729C202.085,332.348,199.518,333.221,196.947,334.08z
	 M180.563,339.462c1.604,4.146,3.22,8.294,4.875,12.427c4.362-1.802,8.726-3.604,13.09-5.397c-1.486-3.819-2.95-7.647-4.42-11.477
	c-3.661,1.215-7.32,2.432-10.99,3.618C182.267,338.907,181.415,339.185,180.563,339.462z M163.059,342.901
	c0.079,0.104,0.118,0.229,0.108,0.375c0.003,0.009,0.007,0.018,0.01,0.025C163.204,343.119,163.15,342.991,163.059,342.901z
	 M169.342,358.472c4.457-1.798,8.905-3.619,13.348-5.451c-1.688-4.203-3.338-8.421-4.97-12.643
	c-4.017,1.295-8.049,2.556-12.126,3.62c-0.172,0.045-0.998,0.262-1.958,0.437C165.509,349.126,167.414,353.804,169.342,358.472z
	 M169.867,359.728c2.531,6.109,5.106,12.202,7.709,18.282c4.296-2.226,8.526-4.568,12.756-6.916
	c-2.489-5.552-4.854-11.163-7.133-16.807C178.761,356.116,174.318,357.934,169.867,359.728z M197.501,387.813
	c0.166-0.439,0.334-0.879,0.505-1.318c-1.908-1.333-3.959-7.36-4.504-8.508c-0.932-1.959-1.836-3.932-2.729-5.909
	c-4.104,2.276-8.216,4.539-12.398,6.67c-0.083,0.042-0.237,0.087-0.428,0.13c2.503,5.842,5.022,11.676,7.563,17.498
	C189.693,393.772,193.549,390.776,197.501,387.813z M196.925,427.887c5.106-0.691,10.037-3.33,14.519-5.73
	c6.665-3.569,13.241-8.794,20.384-11.483c0.047-0.1,0.104-0.192,0.185-0.275c-2.262-7.588-3.983-15.635-4.688-23.746
	c-0.317-3.654-0.421-7.318-0.275-10.962c0.246-6.224,1.213-12.381,3.163-18.283c5.744-17.395,6.537-34.795,6.539-52.968
	c0-0.144,0.062-0.276,0.159-0.399c-0.02-0.067-0.039-0.135-0.058-0.202c-0.144,0.049-0.297,0.086-0.463,0.1
	c-9.602,0.715-14.827,11.438-17.946,19.313c-1.06,2.675-1.973,5.384-2.813,8.112c0.01,0.025,0.021,0.052,0.03,0.078
	c0.172,0.443-0.027,0.827-0.389,1.096c-1.414,4.723-2.624,9.502-3.94,14.278c-3.105,11.257-4.108,23.196-8.327,34.121
	c-1.53,3.964-3.192,7.904-4.445,11.969c-0.143,0.466-2.116,7.911-0.892,7.641c0.13-0.028,0.236-0.021,0.353-0.028
	c3.753-1.226,7.604-2.217,11.25-3.744c5.366-2.247,10.633-4.372,16.504-4.625c1.948-0.083-0.111,1.545-1.143,1.59
	c-6.192,0.267-11.66,3.243-17.318,5.437c-2.638,1.021-5.403,1.689-8.112,2.501c-0.134,0.307-0.451,0.59-1.036,0.718
	c-0.602,0.132-1.109,0.163-1.554,0.123c-0.492,0.178-0.981,0.367-1.467,0.57c-8.277,3.472-5.056,10.522-1.826,16.801
	c0.188,0.365-0.313,0.762-0.952,0.991C191.813,424.406,192.206,428.526,196.925,427.887z M268.794,425.827
	c-2.002-2.511-5.136-3.787-7.095-6.26c-1.728-2.178-1.716-4.636-0.44-7.106c1.124-2.179-1.408-3.447-3.595-1.88
	c-1.316,0.942-2.503,2.387-2.821,4.026c-0.563,2.896,0.229,5.104,2.37,7.09c0.814,0.756-1.914,1.867-2.688,1.15
	c-1.339-1.241-2.146-2.576-2.538-3.913c-3.646,1.345-7.448,1.623-11.347,0.778c-1.43-0.311-2.849-0.692-4.264-1.069
	c-1.005-0.268-2.008-0.531-3.011-0.765c-3.857-0.899-7.709-1.336-11.675,0.313c-0.021,0.009-0.045,0.015-0.065,0.023
	c-0.382,0.233-0.764,0.469-1.144,0.688c-5.283,3.061-10.665,6.178-16.372,8.395c-2.197,0.854-4.853,1.895-7.453,2.209
	c-0.021,28.993,41.971,17.051,60.231,11.87c0.412-0.351,1.048-0.645,1.536-0.62c0.232,0.011,0.466,0.013,0.7,0.006
	c0.251-0.056,0.467-0.063,0.653-0.039C266.689,440.099,274.134,432.527,268.794,425.827z M269.749,408.661
	c-0.001-0.013,0.007-0.024,0.008-0.037c-0.174-0.259-0.354-0.52-0.53-0.779c-0.751,1.573-2.557,3.019-3.567,3.845
	c-0.218,0.177-0.819,0.339-1.383,0.408c-1.639,3.614-0.699,6.026,2.92,8.692c2,1.474,4.356,3.361,5.475,5.754
	C272.925,420.74,270.016,414.638,269.749,408.661z M274.505,410.516c1.54,2.316,2.88,4.648,4.009,7.027c5.326,0,10.652,0,15.979,0
	c0.512-3.083,0.585-6.176,0.458-9.27c-0.447,0.194-0.943,0.291-1.285,0.181c-5.014-1.612-8.379-5.993-9.245-11.125
	c-0.195-1.156,1.862-1.458,2.591-1.132c2.817,1.258,5.422,3.041,7.442,5.315c-0.712-7.719-1.541-15.405,1.313-22.929
	c-0.006-0.101,0.017-0.215,0.085-0.352c1.928-3.771,4.069-7.317,6.666-10.667c0.497-0.644,1.739-1.076,2.502-0.67
	c13.072,6.96-1.127,24.52-6.465,32.086c-0.213,0.301-0.771,0.521-1.336,0.616c0.245,2.6,0.499,5.204,0.614,7.807
	c0.051,0.161,0.106,0.318,0.151,0.48c0.057,0.202,0.006,0.393-0.113,0.563c0.086,2.928-0.027,5.854-0.554,8.771
	c-0.021,0.124-0.107,0.231-0.229,0.325c5.892,0,11.783,0,17.675,0c0.438,0,0.677,0.091,0.782,0.229
	c1.182-2.217,2.562-4.375,4.135-6.495c1.207-1.626,2.443-3.239,3.663-4.861c0.061-0.081,0.12-0.161,0.18-0.241
	c4.688-6.248,9.079-12.659,10.436-20.618c1.878-11.025,0.243-23.569-6.876-32.571c-7.084-8.958-17.333-13.051-28.597-13.22
	c-1.071-0.016-1.044-0.6-0.591-1.125c-0.554,0.312-1.619,0.692-1.94,0.697c-25.492,0.381-39.549,25.063-33.482,48.528
	C264.7,396.482,269.664,403.231,274.505,410.516z M296.661,391.691c1.479-3.949,2.962-7.896,4.441-11.846
	c0.295-0.786,3.106-1.115,2.867-0.478c-2,5.333-4,10.667-6,16c-0.108,0.288-0.556,0.516-1.065,0.654
	c0.032,0.423,0.067,0.846,0.104,1.27c5.364-7.38,15.979-21.597,7.083-28.102c-2.091,2.895-3.901,5.924-5.537,9.124
	c-0.02,0.039-0.05,0.075-0.079,0.111C296.891,382.803,296.536,387.232,296.661,391.691z M288.164,399.571
	c1.139,2.885,3.181,5.37,6.013,6.694C292.847,403.508,290.712,401.275,288.164,399.571z M304.468,441.715
	c-2.893,0.743-6.157,0.835-8.136,0.821c-1.563-0.01-4.108-0.063-6.523-0.527C292.234,446.297,303.562,446.455,304.468,441.715z
	 M307.374,437.552c-6.91,0-13.819,0-20.729,0C288.81,442.186,306.069,442.079,307.374,437.552z M315.024,418.771
	c-0.396,0.304-0.923,0.544-1.353,0.544c-11.452,0-22.905,0-34.357,0c1.453,3.421,2.454,6.96,2.952,10.714c5.782,0,11.563,0,17.347,0
	c1.939,0-0.327,1.336-1.209,1.336c-5.327,0-10.654,0-15.981,0c0.143,1.444,0.218,2.919,0.21,4.435c0.67,0,1.34,0,2.01,0
	c0.428-0.116,0.889-0.126,1.235,0c8.335,0,16.669,0,25.003,0C310.933,429.593,312.401,424.01,315.024,418.771z M391.543,419.479
	c-0.897,0.024-1.784-0.01-2.61-0.096c-4.651-0.479-8.564-2.012-12.71-4.085c-6.253-3.127-12.254-5.487-19.032-6.695
	c-0.331,1.242-0.675,2.48-1.04,3.711c3.886-0.875,7.742-1.302,11.551,0.628c1.119,0.568-1.56,1.714-2.328,1.324
	c-6.67-3.383-14.713,1.756-21.877,1.615c-1.71,3.59-3.771,6.934-2.845,11.334c0.145,0.685-2.77,1.387-2.897,0.775
	c-0.916-4.356,0.936-7.931,2.843-11.737c2.292-4.572,2.517-8.429-2.788-10.889c-1.967-0.912-8.211-3.858-6.522,0.909
	c0.657,1.86,1.688,3.075,2.954,4.548c2.909,3.385,0.928,6.625-1.383,9.855c-0.495,0.691-3.051,0.785-2.856,0.516
	c0.684-0.956,1.396-1.985,1.937-3.046c-0.596,0.316-1.39,0.485-1.86,0.249c-3.281-1.654-4.969-5.366-6.082-8.883
	c-1.821,2.471-3.494,4.931-4.932,7.458c1.237,4.915-0.098,18.319,5.973,20.197c0.39-0.303,0.913-0.527,1.368-0.502
	c13.248,0.777,25.886,5.635,39.109,6.459c6.074,0.379,13.054-0.003,17.765-4.399C388.642,433.722,390.57,426.539,391.543,419.479z
	 M380.957,394.612c-6.115-2.718-13.41-5.584-20.294-5.631c-0.501,6.098-1.573,12.166-3.081,18.125
	c8.905,1.355,16.205,4.838,24.315,8.658c2.996,1.411,6.477,2.341,9.794,2.413c0.008,0,0.015,0,0.021,0
	c0.011-0.085,0.022-0.171,0.033-0.256c0.137-1.139,3.074-1.621,2.916-0.294c-0.006,0.04-0.012,0.081-0.017,0.12
	c2.872-1.186,1.703-4.623-0.157-7.638c-0.015-0.022-0.026-0.048-0.041-0.071c-0.01-0.014-0.019-0.028-0.026-0.043
	c-0.028-0.045-0.021-0.099,0.006-0.154c0.002-0.01-0.001-0.017,0.002-0.025C396.52,402.266,386.454,397.055,380.957,394.612z
	 M382.154,373.001c-0.085-0.06-0.118-0.139-0.077-0.241c-3.114-9.545-6.112-19.125-8.493-28.875
	c-1.971-8.066-2.339-16.708-5.167-24.535c-3.009-8.328-9.103-12.653-17.22-15.092c-0.009,1.323-0.218,2.774-0.697,4.396
	c-0.003,0.01-0.009,0.018-0.013,0.026c0.015,7.845,0.128,15.743,1.036,23.549c0.553,0.1,0.448,0.42,0.08,0.738
	c0.146,1.176,0.309,2.35,0.493,3.521c1.344,8.499,4.062,16.392,6.29,24.654c2.34,8.676,2.98,17.554,2.391,26.387
	c7.821-0.297,16.625,2.888,23.501,6.241c1.668,0.813,3.663,1.828,5.597,3.049C387.408,388.854,384.747,380.938,382.154,373.001z
	 M394.898,385.669c1.624-2.661,2.832-5.864,4.071-8.479c0.865-1.826,1.709-3.661,2.544-5.5c-4.4-2.216-8.801-4.432-13.2-6.646
	c-1.081,2.376-2.164,4.752-3.283,7.111c0.885,2.709,1.776,5.417,2.669,8.123c0.037,0.02,0.077,0.036,0.109,0.061
	C390.183,382.1,392.537,383.892,394.898,385.669z M417.294,379.304c-0.302,0.047-0.572,0.043-0.756-0.049
	c-4.267-2.148-8.531-4.296-12.798-6.444c-0.729,1.584-1.475,3.164-2.23,4.736c-1.439,2.989-2.784,6.702-4.809,9.474
	c4.313,3.217,8.699,6.329,13.332,9.088C412.472,390.517,414.891,384.914,417.294,379.304z M425.3,360.325
	c-4.597-1.838-9.193-3.677-13.791-5.516c-2.198,5.393-4.479,10.752-6.885,16.052c4.465,2.249,8.93,4.497,13.395,6.746
	C420.476,371.858,422.908,366.1,425.3,360.325z M80.906,245.97c-0.091-0.06-0.11-0.136-0.063-0.231
	c4.519-8.825,16.568-10.959,25.013-14.107c0.35-0.13,0.773-0.187,1.128-0.178c-0.105-2.405,0.85-4.904,2.419-6.831
	c0.209-0.258,0.669-0.442,1.159-0.541c-0.426-0.303-0.438-0.806,0.544-1.217c0.211-0.088,0.428-0.169,0.646-0.246
	c-0.099-8.879-2.334-20.305,4.141-27.561c0.362-0.407,2.207-1.085,2.676-0.606c7.398,7.561,2.509,19.703,1.479,28.876
	c0.673,0.466,1.281,1.054,1.789,1.792c1.2,1.747,1.675,3.68,1.431,5.52c0.511-0.187,1.036-0.3,1.354-0.184
	c8.229,3.068,19.775,5.063,24.165,13.635c0.117,0.229-0.508,0.521-0.617,0.566c-10.157,4.36-18.902-2.738-27.524-7.603
	c1.398,30.924,2.797,61.849,4.195,92.771c4.604,0,9.209,0,13.813,0c1.962,0,1.466,2.229-0.229,2.229c-4.573,0-9.146,0-13.719,0
	c-0.591,0.708-2.27,0.873-2.645,0c-4.771,0-9.541,0-14.312,0c-0.646,0.716-2.331,0.867-2.628,0c-3.345,0-6.688,0-10.031,0
	c-1.962,0-1.466-2.229,0.229-2.229c3.278,0,6.56,0,9.839,0c1.396-30.861,2.792-61.723,4.187-92.583
	C100.796,241.952,90.952,250.282,80.906,245.97z M117.703,237.136c-1.733,0.715-3.696,1.045-5.469,0.727
	c-1.386,30.655-2.771,61.312-4.157,91.967c4.604,0,9.212,0,13.816,0C120.498,298.93,119.1,268.032,117.703,237.136z
	 M121.141,234.884c3.899,1.982,7.486,4.507,11.353,6.551c2.359,1.249,4.835,2.569,7.468,3.126c3.729,0.79,7.018,0.055,3.406-3.223
	c-5.66-5.137-13.313-6.978-20.366-9.497C122.654,232.936,122.034,233.97,121.141,234.884z M114.65,221.888
	c0,0.042-0.012,0.082-0.024,0.122c0.939-0.073,1.882-0.017,2.783,0.184c1.295-8.219,4.721-18.387-0.374-25.345
	C112.674,203.906,114.57,214.076,114.65,221.888z M110.786,233.938c0.032,0.048,0.069,0.088,0.104,0.134
	c0.753-0.105,1.51,0.144,1.477,0.901c-0.008,0.147-0.015,0.297-0.021,0.445c1.604,0.974,3.609,0.9,5.274-0.12
	c-0.001-0.029-0.003-0.059-0.004-0.087c-0.028-0.632,0.703-1.065,1.443-1.148c0.025-0.03,0.054-0.056,0.079-0.086
	c2.442-2.949,1.206-7.195-1.512-9.159c-0.325-0.001-0.552-0.051-0.541-0.154c0.006-0.062,0.014-0.124,0.021-0.186
	c-1.38-0.795-3.063-1.021-4.817-0.289c-0.032,0.014-0.065,0.021-0.099,0.033c0.117,0.123,0.121,0.295-0.07,0.53
	C110.148,227.172,108.81,231.074,110.786,233.938z M95.108,244.044c2.048-1.012,4.035-2.122,5.988-3.305
	c2.601-1.574,5.183-3.17,7.896-4.546c-1.134-1.176-1.741-2.563-1.941-4.012c-0.063,0.027-0.124,0.054-0.199,0.082
	c-7.008,2.613-17.672,4.331-22.041,11.042C81.931,247.728,93.628,244.773,95.108,244.044z M183.94,270.145
	c0.807,17.844,1.612,35.688,2.42,53.529c2.545,0,5.091,0,7.636,0c1.962,0,1.466,2.229-0.229,2.229c-2.624,0-5.248,0-7.873,0
	c-0.631,0.396-1.655,0.462-2.137,0c-2.643,0-5.283,0-7.924,0c-0.66,0.4-1.688,0.461-2.129,0c-1.854,0-3.708,0-5.563,0
	c-1.962,0-1.466-2.229,0.229-2.229c1.73,0,3.463,0,5.193,0c0.811-17.894,1.618-35.784,2.428-53.675
	c-5.111,2.955-10.823,7.245-16.749,4.742c-0.09-0.059-0.109-0.136-0.062-0.23c2.77-5.344,10.03-6.666,15.171-8.578
	c0.085-0.032,0.176-0.057,0.268-0.081c0-1.405,0.567-2.844,1.479-3.962c0.128-0.157,0.279-0.287,0.443-0.399
	c0.038-0.393,0.572-0.757,0.877-0.884c0.008-0.003,0.016-0.005,0.022-0.008c-0.104-5.301-1.265-11.808,2.514-16.116
	c0.354-0.405,2.215-1.085,2.676-0.605c4.367,4.538,1.548,11.602,0.916,17.086c0.372,0.275,0.72,0.595,1.006,1.011
	c0.685,0.996,0.976,2.083,0.907,3.136c0.225-0.044,0.431-0.061,0.573-0.007c4.955,1.843,11.836,3.035,14.498,8.169
	c0.117,0.228-0.509,0.522-0.616,0.567C193.856,276.397,189.004,273.074,183.94,270.145z M180.921,268.128
	c0.044-0.495,0.555-0.857,1.145-0.998c1.001-1.477,0.371-3.833-1.008-4.876c-0.276-0.01-0.462-0.06-0.453-0.153
	c0.004-0.04,0.012-0.082,0.016-0.121c-0.505-0.25-1.082-0.317-1.697-0.146c-0.021,0.061-0.053,0.122-0.106,0.188
	c-1.07,1.313-1.856,3.446-0.857,5.046c0.585,0.03,1.074,0.308,1.047,0.92c-0.001,0.028-0.003,0.057-0.004,0.084
	C179.605,268.395,180.286,268.422,180.921,268.128z M180.345,259.992c0.187-0.002,0.37,0.018,0.556,0.031
	c0.769-4.395,2.3-9.578,0.233-13.457C179.394,250.581,180.277,255.828,180.345,259.992z M175.748,268.865
	c-0.555-0.621-0.89-1.33-1.036-2.074c-3.884,1.346-8.919,2.331-11.593,5.547c-2.345,2.822,3.199,1.751,4.707,1.007
	c1.291-0.638,2.539-1.349,3.771-2.097C172.962,270.419,174.332,269.604,175.748,268.865z M183.418,323.675
	c-0.812-17.931-1.621-35.861-2.433-53.792c-0.682,0.204-1.392,0.313-2.082,0.307c-0.806,17.829-1.611,35.656-2.419,53.484
	C178.796,323.675,181.107,323.675,183.418,323.675z M184.287,267.856c3.424,1.839,9.038,6.71,13.155,5.871
	c-2.409-4.188-7.904-5.554-12.393-7.035C184.86,267.103,184.605,267.491,184.287,267.856z M447.949,245.969
	c-0.09-0.06-0.109-0.136-0.062-0.231c4.521-8.825,16.568-10.959,25.013-14.106c0.129-0.048,0.27-0.085,0.411-0.114
	c-0.096-1.922,0.561-3.884,1.949-5.46c0.407-0.461,0.849-0.864,1.313-1.221c-1.103-9.241-5.85-21.203,1.563-28.778
	c0.367-0.376,2.225-1.112,2.676-0.605c6.437,7.213,4.173,18.605,4.083,27.436c-0.002,0.153-0.104,0.291-0.267,0.411
	c0.493,0.128,0.981,0.292,1.465,0.493c0.637,0.266,0.301,0.73-0.313,1.081c0.576-0.137,1.174-0.103,1.444,0.229
	c1.818,2.23,2.785,5.185,2.312,7.874c0.65-0.336,1.637-0.701,2.122-0.52c8.229,3.067,19.776,5.063,24.165,13.635
	c0.116,0.229-0.509,0.521-0.616,0.566c-10.29,4.417-19.132-2.925-27.863-7.793c1.386,30.654,2.771,61.309,4.158,91.961
	c3.353,0,6.704,0,10.057,0c1.962,0,1.466,2.229-0.229,2.229c-3.319,0-6.642,0-9.962,0c-0.591,0.708-2.27,0.873-2.644,0
	c-4.771,0-9.541,0-14.313,0c-0.646,0.716-2.331,0.868-2.628,0c-4.596,0-9.191,0-13.788,0c-1.962,0-1.466-2.229,0.229-2.229
	c4.532,0,9.063,0,13.596,0c1.408-31.131,2.816-62.263,4.224-93.394C467.58,242.171,457.863,250.224,447.949,245.969z
	 M484.394,238.653c-1.753,0.485-3.706,0.369-5.471-0.229c-1.394,30.801-2.786,61.602-4.179,92.403c4.604,0,9.212,0,13.816,0
	C487.172,300.102,485.783,269.378,484.394,238.653z M487.694,236.662c0.069,0.013,0.134,0.028,0.188,0.057
	c4.02,2.006,7.688,4.617,11.654,6.716c2.359,1.249,4.835,2.569,7.468,3.127c3.729,0.79,7.018,0.054,3.406-3.223
	c-5.833-5.294-13.782-7.088-21.012-9.731C489.105,234.71,488.551,235.751,487.694,236.662z M479.383,223.383
	c0.85-0.262,1.734-0.396,2.632-0.404c0.179-8.004,1.96-18.23-2.842-25.161C474.57,204.963,478.269,215.325,479.383,223.383z
	 M478.04,235.056c0.504,0.04,0.919,0.272,0.979,0.75c1.626,1.068,3.703,1.648,5.291,1.01c-0.009-0.201-0.019-0.403-0.026-0.604
	c-0.033-0.743,0.985-1.21,1.832-1.156c0.102-0.212,0.191-0.44,0.27-0.691c0.91-2.936,0.067-5.754-1.839-8.091
	c-0.307-0.376-0.066-0.764,0.378-1.048c-0.423,0.118-0.843,0.153-1.116,0.039C477.885,222.787,473.481,230.973,478.04,235.056z
	 M462.154,244.042c2.047-1.011,4.033-2.121,5.986-3.305c2.453-1.484,4.894-2.982,7.438-4.305c-0.072-0.069-0.15-0.134-0.219-0.205
	c-1.061-1.1-1.701-2.419-1.947-3.795c-7.006,2.519-17.285,4.31-21.559,10.871C448.975,247.726,460.673,244.771,462.154,244.042z
	 M421.979,266.885c0.454-0.149,0.904-0.231,1.187-0.127c4.913,1.828,11.684,3.014,14.322,8.104c0.117,0.228-0.509,0.522-0.616,0.567
	c-6.138,2.593-11.04-0.854-16.177-3.812c0.801,17.687,1.601,35.37,2.399,53.056c1.804,0,3.607,0,5.412,0
	c1.962,0,1.466,2.229-0.229,2.229c-1.884,0-3.767,0-5.649,0c-0.631,0.396-1.655,0.462-2.137,0c-2.643,0-5.283,0-7.925,0
	c-0.659,0.4-1.688,0.461-2.129,0c-2.596,0-5.189,0-7.784,0c-1.962,0-1.467-2.229,0.229-2.229c2.473,0,4.945,0,7.417,0
	c0.816-18.052,1.633-36.103,2.448-54.152c-5.062,2.949-10.701,7.098-16.548,4.628c-0.09-0.06-0.11-0.136-0.063-0.231
	c2.744-5.294,9.896-6.642,15.026-8.524c-0.02-1.179,0.413-2.371,1.264-3.336c0.198-0.227,0.416-0.423,0.64-0.61
	c-0.701-5.534-3.359-12.427,1.008-16.964c0.359-0.375,2.232-1.112,2.676-0.606c3.804,4.34,2.51,10.974,2.448,16.266
	c-0.001,0.062-0.022,0.121-0.054,0.178c0.214,0.065,0.429,0.127,0.638,0.214c0.31,0.129,0.355,0.353,0.287,0.578
	c0.189,0.046,0.354,0.126,0.463,0.259C421.585,263.661,422.149,265.323,421.979,266.885z M417.649,269.333
	c-0.002-0.035-0.003-0.07-0.005-0.105c-0.024-0.578,0.586-0.987,1.257-1.117c0.498-1.66,0.03-3.242-1.051-4.567
	c-0.13-0.159-0.154-0.32-0.115-0.476c-0.079-0.021-0.163-0.029-0.239-0.062c-3.044-1.271-4.4,3.144-2.538,5.097
	c0.372,0.076,0.67,0.272,0.755,0.623C416.324,269.127,417.037,269.405,417.649,269.333z M415.886,261.104
	c0.144-0.027,0.291-0.033,0.437-0.051c0.147-4.31,0.916-9.564-1.129-13.475C413.54,251.591,415.238,256.852,415.886,261.104z
	 M412.419,269.429C412.419,269.428,412.418,269.428,412.419,269.429c-0.598-0.62-0.959-1.344-1.136-2.101
	c-3.826,1.282-8.623,2.306-11.209,5.417c-2.345,2.822,3.2,1.751,4.706,1.008c1.294-0.639,2.54-1.349,3.772-2.097
	C409.827,270.883,411.105,270.128,412.419,269.429z M420.152,324.674c-0.809-17.869-1.615-35.737-2.425-53.604
	c-0.688,0.107-1.392,0.097-2.083-0.022c-0.809,17.876-1.617,35.752-2.425,53.628C415.531,324.674,417.841,324.674,420.152,324.674z
	 M421.66,268.168c-0.166,0.398-0.398,0.776-0.689,1.132c3.393,1.717,9.203,6.88,13.429,6.019
	C431.925,271.021,426.207,269.695,421.66,268.168z M157.004,166.424c-1.241-5.839,3.616-9.109,8.774-9.214
	c-0.296-2.876,0.604-5.669,3.369-7.361c2.988-1.829,6.485-2.352,9.921-2.009c-0.093-14.647,28.604-12.434,27.79,2.156
	c6.5-0.752,14.107,1.674,15.484,8.963c1.121,5.94-3.189,9.125-8.214,9.91c-2.635,8.16-14.684,10.519-21.028,4.621
	c-6.259,3.956-16.714,4.495-21.754-1.139C165.857,173.789,158.403,173.006,157.004,166.424z M160.086,166.292
	c1.596,4.418,5.972,5.133,9.992,4.293c-0.067-0.117-0.142-0.229-0.204-0.352c-0.688-1.305,2.09-2.333,2.66-1.25
	c0.163,0.312,0.359,0.593,0.555,0.877c0.549,0.074,0.826,0.497,0.764,0.956c4.21,4.617,12.929,4.722,17.908,1.12
	c0.036-0.063,0.151-0.154,0.319-0.254c0.196-0.154,0.402-0.3,0.587-0.466c0.861-0.785,3.516-0.441,2.521,0.661
	c2.827,3.229,7.867,5.4,11.895,2.944c2.307-1.407,3.726-3.391,4.328-5.768c-0.262-0.003-0.523-0.003-0.785-0.019
	c-1.896-0.108,0.019-1.491,1.064-1.519c0.051-0.495,0.077-1,0.065-1.521c-0.018-0.755,2.889-1.177,2.897-0.775
	c0.019,0.777-0.043,1.516-0.166,2.222c1.98-0.265,3.813-1.098,4.612-3.174c0.746-1.94,0.702-4.078-0.097-6.006
	c-2.086-5.039-7.108-7.486-12.311-6.877c-0.008,0.044-0.008,0.086-0.017,0.131c-0.257,1.377-3.229,1.707-2.945,0.186
	c2.426-13.018-22.397-16.221-21.722-3.519c0.032,0.603-0.509,1.018-1.136,1.162c-0.393,0.354-1.008,0.614-1.538,0.525
	c-2.829-0.464-6.361-0.568-8.737,1.336c-2.547,2.042-2.271,5.228-1.279,8.014c0.396,1.112-2.484,1.938-2.897,0.775
	c-0.081-0.228-0.154-0.457-0.224-0.687c-0.056,0.002-0.11,0.006-0.167,0.002C161.854,158.976,158.519,161.953,160.086,166.292z
	 M187.844,179.535c-1.3,3.084-1.662,6.412-2.762,9.565c-0.227,0.646,0.915,0.789,1.278,0.724c2.146-0.378,4.351,0.688,6.501,1.158
	c-1.26,3.151-2.521,6.301-3.779,9.452c-0.42,1.051,2.499,0.71,2.909-0.318c1.333-3.333,2.666-6.667,4-10
	c0.202-0.507-0.603-0.707-0.91-0.735c-2.348-0.216-4.515-1.301-6.833-1.4c0.84-2.751,1.195-5.638,2.315-8.298
	C191.148,178.296,188.25,178.572,187.844,179.535z M175.203,182.908c0.942-1,1.412-2.33,1.45-3.688
	c0.021-0.685-2.868-0.225-2.897,0.775c-0.031,1.086-0.471,2.19-1.217,2.98c-0.479,0.507,0.408,0.685,0.737,0.676
	C173.947,183.637,174.729,183.408,175.203,182.908z M169.86,194.209c1.19-1.261,1.457-2.644,1.459-4.321
	c0-0.604-2.896-0.147-2.897,0.775c-0.001,1.421-0.196,2.61-1.207,3.68c-0.465,0.491,0.402,0.603,0.715,0.587
	C168.569,194.897,169.401,194.693,169.86,194.209z M205.917,186.418c1.116-1.743,1.463-3.659,2.086-5.599
	c0.226-0.702-0.888-0.928-1.323-0.891c-0.72,0.061-1.381,0.436-1.605,1.137c-0.567,1.771-0.896,3.479-1.914,5.068
	c-0.396,0.62,0.341,1.099,0.865,1.153C204.761,187.363,205.516,187.042,205.917,186.418z M202.631,196.679
	c0.439-0.862,1.308-1.784,1.354-2.791c0.019-0.375-2.859-0.04-2.897,0.775c-0.018,0.371-0.245,0.71-0.432,1.021
	c-0.302,0.504-0.611,0.999-0.88,1.522c-0.229,0.446,1.026,0.261,1.148,0.237C201.395,197.357,202.381,197.169,202.631,196.679z
	 M378.953,155.781c0.091-0.104,0.219-0.214,0.406-0.331c0.092-0.057,0.188-0.104,0.279-0.16c7.774-4.702,18.367-5.609,24.465,2.399
	c5.512,7.241,5.38,17.793-1.563,24.147c-7.274,6.655-18.081,8.491-25.606,1.005C368.417,174.368,370.045,163.003,378.953,155.781z
	 M378.872,180.93c7.146,7.11,18.254,6.405,23.73-2.586c3.486-5.723,3.496-13.341-0.655-18.794
	c-5.336-7.009-13.445-7.663-20.758-3.119C373.264,162.591,371.386,173.483,378.872,180.93z M390.778,145.888
	c0-2.889,0-5.778,0-8.667c0-0.417-2.897-0.017-2.897,0.775c0,2.89,0,5.778,0,8.667C387.88,147.081,390.778,146.68,390.778,145.888z
	 M387.195,193.057c0,2.889,0,5.778,0,8.667c0,1.506,2.935,1.052,2.935-0.229c0-2.889,0-5.777,0-8.667
	C390.129,191.32,387.195,191.774,387.195,193.057z M356.381,170.533c2.889-0.056,5.777-0.111,8.665-0.169
	c0.834-0.017,3.16-1.306,1.229-1.268c-2.889,0.057-5.776,0.113-8.665,0.169C356.775,169.282,354.45,170.571,356.381,170.533z
	 M411.384,170.049c2.889-0.057,5.776-0.113,8.665-0.169c0.695-0.014,1.446-0.192,2.049-0.549c0.456-0.271,0.402-0.586-0.154-0.576
	c-2.888,0.057-5.775,0.113-8.665,0.169c-0.694,0.014-1.446,0.191-2.049,0.549C410.773,169.743,410.828,170.059,411.384,170.049z
	 M371.621,153.117c0.508,0.522,3.154-0.542,2.733-0.977c-2.012-2.073-4.022-4.146-6.035-6.22c-0.508-0.522-3.154,0.542-2.733,0.977
	C367.598,148.971,369.609,151.044,371.621,153.117z M412.393,192.271c-2.012-2.073-4.022-4.146-6.035-6.221
	c-0.625-0.646-3.353,0.407-2.707,1.072c2.012,2.073,4.023,4.146,6.035,6.221C410.311,193.988,413.039,192.937,412.393,192.271z
	 M372.947,185.312c-0.644,0.038-1.466,0.239-1.935,0.713c-2.034,2.052-4.067,4.104-6.102,6.154
	c-0.478,0.479,0.413,0.572,0.705,0.555c0.643-0.038,1.464-0.24,1.934-0.713c2.035-2.051,4.068-4.103,6.102-6.154
	C374.127,185.387,373.24,185.295,372.947,185.312z M405.021,153.817c0.597-0.059,1.498-0.229,1.942-0.677
	c2.035-2.051,4.067-4.104,6.102-6.154c0.448-0.452-0.396-0.444-0.668-0.417c-0.597,0.06-1.499,0.229-1.942,0.677
	c-2.034,2.053-4.067,4.104-6.103,6.154C403.903,153.853,404.751,153.845,405.021,153.817z" fill="#e0a80d"></path>
</svg>